<?xml version="1.0" standalone="no"?>
<!DOCTYPE svg PUBLIC "-//W3C//DTD SVG 1.1//EN" "http://www.w3.org/Graphics/SVG/1.1/DTD/svg11.dtd" >
<svg xmlns="http://www.w3.org/2000/svg" xmlns:xlink="http://www.w3.org/1999/xlink" version="1.1">
<metadata></metadata>
<defs>
<font id="eurekasans-lightregular" horiz-adv-x="874" >
<font-face units-per-em="2048" ascent="1638" descent="-410" />
<missing-glyph horiz-adv-x="495" />
<glyph horiz-adv-x="0" />
<glyph unicode="&#xd;" horiz-adv-x="495" />
<glyph unicode=" "  horiz-adv-x="495" />
<glyph unicode="&#x09;" horiz-adv-x="495" />
<glyph unicode="&#xa0;" horiz-adv-x="495" />
<glyph unicode="!" horiz-adv-x="397" d="M113 96q0 45 30.5 77t77.5 32q45 0 77 -32t32 -77t-32 -76.5t-77 -31.5q-47 0 -77.5 31.5t-30.5 76.5zM152 788v392h133v-392q0 -47 -6.5 -116.5t-14.5 -134.5q-8 -78 -18 -160h-56q-12 82 -20 160q-8 66 -13 135t-5 116z" />
<glyph unicode="&#x22;" horiz-adv-x="655" d="M150 1315h104l-18 -375h-72zM401 1315h105l-17 -375h-71z" />
<glyph unicode="#" horiz-adv-x="835" d="M33 412v88h174l45 338h-170v88h180l49 389h88l-51 -389h209l49 389h88l-51 -389h158v-88h-170l-41 -338h166v-88h-181l-53 -412h-90l53 412h-204l-54 -412h-86l54 412h-162zM295 500h207l43 338h-209z" />
<glyph unicode="$" horiz-adv-x="823" d="M61 68l48 96q25 -14 57.5 -29.5t70 -29t76.5 -21.5t76 -8q117 0 190.5 56t73.5 153q0 78 -40 131t-99 95t-130 78t-130 81t-99 105.5t-40 148.5q0 55 20.5 103t56 84t81.5 59.5t98 31.5l-4 184h98l-4 -180q92 -4 157.5 -30.5t104.5 -49.5l-45 -90q-45 25 -111.5 50.5 t-144.5 25.5q-33 0 -66.5 -12.5t-61.5 -35t-45.5 -56t-17.5 -76.5q0 -70 39 -117t98.5 -87t128 -78t128 -85t98.5 -110.5t39 -155.5q0 -135 -79 -217t-222 -100l4 -195h-98l4 190q-43 2 -87 11.5t-85 23t-77 28.5t-61 28z" />
<glyph unicode="%" horiz-adv-x="1095" d="M41 850q0 174 59.5 262t149.5 88q68 0 108.5 -35t63 -87t30 -112.5t7.5 -109.5q0 -92 -17.5 -158.5t-47 -109.5t-67.5 -63.5t-81 -20.5q-94 0 -149.5 92t-55.5 254zM129 854q0 -55 6 -106.5t21.5 -89t39 -61.5t56.5 -24t56.5 24t36.5 61.5t19.5 88t6.5 105.5 q0 57 -6.5 107.5t-20.5 89t-37.5 61.5t-56.5 23t-55.5 -24t-37 -62.5t-21.5 -89t-7 -103.5zM180 12l619 1198l78 -32l-619 -1194zM637 326q0 174 59.5 262t149.5 88q68 0 108.5 -36t63 -88t30 -111.5t7.5 -108.5q0 -92 -17.5 -159t-47 -110t-68.5 -63t-80 -20 q-94 0 -149.5 92t-55.5 254zM725 330q0 -55 6 -106.5t20.5 -90.5t38 -62.5t56.5 -23.5t56.5 23.5t37.5 62.5t20.5 89.5t6.5 105.5q0 57 -6.5 107t-21.5 89t-38.5 61.5t-56.5 22.5t-55.5 -23.5t-37 -62.5t-20.5 -89t-6 -103z" />
<glyph unicode="&#x26;" horiz-adv-x="1245" d="M63 358q0 70 27 130.5t67 106.5t87 74.5t88 35.5q-98 35 -154.5 97t-56.5 169q0 49 17.5 95t53 81t88 55.5t119.5 20.5q74 0 137.5 -15.5t92.5 -33.5l-35 -78q-23 16 -68 28.5t-102 12.5q-102 0 -148.5 -49.5t-46.5 -135.5q0 -61 28 -101t70 -64.5t89 -34t88 -9.5v-90 q-59 0 -117.5 -19.5t-104.5 -57t-75 -92t-29 -124.5q0 -141 84 -217.5t215 -76.5q55 0 105.5 13t96.5 34.5t90 48t89 55.5v432h-248v94h598v-94h-250v-649h-100v127q-84 -61 -184.5 -108.5t-212.5 -47.5q-190 0 -294 100.5t-104 286.5z" />
<glyph unicode="'" horiz-adv-x="348" d="M121 1315h106l-18 -375h-72z" />
<glyph unicode="(" horiz-adv-x="407" d="M61 586q0 152 21.5 278.5t56.5 230t78 183.5t84 137l66 -43q-39 -66 -74 -143.5t-60.5 -172.5t-40 -212t-14.5 -260q0 -141 16.5 -256t43 -209t60.5 -172t69 -146l-66 -41q-41 57 -84 136t-78 182.5t-56.5 229.5t-21.5 278z" />
<glyph unicode=")" horiz-adv-x="407" d="M41 -199q37 66 70.5 144t59.5 173t42 209.5t16 256.5q0 143 -14 260t-39.5 212t-60.5 173t-74 143l65 43q41 -57 84 -137t78 -183.5t56.5 -230t21.5 -278.5t-21.5 -278t-56.5 -229.5t-78 -182t-84 -136.5z" />
<glyph unicode="*" horiz-adv-x="712" d="M20 989v111l295 -43v-25zM123 768l203 258l22 -14l-135 -303zM123 1319l100 57l121 -291l-20 -16zM356 1010l21 14l209 -252l-105 -59zM358 1083l125 295l101 -53l-203 -258zM385 1028v25l307 47v-111z" />
<glyph unicode="+" horiz-adv-x="940" d="M61 367v82h365v364h88v-364h365v-82h-365v-367h-88v367h-365z" />
<glyph unicode="," horiz-adv-x="550" d="M158 -209l59 160q8 20 12 44.5t3 47.5t-8 42t-23 30q0 45 27.5 70.5t72.5 25.5t68.5 -32t23.5 -77q0 -6 -2 -19t-6 -22l-137 -309z" />
<glyph unicode="-" horiz-adv-x="512" d="M16 395v92h480v-92h-480z" />
<glyph unicode="." horiz-adv-x="548" d="M186 96q0 45 32 77t77 32t76.5 -32t31.5 -77t-31.5 -76.5t-76.5 -31.5t-77 31.5t-32 76.5z" />
<glyph unicode="/" horiz-adv-x="811" d="M0 -276l735 1507l76 -33l-733 -1509z" />
<glyph unicode="0" horiz-adv-x="999" d="M70 408q0 88 33.5 165.5t92 136t136.5 92.5t168 34q88 0 166.5 -34t137 -92.5t92.5 -136t34 -165.5q0 -90 -34 -168t-92.5 -136.5t-137 -92.5t-166.5 -34q-90 0 -168 34t-136.5 92.5t-92 136t-33.5 168.5zM184 408q0 -72 22.5 -134.5t63.5 -109.5t99.5 -74t130.5 -27 q70 0 128 27t100 74t64.5 109.5t22.5 134.5q0 70 -22.5 132t-64.5 108t-100.5 74t-127.5 28q-72 0 -130.5 -28t-99.5 -74t-63.5 -108.5t-22.5 -131.5z" />
<glyph unicode="1" horiz-adv-x="692" d="M82 717v90h340v-715h211v-92h-535v92h215v625h-231z" />
<glyph unicode="2" horiz-adv-x="761" d="M74 0v57l213 170q33 27 82 64t95 81t77.5 90t31.5 91q0 92 -55 141t-147 49q-72 0 -129.5 -26.5t-112.5 -63.5l-51 74q57 45 131 77t153 32q63 0 122 -18.5t104 -54.5t70.5 -90.5t25.5 -125.5q0 -55 -33 -106.5t-79 -96.5t-95 -81t-84 -60l-157 -115h450v-88h-612z" />
<glyph unicode="3" horiz-adv-x="774" d="M33 -305l43 82q33 -20 89 -42t128 -22t125 22.5t88 59.5t51 84t16 98q0 61 -22.5 109.5t-60 82.5t-87 51.5t-102.5 17.5h-76v79h74q39 0 82 15.5t77 45.5t56.5 70.5t22.5 92.5q0 86 -54.5 142t-165.5 56q-63 0 -111 -21.5t-85 -43.5l-41 74q41 29 109.5 55t148.5 26 q76 0 135 -22.5t99 -59t60.5 -87t20.5 -105.5q0 -88 -49 -160.5t-145 -111.5q43 -10 85 -36t74.5 -65t52 -91.5t19.5 -115.5q0 -72 -26.5 -134t-77.5 -110t-125 -76t-166 -28q-82 0 -151.5 19.5t-110.5 48.5z" />
<glyph unicode="4" horiz-adv-x="915" d="M35 0v74l567 776h105v-758h159v-92h-159v-309h-107v309h-565zM158 92h442v600z" />
<glyph unicode="5" horiz-adv-x="786" d="M57 -334l45 88q35 -16 90.5 -32.5t118.5 -16.5q57 0 109.5 17.5t92.5 54.5t62.5 93t22.5 134q0 133 -84 208t-231 75q-88 0 -146 -13l80 533h459v-92h-373l-51 -340q23 4 37 3t43 -1q78 0 148.5 -26.5t122.5 -74t83 -114t31 -148.5q0 -94 -32 -168.5t-87 -127t-129 -80 t-156 -27.5q-72 0 -143.5 16.5t-112.5 38.5z" />
<glyph unicode="6" d="M70 440q0 129 38.5 253t113.5 228.5t186.5 185.5t257.5 126l34 -78q-178 -68 -296.5 -178.5t-172.5 -263.5q61 29 112.5 40t98.5 11q76 0 142.5 -27.5t116 -80t77 -125t27.5 -160.5q0 -82 -25.5 -153t-71.5 -123t-112 -81.5t-145 -29.5q-98 0 -170 39.5t-119 104.5 t-69.5 146.5t-22.5 165.5zM184 438q0 -74 19.5 -140.5t54.5 -116.5t84 -78.5t111 -28.5q106 0 173.5 76t67.5 217q0 72 -20.5 129t-55 97t-80.5 61.5t-98 21.5q-53 0 -117.5 -16.5t-121.5 -38.5q-10 -41 -14.5 -82t-2.5 -101z" />
<glyph unicode="7" horiz-adv-x="722" d="M4 713v94h690v-68l-491 -1138l-101 20l467 1092h-565z" />
<glyph unicode="8" horiz-adv-x="866" d="M70 293q0 111 73.5 195.5t192.5 140.5q-111 53 -167 123.5t-56 148.5q0 68 25.5 123t70.5 93t105.5 59.5t129.5 21.5q78 0 137.5 -23.5t98.5 -62.5t58.5 -87t19.5 -99q0 -80 -50.5 -155t-166.5 -134q55 -25 101 -55.5t81 -68.5t54.5 -87.5t19.5 -110.5q0 -72 -29 -133 t-78 -105t-116.5 -69.5t-145.5 -25.5q-86 0 -153.5 26.5t-112.5 70.5t-68.5 99t-23.5 115zM186 307q0 -49 15.5 -92t47.5 -74.5t77 -51t104 -19.5q117 0 183.5 65.5t66.5 171.5q0 59 -19.5 102.5t-53.5 76t-81 56t-100 46.5q-102 -41 -170 -109.5t-70 -171.5zM225 911 q0 -49 19.5 -87t50.5 -66.5t72 -49t84 -36.5q39 18 74.5 40.5t63 52.5t44 66.5t16.5 81.5q0 80 -49 140.5t-158 60.5q-94 0 -155.5 -53t-61.5 -150z" />
<glyph unicode="9" d="M70 440q0 84 26.5 156t73.5 124t113.5 80.5t146.5 28.5q94 0 165 -40.5t117 -107.5t69.5 -148.5t23.5 -163.5q0 -131 -39 -254t-113.5 -227.5t-186.5 -184.5t-257 -125l-33 80q176 66 296 176.5t173 265.5q-61 -29 -112.5 -40t-98.5 -11q-78 0 -144.5 27.5t-115.5 79 t-76.5 123t-27.5 161.5zM180 444q0 -66 20.5 -122t55.5 -96t81 -62.5t97 -22.5q53 0 117.5 15.5t122.5 40.5q10 41 14 80t2 96q0 74 -20.5 140.5t-55 116.5t-83 79.5t-105.5 29.5q-106 0 -176 -79.5t-70 -215.5z" />
<glyph unicode=":" horiz-adv-x="540" d="M180 96q0 45 32 77t77 32q47 0 77.5 -32t30.5 -77t-30.5 -76.5t-77.5 -31.5q-45 0 -77 31.5t-32 76.5zM180 698q0 45 32 77t77 32q47 0 77.5 -32t30.5 -77t-30.5 -76.5t-77.5 -31.5q-45 0 -77 31.5t-32 76.5z" />
<glyph unicode=";" horiz-adv-x="540" d="M137 -209l60 160q8 20 12 44.5t3 47.5t-8 42t-24 30q0 45 28 70.5t73 25.5t68.5 -32t23.5 -77q0 -6 -2 -19t-6 -22l-138 -309zM176 698q0 45 31 77t78 32q45 0 76.5 -32t31.5 -77t-31.5 -76.5t-76.5 -31.5q-47 0 -78 31.5t-31 76.5z" />
<glyph unicode="&#x3c;" horiz-adv-x="743" d="M41 406l590 491l63 -72l-512 -419l520 -431l-67 -69z" />
<glyph unicode="=" horiz-adv-x="1128" d="M115 213v88h899v-88h-899zM115 553v88h899v-88h-899z" />
<glyph unicode="&#x3e;" horiz-adv-x="743" d="M41 -25l518 431l-512 419l64 72l591 -491l-593 -500z" />
<glyph unicode="?" horiz-adv-x="624" d="M20 1110q47 35 114 64.5t153 29.5q66 0 124 -19.5t101 -55t68.5 -87.5t25.5 -118t-21.5 -116t-54 -91t-69.5 -77t-70 -74t-54.5 -82t-21.5 -101h-94q0 68 19.5 120t49 95t64.5 79t65 72.5t49 76.5t19 89q0 86 -58 141.5t-159 55.5q-63 0 -113.5 -25.5t-86.5 -50.5z M156 96q0 45 31.5 77t76.5 32t77 -32t32 -77t-32 -76.5t-77 -31.5t-76.5 31.5t-31.5 76.5z" />
<glyph unicode="@" horiz-adv-x="1298" d="M61 375q0 143 48.5 283.5t136.5 251t213 178t280 67.5q117 0 209 -46t156.5 -123t98.5 -177t34 -211q0 -74 -22.5 -163t-68.5 -165.5t-113.5 -129t-155.5 -52.5q-33 0 -55.5 14.5t-36 38t-19.5 51t-4 54.5q-14 -27 -32.5 -54.5t-42 -49t-52.5 -35t-62 -13.5 q-59 0 -101 25.5t-67.5 66.5t-38 92.5t-12.5 102.5q0 84 26 165t74 143.5t119.5 100t163.5 37.5q23 0 51.5 -5t57.5 -9q33 -6 67 -12l-65 -543q-2 -12 -1 -27.5t5 -31t14.5 -25.5t26.5 -10q63 0 111.5 48t80 115.5t47 140.5t15.5 122q0 98 -24.5 186t-75 155.5t-128 106.5 t-184.5 39q-133 0 -239.5 -62.5t-180 -162.5t-112.5 -223t-39 -244q0 -104 29.5 -199.5t88 -169t144.5 -116.5t201 -43q68 0 136 16t128 45l27 -68q-72 -35 -147 -54t-157 -19q-125 0 -227 48t-174 130t-112 190.5t-40 229.5zM451 381q0 -29 7 -64.5t22.5 -66.5t41 -52.5 t62.5 -21.5q33 0 65.5 20.5t57 50t41 62.5t18.5 58l47 374q-23 6 -47.5 10.5t-46.5 4.5q-72 0 -123 -36t-84 -91.5t-47 -122t-14 -125.5z" />
<glyph unicode="A" horiz-adv-x="964" d="M20 6l416 1174h113l395 -1172l-108 -24l-136 407h-434l-139 -407zM295 483h377l-185 566z" />
<glyph unicode="B" horiz-adv-x="944" d="M164 0v1180h297q76 0 140.5 -20.5t110.5 -59.5t71.5 -94.5t25.5 -122.5q0 -66 -17.5 -113t-44 -77.5t-55 -47t-49.5 -24.5q27 -6 67 -26t75.5 -55.5t61 -85.5t25.5 -116q0 -90 -29.5 -153.5t-81.5 -104.5t-122 -60.5t-147 -19.5h-328zM279 90h206q55 0 104.5 13.5 t86.5 43t57.5 76.5t20.5 115q0 59 -24.5 102t-61.5 72t-80 42t-82 13h-227v-477zM279 657h217q96 0 147 62t51 160q0 104 -69.5 156t-178.5 52h-167v-430z" />
<glyph unicode="C" horiz-adv-x="905" d="M82 600q0 141 38 253t107.5 190.5t170 120.5t223.5 42q59 0 120.5 -16t96.5 -35l-35 -88q-37 16 -86 28.5t-101 12.5q-80 0 -154.5 -27.5t-133 -89t-93 -157t-34.5 -230.5q0 -147 27.5 -247.5t77.5 -162t120 -88t156 -26.5q90 0 147 15.5t113 37.5l30 -92 q-41 -20 -121.5 -42t-172.5 -22q-111 0 -202 35t-156.5 110t-101.5 192.5t-36 285.5z" />
<glyph unicode="D" horiz-adv-x="1050" d="M164 0v1180h328q127 0 218 -46.5t148 -124t84 -184t27 -225.5q0 -297 -131 -448.5t-353 -151.5h-321zM279 92h192q180 0 276.5 121t96.5 389q0 90 -18.5 178t-61.5 157t-111.5 111t-169.5 42h-204v-998z" />
<glyph unicode="E" horiz-adv-x="890" d="M164 0v1180h614v-93h-499v-434h423v-90h-423v-471h550v-92h-665z" />
<glyph unicode="F" horiz-adv-x="804" d="M164 0v1180h610v-93h-495v-444h419v-96h-419v-547h-115z" />
<glyph unicode="G" horiz-adv-x="1011" d="M82 596q0 141 38 254t106.5 191.5t165.5 121.5t218 43q33 0 69 -5t69.5 -13t62.5 -18.5t47 -20.5l-39 -88q-39 18 -97 32.5t-112 14.5q-78 0 -151.5 -28.5t-131 -89t-92 -156t-34.5 -230.5q0 -147 27.5 -248.5t78.5 -165t121 -91t156 -27.5q68 0 125 12t94 22v416h106 v-473q-23 -12 -59.5 -24.5t-81.5 -23.5t-94 -18.5t-94 -7.5q-111 0 -202 35t-157.5 111t-102.5 192.5t-36 282.5z" />
<glyph unicode="H" horiz-adv-x="1132" d="M164 0v1180h115v-506h575v506h115v-1180h-115v575h-575v-575h-115z" />
<glyph unicode="I" horiz-adv-x="442" d="M164 0v1180h115v-1180h-115z" />
<glyph unicode="J" horiz-adv-x="440" d="M-186 -246l28 92q6 -2 32 -10t67 -8q43 0 82.5 12.5t71.5 39t50.5 64.5t18.5 91v1145h112v-1151q0 -74 -28.5 -130.5t-76.5 -93t-107.5 -56t-120.5 -19.5q-31 0 -55.5 4t-41.5 8q-20 6 -32 12z" />
<glyph unicode="K" horiz-adv-x="937" d="M164 0v1180h115v-1180h-115zM303 614v39l485 547l84 -59l-456 -504l479 -610l-94 -60z" />
<glyph unicode="L" horiz-adv-x="784" d="M164 0v1180h115v-1088h485v-92h-600z" />
<glyph unicode="M" horiz-adv-x="1357" d="M123 0l92 1180h139l330 -1020l326 1020h141l84 -1180l-115 -6l-59 1036l-334 -1030h-100l-328 1030l-70 -1036z" />
<glyph unicode="N" horiz-adv-x="1179" d="M164 -6v1180h135l612 -981v981h105v-1180h-115l-633 1016l2 -1016h-106z" />
<glyph unicode="O" horiz-adv-x="1083" d="M82 590q0 139 35 253.5t96 195.5t145 126t183 45q117 0 203.5 -50t143 -134t85 -197.5t28.5 -238.5q0 -139 -35.5 -252t-98 -192.5t-146.5 -124t-180 -44.5q-117 0 -203 49.5t-143.5 132.5t-85 194.5t-27.5 236.5zM203 616q0 -90 15 -186t55 -175t105.5 -130t168.5 -51 q90 0 153.5 44t103.5 114.5t57.5 158.5t17.5 176t-15.5 184.5t-54.5 176.5t-106.5 132t-170.5 52q-90 0 -152.5 -45t-101 -115.5t-57 -158.5t-18.5 -177z" />
<glyph unicode="P" horiz-adv-x="876" d="M164 0v1180h285q186 0 286.5 -82t100.5 -240q0 -86 -29 -155.5t-81 -117.5t-125 -74q-68 -24 -150 -24h-13l-159 2v-489h-115zM276 578h156q135 0 209 69.5t74 200.5q0 125 -67.5 183.5t-198.5 58.5h-173v-512z" />
<glyph unicode="Q" horiz-adv-x="1083" d="M82 590q0 139 35 253.5t96 195.5t145 126t183 45q117 0 203.5 -50t143 -134t85 -197.5t28.5 -238.5q0 -131 -30.5 -238.5t-83.5 -185.5t-126 -126t-159 -60h-6q2 -39 10 -83t27.5 -82t52.5 -63.5t82 -25.5q37 0 66.5 9t62.5 25l35 -75q-41 -23 -87 -35q-39 -10 -81 -10 h-14q-74 0 -122 33.5t-78 85t-43 109.5t-18 107q-104 12 -180 64.5t-127 135.5t-75.5 189.5t-24.5 225.5zM203 616q0 -90 15 -186t55 -176t105.5 -132t168.5 -52q90 0 153.5 45t103.5 115.5t57.5 159.5t17.5 177t-15.5 184.5t-54.5 176.5t-106.5 132t-170.5 52 q-90 0 -152.5 -45t-101 -115.5t-57 -158.5t-18.5 -177z" />
<glyph unicode="R" horiz-adv-x="952" d="M164 -2v1182h285q92 0 161.5 -25t115.5 -68t68.5 -101t22.5 -126q0 -61 -20.5 -111.5t-51 -88t-68.5 -63.5t-73 -38l318 -545l-115 -37l-311 560q-16 -4 -28.5 -5.5t-31.5 -1.5l-157 2v-534h-115zM276 621h168q121 0 188.5 61t67.5 172q0 104 -60 171t-191 67h-173v-471z " />
<glyph unicode="S" horiz-adv-x="823" d="M61 68l48 96q25 -14 57.5 -29.5t70 -29t76.5 -21.5t76 -8q117 0 190.5 56t73.5 153q0 78 -40 131t-99 95t-130 78t-130 81t-99 105.5t-40 148.5q0 63 26.5 115.5t69.5 89t99.5 57t115.5 20.5q104 0 179 -27.5t118 -52.5l-45 -90q-45 25 -111.5 50.5t-144.5 25.5 q-33 0 -66.5 -12.5t-61.5 -35t-45.5 -56t-17.5 -76.5q0 -70 39 -117t98.5 -87t128 -78t128 -85t98.5 -110.5t39 -155.5q0 -152 -99.5 -237t-279.5 -85q-43 0 -89 9.5t-89 23t-80 28.5t-64 30z" />
<glyph unicode="T" horiz-adv-x="849" d="M0 1081v99h850v-99h-371v-1081h-112v1081h-367z" />
<glyph unicode="U" horiz-adv-x="1103" d="M143 381v799h115v-805q0 -63 20.5 -118.5t59.5 -96.5t93 -64.5t122 -23.5q63 0 117.5 22.5t93.5 62.5t61.5 96t22.5 124v803h113v-799q0 -96 -35 -171t-91.5 -126t-130 -77.5t-151.5 -26.5q-90 0 -165 27.5t-129 79.5t-85 127t-31 167z" />
<glyph unicode="V" horiz-adv-x="1042" d="M10 1167l117 31l389 -1059l402 1059l114 -29l-481 -1169h-105z" />
<glyph unicode="W" horiz-adv-x="1503" d="M31 1178l114 22l238 -1071l301 1051h113l276 -1051l293 1071l107 -20l-340 -1180h-138l-260 1016l-295 -1016h-139z" />
<glyph unicode="X" horiz-adv-x="960" d="M31 23l407 593l-334 537l103 53l299 -493l328 491l94 -53l-367 -533l369 -593l-103 -52l-333 545l-367 -543z" />
<glyph unicode="Y" horiz-adv-x="964" d="M20 1165l117 33l346 -635l357 637l104 -37l-409 -702v-461h-115v459z" />
<glyph unicode="Z" horiz-adv-x="935" d="M49 0v78l690 1003h-612v99h752v-72l-691 -1006h668v-102h-807z" />
<glyph unicode="[" horiz-adv-x="569" d="M164 -240v1555h364v-80h-262v-1395h262v-80h-364z" />
<glyph unicode="\" horiz-adv-x="741" d="M-20 1235l100 45l682 -1530l-103 -45z" />
<glyph unicode="]" horiz-adv-x="569" d="M41 -160h264v1395h-264v80h367v-1555h-367v80z" />
<glyph unicode="^" horiz-adv-x="905" d="M41 319l362 814h97l364 -811l-92 -35l-321 741l-318 -745z" />
<glyph unicode="_" horiz-adv-x="1024" d="M0 -156h1024v-80h-1024v80z" />
<glyph unicode="`" horiz-adv-x="448" d="M61 1231l84 65l242 -288l-57 -47z" />
<glyph unicode="a" horiz-adv-x="774" d="M61 205q0 57 25 102t64.5 75t93 46t110.5 18l201 9v118q0 96 -42 131t-105 35q-70 0 -132.5 -18.5t-117.5 -40.5l-31 82q61 25 138 46t159 21q111 0 174.5 -66.5t63.5 -178.5v-584h-103v94q-66 -39 -135.5 -74.5t-161.5 -35.5q-82 0 -141.5 59t-59.5 162zM166 209 q0 -68 36 -102.5t95 -34.5q35 0 72 11t70.5 26.5t63 33t52.5 29.5v201l-186 -8q-37 -2 -73 -11.5t-65.5 -28t-47 -48t-17.5 -68.5z" />
<glyph unicode="b" horiz-adv-x="856" d="M123 37v1278h104v-555q59 23 126 46t147 23q66 0 120 -31.5t93 -83.5t60.5 -119.5t21.5 -139.5q0 -102 -29 -189.5t-81 -151t-124 -98t-160 -34.5q-78 0 -148.5 17t-129.5 38zM227 106q39 -12 85 -23t91 -11q61 0 113.5 29.5t89.5 79.5t57.5 114.5t20.5 136.5 q0 57 -13.5 112.5t-39 98.5t-66.5 69.5t-96 26.5q-25 0 -57.5 -7t-66.5 -18.5t-64.5 -23.5t-53.5 -20v-564z" />
<glyph unicode="c" horiz-adv-x="745" d="M61 389q0 96 27 178t76 140.5t117.5 91t154.5 32.5q70 0 129.5 -17t106.5 -42l-41 -80q-43 23 -90 37t-107 14q-61 0 -110.5 -25.5t-83 -70.5t-52 -108.5t-18.5 -139.5q0 -66 18.5 -125t55.5 -104t90 -71.5t125 -26.5t115.5 15t95.5 44l39 -76q-59 -35 -119 -54t-144 -19 q-90 0 -161.5 32.5t-120.5 89t-76 130t-27 155.5z" />
<glyph unicode="d" d="M47 399q0 86 27.5 164t78 137.5t123 94t164.5 34.5q53 0 100.5 -13t90.5 -32v531h106v-1315h-102v86q-53 -41 -106.5 -68.5t-131.5 -27.5t-142.5 30.5t-110.5 85t-71.5 129t-25.5 164.5zM156 408q0 -68 14 -127.5t45 -103.5t80 -69.5t121 -25.5q66 0 117 31.5t98 66.5 v510q-45 18 -94.5 35.5t-100.5 17.5q-68 0 -121 -26.5t-87.5 -72.5t-53 -107.5t-18.5 -128.5z" />
<glyph unicode="e" horiz-adv-x="794" d="M61 389q0 92 21.5 172t64.5 139.5t105.5 94t144.5 34.5q76 0 131.5 -25.5t95.5 -69.5t64.5 -104.5t40.5 -127.5l-47 -62l-506 -92q14 -119 81 -196.5t183 -77.5q92 0 155.5 28.5t104.5 57.5l43 -78q-45 -31 -120.5 -64.5t-192.5 -33.5q-84 0 -151.5 32.5t-115.5 89 t-75 130t-27 153.5zM170 428l438 92q-10 43 -25.5 84t-39 73t-59 51.5t-85.5 19.5q-53 0 -96 -25t-72.5 -68t-45 -101t-15.5 -126z" />
<glyph unicode="f" horiz-adv-x="544" d="M41 721v86h123v209q0 82 22.5 142.5t60.5 100t88 59t107 19.5q70 0 114 -14t91 -33l-33 -86q-31 12 -70.5 26.5t-92.5 14.5q-78 0 -130.5 -55t-52.5 -178v-205h234v-86h-234v-721h-104v721h-123z" />
<glyph unicode="g" horiz-adv-x="837" d="M-12 -279q0 51 19.5 94.5t52 77t75.5 59t92 44.5q18 6 35 12q14 4 25.5 8t15.5 7l-178 57v84q51 20 94 39q35 14 67.5 26.5t39.5 14.5q-90 27 -155 100.5t-65 194.5q0 63 24 116.5t63.5 92t95 60t117.5 21.5q35 0 67.5 -5t61.5 -21h251v-92h-151q25 -25 47.5 -66 t22.5 -102q0 -63 -17.5 -113.5t-48.5 -89.5t-74 -66.5t-94 -46.5l-233 -88l335 -110q45 -16 87 -37t75 -49.5t52.5 -65.5t19.5 -84q0 -86 -43 -148.5t-109.5 -104.5t-148.5 -61.5t-162 -19.5q-61 0 -124.5 15.5t-115 47.5t-84 81t-32.5 118zM88 -270q0 -47 22.5 -82 t59.5 -59.5t84 -37t96 -12.5q66 0 129.5 17.5t112.5 48t79.5 75t30.5 97.5q0 39 -20 68.5t-51 51t-67 36t-66 24.5l-105 31l-104 -45q-86 -37 -143.5 -87.5t-57.5 -125.5zM213 537q2 -104 57.5 -165t135.5 -61t135 65t55 165q-2 92 -53 151.5t-140 59.5q-86 0 -138 -58.5 t-52 -156.5z" />
<glyph unicode="h" horiz-adv-x="892" d="M123 0v1315h102v-610q76 43 158 84.5t172 41.5q96 0 155.5 -71.5t59.5 -202.5v-557h-106v539q0 102 -38 150t-108 48q-31 0 -69.5 -13t-78.5 -32.5t-77 -41t-64 -36.5v-614h-106z" />
<glyph unicode="i" horiz-adv-x="411" d="M123 1151q0 33 23.5 57.5t58.5 24.5t59.5 -24.5t24.5 -57.5q0 -35 -24.5 -59.5t-59.5 -24.5t-58.5 24.5t-23.5 59.5zM154 0v807h104v-807h-104z" />
<glyph unicode="j" horiz-adv-x="409" d="M-127 -526l23 90q4 -4 30.5 -13.5t65.5 -9.5q72 0 116 48.5t44 140.5v1077h106v-1071q0 -70 -20.5 -123t-54 -90t-77 -55.5t-86.5 -18.5q-63 0 -97 8t-50 17zM123 1153q0 33 23.5 57.5t58.5 24.5t58.5 -24.5t23.5 -57.5q0 -35 -23.5 -59.5t-58.5 -24.5t-58.5 24.5 t-23.5 59.5z" />
<glyph unicode="k" horiz-adv-x="759" d="M123 0v1315h106v-1315h-106zM256 430v31l360 375l82 -60l-331 -330l360 -421l-84 -52z" />
<glyph unicode="l" horiz-adv-x="352" d="M123 0v1315h106v-1315h-106z" />
<glyph unicode="m" horiz-adv-x="1333" d="M123 0v807h102v-102q33 20 67 42.5t69.5 41t73.5 30.5t79 12q61 0 109.5 -35.5t70.5 -95.5q35 23 71 46.5t74 42t77.5 30.5t84.5 12q94 0 151.5 -74.5t57.5 -199.5v-557h-108v539q0 96 -34 146t-105 50q-29 0 -63 -12t-67.5 -30.5t-64.5 -39t-55 -35.5q4 -12 6 -31.5 t2 -39.5v-547h-109v539q0 96 -35.5 146t-105.5 50q-27 0 -59.5 -13t-65.5 -31.5t-63.5 -39t-53.5 -35.5v-616h-106z" />
<glyph unicode="n" horiz-adv-x="892" d="M123 0v807h102v-105q76 45 159 87t175 42q94 0 152.5 -71.5t58.5 -204.5v-555h-106v537q0 102 -38 150t-108 48q-31 0 -69.5 -13t-78.5 -32.5t-77 -41t-64 -36.5v-612h-106z" />
<glyph unicode="o" horiz-adv-x="878" d="M61 403q0 84 28 161t78 136.5t118.5 95t150.5 35.5t151.5 -35.5t121 -95t80 -135t28.5 -155.5q0 -84 -28.5 -161t-79 -136.5t-121 -94t-152.5 -34.5t-150.5 32.5t-118.5 90t-78 134t-28 162.5zM174 403q0 -70 19.5 -131t55.5 -106t85 -70.5t108 -25.5t107.5 27.5 t83.5 74.5t53.5 108.5t18.5 129.5q0 66 -20.5 126t-56.5 106t-85 73.5t-109 27.5q-59 0 -107 -27.5t-82 -73.5t-52.5 -108.5t-18.5 -130.5z" />
<glyph unicode="p" horiz-adv-x="858" d="M123 -510v1317h104v-72q59 33 129 63.5t144 30.5q66 0 121 -31.5t94 -83.5t60.5 -119.5t21.5 -139.5q0 -102 -29 -189.5t-81 -151t-125 -98t-161 -34.5q-39 0 -86 7t-88 17v-516h-104zM227 102q39 -14 85 -22t94 -8q61 0 112 29.5t88 79.5t57.5 114.5t20.5 136.5 q0 55 -12.5 110.5t-39 99.5t-67.5 70.5t-96 26.5q-25 0 -57.5 -10t-66.5 -24.5t-65.5 -31t-52.5 -26.5v-545z" />
<glyph unicode="q" d="M61 399q0 86 28 164t78 137.5t122.5 94t165.5 34.5q82 0 162.5 -27.5t134.5 -49.5v-1262h-103v592q-53 -41 -106.5 -67.5t-130.5 -26.5q-82 0 -146.5 30.5t-109.5 85t-70 130t-25 165.5zM170 408q0 -68 14.5 -128.5t45 -104.5t79.5 -70.5t121 -26.5q59 0 116.5 32.5 t98.5 65.5v516q-47 18 -95 34.5t-99 16.5q-68 0 -121.5 -26.5t-88 -72.5t-53 -107.5t-18.5 -128.5z" />
<glyph unicode="r" horiz-adv-x="559" d="M123 -2v809h106v-90q18 16 44 35.5t54.5 36t60.5 27.5t65 11q29 0 50 -5t25 -7l-16 -94q-8 2 -29.5 5t-44.5 3q-29 0 -57.5 -10t-55 -25.5t-51 -34t-45.5 -32.5v-629h-106z" />
<glyph unicode="s" horiz-adv-x="620" d="M49 51l43 86q35 -23 84 -44t119 -21q29 0 57.5 8t52 23.5t39 39t15.5 54.5q0 53 -28 87.5t-70 60.5t-91 48.5t-91 52t-69.5 72.5t-27.5 111q0 51 22.5 90t57.5 64.5t80 36.5t90 11q72 -2 119 -18t92 -39l-41 -82q-29 16 -72 34.5t-102 21.5q-53 0 -97.5 -29t-44.5 -80 q0 -47 29 -77t71 -54.5t91 -48t91 -56t70.5 -79.5t28.5 -119q0 -51 -21.5 -92t-58 -70t-87 -44t-107.5 -15q-82 0 -145.5 22.5t-98.5 44.5z" />
<glyph unicode="t" horiz-adv-x="632" d="M20 723v43l234 219v-178h281v-84h-281v-463q0 -186 149 -186q55 0 97.5 15t83.5 36l28 -78q-47 -27 -103 -46t-138 -19q-43 0 -83 16t-72 48t-50.5 78t-18.5 103v496h-127z" />
<glyph unicode="u" d="M123 252v555h106v-537q0 -115 38 -156.5t110 -41.5q29 0 65.5 13t73.5 31.5t71 40t58 38.5v612h107v-807h-103v102q-72 -45 -148.5 -86t-166.5 -41q-94 0 -152.5 72t-58.5 205z" />
<glyph unicode="v" horiz-adv-x="782" d="M0 797l102 39l293 -721l291 719l96 -33l-346 -801h-92z" />
<glyph unicode="w" horiz-adv-x="1191" d="M10 807l103 20l206 -727l218 707h108l207 -707l231 727l99 -26l-275 -801h-127l-194 664l-205 -664h-131z" />
<glyph unicode="x" horiz-adv-x="741" d="M20 25l297 389l-262 370l99 47l231 -342l248 340l88 -41l-279 -368l279 -395l-100 -43l-244 356l-266 -356z" />
<glyph unicode="y" horiz-adv-x="808" d="M0 -446q70 10 147.5 80.5t137.5 213.5l65 166l-350 785l111 32l299 -718l301 718l98 -32l-449 -1012q-70 -158 -158.5 -236.5t-178.5 -89.5z" />
<glyph unicode="z" horiz-adv-x="718" d="M31 0v66l495 649h-458v92h598v-68l-500 -649h512v-90h-647z" />
<glyph unicode="{" horiz-adv-x="446" d="M61 537v100q70 8 98.5 50t24.5 114l-16 297q-4 80 18.5 132t53 82.5t59.5 45l33 16.5l37 -76q-4 -2 -20.5 -11t-34 -29.5t-30 -53.5t-10.5 -82l17 -301q6 -100 -29 -154.5t-112 -78.5q154 -39 141 -232l-17 -301q-2 -49 13.5 -82.5t35 -55t39 -34t23.5 -14.5l-25 -74 q-6 4 -37.5 17.5t-67.5 45t-63.5 86t-23.5 140.5l16 293q4 68 -24.5 111.5t-98.5 48.5z" />
<glyph unicode="|" horiz-adv-x="352" d="M123 -555v2007h106v-2007h-106z" />
<glyph unicode="}" horiz-adv-x="446" d="M61 -131q4 2 23.5 14.5t39 34t35 55t13.5 82.5l-16 301q-12 193 141 232q-78 25 -112.5 79t-28.5 154l16 301q2 49 -10 82t-29.5 53.5t-34 29.5t-20.5 11l35 74q6 -4 34.5 -17.5t59.5 -44t53.5 -81.5t18.5 -131l-17 -297q-4 -72 24.5 -114t98.5 -50v-100 q-70 -4 -98.5 -48.5t-24.5 -111.5l17 -293q4 -86 -24 -140.5t-63.5 -86t-67.5 -45t-38 -17.5z" />
<glyph unicode="~" horiz-adv-x="999" d="M20 426q20 29 45 58.5t56 53t68.5 39t86.5 15.5q57 0 113.5 -21.5t112 -46t110 -46t111.5 -21.5q66 0 106.5 35.5t77.5 87.5l72 -58q-23 -31 -47.5 -59.5t-55 -51t-70.5 -36t-93 -13.5q-61 0 -117.5 20.5t-111 45.5t-107.5 45.5t-109 20.5q-57 0 -102 -42t-74 -90z" />
<glyph unicode="&#xa1;" horiz-adv-x="397" d="M113 721q0 45 30.5 76.5t77.5 31.5q45 0 77 -31.5t32 -76.5t-32 -77t-77 -32q-47 0 -77.5 32t-30.5 77zM156 29q0 47 5 116.5t13 135.5q8 78 21 159h55q10 -82 18 -159q8 -66 14.5 -135.5t6.5 -116.5v-391h-133v391z" />
<glyph unicode="&#xa2;" horiz-adv-x="745" d="M61 389q0 92 24 169t68 135.5t105 94t139 41.5l-2 179h94l-4 -181q55 -6 102.5 -22.5t84.5 -36.5l-41 -76q-43 23 -90 37t-107 14q-61 0 -110.5 -25.5t-83 -70.5t-52 -108.5t-18.5 -139.5q0 -66 18.5 -125t55.5 -104t90 -71.5t125 -26.5t115.5 15t95.5 44l39 -76 q-53 -31 -103.5 -49t-116.5 -22l3 -181h-93l2 183q-80 8 -143 42.5t-106 89t-67 124t-24 147.5z" />
<glyph unicode="&#xa3;" horiz-adv-x="798" d="M70 565v84h161q-4 49 -14 104.5t-10 108.5q0 84 24.5 147.5t67.5 106.5t102.5 64.5t128.5 21.5q59 0 111.5 -13t77.5 -28l-35 -84q-23 12 -63.5 24.5t-90.5 12.5q-100 0 -160.5 -65.5t-60.5 -180.5q0 -59 9.5 -112.5t17.5 -106.5h262v-84h-250q4 -51 7 -105t-5 -102 q-10 -66 -40.5 -142.5t-86.5 -123.5h535v-92h-680v76q37 20 68.5 55t56 80t39 95t14.5 104q0 39 -3 78.5t-7 76.5h-176z" />
<glyph unicode="&#xa4;" horiz-adv-x="915" d="M41 948l61 62l150 -150q43 33 95 51.5t112 18.5q59 0 111.5 -18.5t95.5 -51.5l147 148l61 -62l-149 -147q35 -43 53.5 -95.5t18.5 -111.5t-18.5 -111.5t-53.5 -95.5l147 -147l-61 -62l-147 148q-43 -33 -94.5 -51.5t-110.5 -18.5t-111.5 18.5t-95.5 51.5l-148 -148 l-61 62l147 147q-33 43 -51 95t-18 112q0 59 18.5 111.5t50.5 95.5zM207 592q0 -53 19.5 -98t54 -80t80 -54.5t98.5 -19.5q51 0 97 19.5t81 54.5t54.5 80t19.5 98q0 51 -19.5 97t-54.5 81t-81 54.5t-97 19.5q-53 0 -98.5 -19.5t-80 -54.5t-54 -81t-19.5 -97z" />
<glyph unicode="&#xa5;" horiz-adv-x="966" d="M41 352v88h383l-59 115h-324v88h278l-264 512l115 45l322 -668l331 668l103 -49l-275 -508h256v-88h-303l-63 -115h366v-88h-362v-352h-119v352h-385z" />
<glyph unicode="&#xa6;" horiz-adv-x="432" d="M160 262h112v-809h-112v809zM160 641v803h112v-803h-112z" />
<glyph unicode="&#xa7;" horiz-adv-x="860" d="M82 528q0 66 28.5 126.5t94.5 111.5q-80 68 -80 178q0 59 23.5 108.5t64.5 84t93 53t112 18.5q92 0 168 -20.5t123 -42.5q-6 -20 -15.5 -44t-19.5 -44q-53 23 -125 42t-137 19q-33 0 -66 -11t-59.5 -32.5t-43 -52.5t-16.5 -70q0 -57 41 -99t102.5 -78t132 -71.5 t132 -80.5t102.5 -105.5t41 -146.5q0 -74 -23.5 -134.5t-82.5 -109.5q35 -35 56.5 -82t21.5 -94q0 -127 -87.5 -201t-246.5 -74q-80 0 -164 17.5t-143 40.5l32 96q53 -25 133 -45.5t146 -20.5q104 0 165.5 43t61.5 121q0 68 -42 115t-104.5 85t-136 73t-136 79t-104.5 102 t-42 146zM182 547q0 -70 46 -123t113 -95t138.5 -77t122.5 -70q39 39 56.5 82t17.5 84q0 80 -41 133.5t-102.5 93t-131 71.5t-127.5 69q-53 -39 -72.5 -80t-19.5 -88z" />
<glyph unicode="&#xa8;" horiz-adv-x="618" d="M61 1159q0 33 22.5 56.5t57.5 23.5t57.5 -23.5t22.5 -56.5q0 -35 -22.5 -57.5t-57.5 -22.5t-57.5 22.5t-22.5 57.5zM397 1159q0 33 22.5 56.5t57.5 23.5q33 0 56.5 -23.5t23.5 -56.5q0 -35 -23.5 -57.5t-56.5 -22.5q-35 0 -57.5 22.5t-22.5 57.5z" />
<glyph unicode="&#xa9;" horiz-adv-x="1294" d="M57 590q0 121 46.5 228.5t127 187t188 127t230.5 47.5q121 0 227.5 -47.5t186.5 -127t126 -187t46 -228.5t-46 -228.5t-126 -187.5t-186.5 -127t-227.5 -47q-123 0 -230.5 47t-188 127t-127 187.5t-46.5 228.5zM166 590q0 -106 35 -196.5t98 -155t152.5 -101.5t197.5 -37 q106 0 195.5 37t153 101.5t98 155t34.5 196.5t-34.5 196.5t-98 155t-152.5 101t-196 36.5q-109 0 -198 -36.5t-152 -101t-98 -155t-35 -196.5zM334 567q0 74 19.5 142.5t57.5 122t92 85t126 31.5q63 0 122.5 -18.5t118.5 -48.5l-39 -78q-51 29 -102 40t-108 11 q-94 0 -136.5 -71.5t-42.5 -194.5q0 -53 16.5 -101.5t46.5 -87.5t70.5 -61.5t90.5 -22.5q35 0 59.5 5.5t46 14.5t42 22.5t46.5 29.5l45 -78q-63 -41 -123.5 -63.5t-130.5 -22.5q-68 0 -126 25.5t-100 72t-66.5 110t-24.5 136.5z" />
<glyph unicode="&#xaa;" horiz-adv-x="655" d="M121 950q0 74 59.5 116t143.5 46l116 4v60q0 61 -23.5 84.5t-66.5 23.5t-82 -11t-78 -28l-26 70q45 18 96 31.5t105 13.5q86 0 128 -51.5t42 -122.5v-379h-91v59q-43 -29 -87 -50t-97 -21q-55 0 -97 42t-42 113zM211 954q0 -45 22.5 -64.5t57.5 -19.5q16 0 37.5 7.5 t42 16.5t39 19.5t30.5 16.5v117l-102 -5q-18 0 -41 -5t-41 -15t-31.5 -26.5t-13.5 -41.5z" />
<glyph unicode="&#xab;" horiz-adv-x="645" d="M53 438l199 314l84 -43l-174 -271l176 -272l-86 -41zM305 438l199 314l84 -39l-174 -275l176 -274l-86 -39z" />
<glyph unicode="&#xac;" horiz-adv-x="940" d="M61 367v82h818v-291h-86v209h-732z" />
<glyph unicode="&#xad;" horiz-adv-x="512" d="M16 395v92h480v-92h-480z" />
<glyph unicode="&#xae;" horiz-adv-x="880" d="M20 1051q0 88 33 164.5t90.5 134t134 90.5t162.5 33q88 0 164 -33t133.5 -90.5t90 -134t32.5 -164.5q0 -86 -32.5 -163t-90 -134.5t-133.5 -91t-164 -33.5q-86 0 -162.5 33.5t-134 91t-90.5 134.5t-33 163zM100 1051q0 -72 26 -136.5t72 -111.5t108.5 -75t133.5 -28 q72 0 134.5 28t108.5 75t72.5 111.5t26.5 136.5q0 74 -26.5 137t-72.5 110.5t-108.5 75t-134.5 27.5t-134 -27.5t-108 -75t-72 -111t-26 -136.5zM315 821v479h117q82 0 122 -38.5t40 -92.5q0 -53 -28.5 -83.5t-57.5 -43.5l125 -206l-66 -27l-127 219h-55v-207h-70zM385 1085 h53q39 0 62.5 19.5t23.5 60.5q0 33 -21.5 56.5t-70.5 23.5h-47v-160z" />
<glyph unicode="&#xaf;" horiz-adv-x="542" d="M61 1120v76h420v-76h-420z" />
<glyph unicode="&#xb0;" horiz-adv-x="561" d="M20 934q0 57 20.5 105t55.5 83t83 54.5t102 19.5q115 0 187.5 -70.5t72.5 -183.5q0 -59 -21.5 -107.5t-58.5 -82t-85 -52t-100 -18.5q-55 0 -102 19.5t-81 53t-53.5 80t-19.5 99.5zM104 934q0 -78 49.5 -132t127.5 -54q74 0 127 54t53 138q0 37 -12.5 70.5t-35 60.5 t-56 43t-76.5 16q-41 0 -74 -16t-55.5 -44t-35 -62.5t-12.5 -73.5z" />
<glyph unicode="&#xb1;" horiz-adv-x="892" d="M61 -39v82h770v-82h-770zM78 485v84h323v322h91v-322h321v-84h-321v-323h-91v323h-323z" />
<glyph unicode="&#xb2;" horiz-adv-x="571" d="M70 481v64q-4 -4 11 14.5t42 48t59.5 67.5t64.5 75.5t59.5 70.5t41.5 53q25 35 41.5 68t16.5 53q0 49 -34 77t-89 28q-37 0 -74 -17.5t-72 -40.5l-53 74q39 33 97.5 55.5t119.5 22.5q43 0 81 -14.5t67.5 -41t46 -61.5t16.5 -78q0 -47 -20.5 -89t-51 -79.5t-65.5 -71.5 t-62 -65l-112 -127h303v-86h-434z" />
<glyph unicode="&#xb3;" horiz-adv-x="524" d="M61 530l39 76q23 -12 51.5 -25.5t69.5 -13.5q74 0 105.5 38t31.5 87q0 68 -46 101.5t-111 33.5h-51v80h49q23 0 47 6.5t43.5 19.5t33 34.5t13.5 50.5q0 41 -25.5 66.5t-79.5 25.5q-37 0 -60.5 -15.5t-45.5 -25.5l-37 74q29 18 70 33.5t92 15.5q92 0 141 -48t49 -114 q0 -98 -90 -158q47 -23 80 -65.5t33 -114.5q0 -43 -16.5 -80t-48 -65.5t-75.5 -45t-100 -16.5q-49 0 -90 13.5t-72 31.5z" />
<glyph unicode="&#xb4;" horiz-adv-x="448" d="M61 1008l242 288l84 -65l-268 -270z" />
<glyph unicode="&#xb5;" horiz-adv-x="878" d="M123 -549v1356h104v-569q0 -98 44 -132t122 -34q27 0 63 13t71.5 33.5t68.5 41t55 37.5v610h105v-807h-101v106q-39 -25 -72.5 -47t-68.5 -40.5t-74 -28.5t-88 -10q-14 0 -32.5 3t-37 9t-34 14t-21.5 19v-574h-104z" />
<glyph unicode="&#xb6;" horiz-adv-x="952" d="M41 897q0 111 32.5 189.5t92 130t144.5 75t188 23.5h290v-1802h-114v1722h-162v-741h-14q-111 0 -196 18t-143.5 64.5t-88 124t-29.5 196.5zM152 899q0 -164 73.5 -240.5t188.5 -78.5v647q-61 0 -109.5 -24.5t-82.5 -68.5t-52 -104.5t-18 -130.5z" />
<glyph unicode="&#xb7;" horiz-adv-x="413" d="M102 471q0 41 31 71.5t74 30.5t73.5 -30.5t30.5 -71.5q0 -43 -30.5 -73.5t-73.5 -30.5t-74 30.5t-31 73.5z" />
<glyph unicode="&#xb8;" horiz-adv-x="442" d="M61 -315q16 -10 58.5 -19.5t70.5 -9.5q35 0 71 18.5t36 71.5q0 47 -47 74.5t-103 40.5l56 143h71l-34 -106q23 -4 47 -16.5t45.5 -33t35 -48t13.5 -60.5q0 -66 -57.5 -102.5t-135.5 -36.5q-35 0 -69.5 11t-57.5 21v52z" />
<glyph unicode="&#xb9;" horiz-adv-x="458" d="M61 1096v84h224v-613h112v-84h-325v84h114v529h-125z" />
<glyph unicode="&#xba;" horiz-adv-x="655" d="M59 1085q0 57 20.5 110.5t55.5 94.5t84 65.5t107 24.5q57 0 107 -24.5t86 -65.5t56.5 -93t20.5 -107q0 -59 -20.5 -112.5t-56.5 -93.5t-86 -64.5t-107 -24.5q-59 0 -107.5 22.5t-84.5 62.5t-55.5 92t-19.5 113zM162 1085q0 -90 47 -152.5t121 -62.5q78 0 121 66t43 154 q0 43 -12.5 80.5t-36 67.5t-55.5 47.5t-68 17.5q-76 0 -118 -64.5t-42 -153.5z" />
<glyph unicode="&#xbb;" horiz-adv-x="645" d="M53 164l178 274l-176 275l86 39l199 -314l-199 -313zM305 166l178 272l-176 271l86 43l197 -314l-197 -313z" />
<glyph unicode="&#xbc;" horiz-adv-x="1402" d="M61 1096v84h224v-613h112v-84h-325v84h114v529h-125zM324 -268l583 1716h94l-581 -1716h-96zM815 182v58l336 454h98v-422h92v-90h-92v-182h-102v182h-332zM956 272h191v273z" />
<glyph unicode="&#xbd;" horiz-adv-x="1400" d="M61 1096v84h224v-613h112v-84h-325v84h114v529h-125zM324 -268l583 1716h94l-581 -1716h-96zM897 0v63q-4 -4 11.5 13.5t42 47.5t59 67.5t64.5 75.5t59.5 72t42.5 54q25 35 41 67t16 54q0 49 -34 76.5t-89 27.5q-37 0 -74 -17t-71 -40l-54 74q39 33 97.5 54.5t119.5 21.5 q43 0 81 -14.5t68 -40t46 -60.5t16 -78q0 -47 -20.5 -89t-51 -80t-65.5 -71.5t-61 -64.5l-113 -127h303v-86h-434z" />
<glyph unicode="&#xbe;" horiz-adv-x="1402" d="M61 530l39 76q23 -12 51.5 -25.5t69.5 -13.5q74 0 105.5 38t31.5 87q0 68 -46 101.5t-111 33.5h-51v80h49q23 0 47 6.5t43.5 19.5t33 34.5t13.5 50.5q0 41 -25.5 66.5t-79.5 25.5q-37 0 -60.5 -15.5t-45.5 -25.5l-37 74q29 18 70 33.5t92 15.5q92 0 141 -48t49 -114 q0 -98 -90 -158q47 -23 80 -65.5t33 -114.5q0 -43 -16.5 -80t-48 -65.5t-75.5 -45t-100 -16.5q-49 0 -90 13.5t-72 31.5zM324 -268l583 1716h94l-581 -1716h-96zM815 182v58l336 454h98v-422h92v-90h-92v-182h-102v182h-332zM956 272h191v273z" />
<glyph unicode="&#xbf;" horiz-adv-x="624" d="M20 -109q0 66 21.5 116t54.5 91t70 77t69.5 74t54 82t21.5 101h95q0 -68 -19.5 -120t-49.5 -95t-64.5 -79t-64.5 -72.5t-49.5 -76.5t-19.5 -89q0 -84 58.5 -139.5t160.5 -55.5q63 0 113.5 24.5t87.5 49.5l47 -74q-47 -35 -112.5 -64.5t-153.5 -29.5q-66 0 -124 19.5 t-101 55t-69 88t-26 117.5zM256 719q0 47 30.5 77.5t78.5 30.5q45 0 76.5 -30.5t31.5 -77.5q0 -45 -31.5 -76t-76.5 -31q-47 0 -78 31t-31 76z" />
<glyph unicode="&#xc0;" horiz-adv-x="964" d="M20 6l416 1174h113l395 -1172l-108 -24l-136 407h-434l-139 -407zM264 1446l70 84l295 -242l-47 -55zM295 483h377l-185 566z" />
<glyph unicode="&#xc1;" horiz-adv-x="964" d="M20 6l416 1174h113l395 -1172l-108 -24l-136 407h-434l-139 -407zM295 483h377l-185 566zM403 1288l293 232l66 -86l-311 -201z" />
<glyph unicode="&#xc2;" horiz-adv-x="964" d="M20 6l416 1174h113l395 -1172l-108 -24l-136 407h-434l-139 -407zM213 1321l272 158l277 -158l-47 -80l-230 135l-227 -137zM295 483h377l-185 566z" />
<glyph unicode="&#xc3;" horiz-adv-x="964" d="M20 6l416 1174h113l395 -1172l-108 -24l-136 407h-434l-139 -407zM217 1311q8 74 57.5 113.5t106.5 39.5q35 0 64.5 -11t57 -24.5t53.5 -24.5t54 -11q29 0 58.5 16t40.5 51l65 -18q-6 -57 -48 -99.5t-103 -42.5q-35 0 -67 12.5t-60.5 28t-56 27.5t-54.5 12 q-37 0 -66.5 -25.5t-42.5 -64.5zM295 483h377l-185 566z" />
<glyph unicode="&#xc4;" horiz-adv-x="964" d="M20 6l416 1174h113l395 -1172l-108 -24l-136 407h-434l-139 -407zM246 1364q0 33 23.5 56.5t56.5 23.5q35 0 57.5 -23.5t22.5 -56.5q0 -35 -23 -57.5t-57 -22.5q-33 0 -56.5 22.5t-23.5 57.5zM295 483h377l-185 566zM582 1364q0 33 22.5 56.5t57.5 23.5t57 -23.5 t22 -56.5q0 -35 -22.5 -57.5t-56.5 -22.5q-35 0 -57.5 22.5t-22.5 57.5z" />
<glyph unicode="&#xc5;" horiz-adv-x="964" d="M20 6l402 1127q-55 18 -87 62t-32 99q0 47 16.5 81t43 56.5t61.5 33t70 10.5q86 0 136 -52.5t50 -128.5q0 -53 -31 -97t-82 -62l377 -1127l-108 -24l-136 407h-434l-139 -407zM295 483h377l-185 566zM383 1294q0 -43 28.5 -80.5t80.5 -37.5q53 0 83.5 36.5t30.5 83.5 q0 20 -6 42t-19.5 39.5t-36 28.5t-52.5 11q-53 0 -81 -38t-28 -85z" />
<glyph unicode="&#xc6;" horiz-adv-x="1404" d="M0 2q47 80 101.5 174t111.5 192.5t114.5 197t110.5 188.5q125 213 250 428h606v-95h-497v-434h420v-90h-420v-471h546v-92h-655v418h-332l-252 -436zM406 508h282v487z" />
<glyph unicode="&#xc7;" horiz-adv-x="905" d="M82 600q0 141 38 253t107.5 190.5t170 120.5t223.5 42q59 0 120.5 -16t96.5 -35l-35 -88q-37 16 -86 28.5t-101 12.5q-80 0 -154.5 -27.5t-133 -89t-93 -157t-34.5 -230.5q0 -147 27.5 -247.5t77.5 -162t120 -88t156 -26.5q90 0 147 15.5t113 37.5l30 -92 q-39 -18 -117.5 -41t-168.5 -23l-29 -86q51 -10 97 -48t46 -103q0 -66 -57 -102.5t-135 -36.5q-35 0 -70 11t-57 21v52q16 -10 57 -19.5t72 -9.5q35 0 70.5 18.5t35.5 71.5q0 25 -13 43t-34.5 31.5t-48 24t-53.5 16.5l47 119q-98 8 -177 48t-136.5 115.5t-88 188 t-30.5 268.5z" />
<glyph unicode="&#xc8;" horiz-adv-x="890" d="M164 0v1180h614v-93h-499v-434h423v-90h-423v-471h550v-92h-665zM244 1434l67 86l291 -232l-45 -55z" />
<glyph unicode="&#xc9;" horiz-adv-x="890" d="M164 0v1180h614v-93h-499v-434h423v-90h-423v-471h550v-92h-665zM356 1288l291 232l68 -86l-314 -201z" />
<glyph unicode="&#xca;" horiz-adv-x="890" d="M164 0v1180h614v-93h-499v-434h423v-90h-423v-471h550v-92h-665zM190 1321l273 158l276 -158l-45 -80l-231 135l-225 -137z" />
<glyph unicode="&#xcb;" horiz-adv-x="890" d="M164 0v1180h614v-93h-499v-434h423v-90h-423v-471h550v-92h-665zM227 1364q0 33 22.5 56.5t57.5 23.5q33 0 56.5 -23.5t23.5 -56.5q0 -35 -23.5 -57.5t-56.5 -22.5q-35 0 -57.5 22.5t-22.5 57.5zM561 1364q0 33 23.5 56.5t56.5 23.5q35 0 57.5 -23.5t22.5 -56.5 q0 -35 -22.5 -57.5t-57.5 -22.5q-33 0 -56.5 22.5t-23.5 57.5z" />
<glyph unicode="&#xcc;" horiz-adv-x="442" d="M-39 1434l66 86l292 -232l-47 -55zM166 0v1180h115v-1180h-115z" />
<glyph unicode="&#xcd;" horiz-adv-x="442" d="M133 1288l293 232l66 -86l-312 -201zM164 0v1180h115v-1180h-115z" />
<glyph unicode="&#xce;" horiz-adv-x="442" d="M-55 1321l272 158l277 -158l-45 -80l-232 135l-225 -137zM162 0v1180h114v-1180h-114z" />
<glyph unicode="&#xcf;" horiz-adv-x="442" d="M-29 1364q0 33 22.5 56.5t57.5 23.5t57.5 -23.5t22.5 -56.5q0 -35 -22.5 -57.5t-57.5 -22.5t-57.5 22.5t-22.5 57.5zM164 0v1180h115v-1180h-115zM307 1364q0 33 22.5 56.5t57.5 23.5q33 0 56.5 -23.5t23.5 -56.5q0 -35 -23.5 -57.5t-56.5 -22.5q-35 0 -57.5 22.5 t-22.5 57.5z" />
<glyph unicode="&#xd0;" horiz-adv-x="1050" d="M25 555v98h135v527h327q127 0 218.5 -46.5t148.5 -124t84 -184t27 -225.5q0 -297 -131.5 -448.5t-352.5 -151.5h-321v555h-135zM272 92h195q180 0 275.5 121t95.5 389q0 90 -18.5 178t-61.5 157t-111.5 111t-169.5 42h-205v-437h297v-98h-297v-463z" />
<glyph unicode="&#xd1;" horiz-adv-x="1179" d="M164 0v1180h135l612 -981v981h105v-1180h-115l-633 1016l2 -1016h-106zM315 1311q8 74 57.5 113.5t106.5 39.5q35 0 64.5 -11t56.5 -24.5t53.5 -24.5t55.5 -11t58.5 16t39.5 51l63 -18q-6 -57 -48 -99.5t-101 -42.5q-35 0 -66.5 12.5t-61.5 28t-56.5 27.5t-53.5 12 q-39 0 -68.5 -25.5t-39.5 -64.5z" />
<glyph unicode="&#xd2;" horiz-adv-x="1083" d="M82 590q0 139 35 253.5t96 195.5t145 126t183 45q117 0 203.5 -50t143 -134t85 -197.5t28.5 -238.5q0 -139 -35.5 -252t-98 -192.5t-146.5 -124t-180 -44.5q-117 0 -203 49.5t-143.5 132.5t-85 194.5t-27.5 236.5zM203 616q0 -90 15 -186t55 -175t105.5 -130t168.5 -51 q90 0 153.5 44t103.5 114.5t57.5 158.5t17.5 176t-15.5 184.5t-54.5 176.5t-106.5 132t-170.5 52q-90 0 -152.5 -45t-101 -115.5t-57 -158.5t-18.5 -177zM311 1434l68 86l291 -232l-45 -55z" />
<glyph unicode="&#xd3;" horiz-adv-x="1083" d="M82 590q0 139 35 253.5t96 195.5t145 126t183 45q117 0 203.5 -50t143 -134t85 -197.5t28.5 -238.5q0 -139 -35.5 -252t-98 -192.5t-146.5 -124t-180 -44.5q-117 0 -203 49.5t-143.5 132.5t-85 194.5t-27.5 236.5zM203 616q0 -90 15 -186t55 -175t105.5 -130t168.5 -51 q90 0 153.5 44t103.5 114.5t57.5 158.5t17.5 176t-15.5 184.5t-54.5 176.5t-106.5 132t-170.5 52q-90 0 -152.5 -45t-101 -115.5t-57 -158.5t-18.5 -177zM401 1288l291 232l68 -86l-314 -201z" />
<glyph unicode="&#xd4;" horiz-adv-x="1083" d="M82 590q0 139 35 253.5t96 195.5t145 126t183 45q117 0 203.5 -50t143 -134t85 -197.5t28.5 -238.5q0 -139 -35.5 -252t-98 -192.5t-146.5 -124t-180 -44.5q-117 0 -203 49.5t-143.5 132.5t-85 194.5t-27.5 236.5zM203 616q0 -90 15 -186t55 -175t105.5 -130t168.5 -51 q90 0 153.5 44t103.5 114.5t57.5 158.5t17.5 176t-15.5 184.5t-54.5 176.5t-106.5 132t-170.5 52q-90 0 -152.5 -45t-101 -115.5t-57 -158.5t-18.5 -177zM266 1321l273 158l276 -158l-45 -80l-231 135l-226 -137z" />
<glyph unicode="&#xd5;" horiz-adv-x="1083" d="M82 590q0 139 35 253.5t96 195.5t145 126t183 45q117 0 203.5 -50t143 -134t85 -197.5t28.5 -238.5q0 -139 -35.5 -252t-98 -192.5t-146.5 -124t-180 -44.5q-117 0 -203 49.5t-143.5 132.5t-85 194.5t-27.5 236.5zM203 616q0 -90 15 -186t55 -175t105.5 -130t168.5 -51 q90 0 153.5 44t103.5 114.5t57.5 158.5t17.5 176t-15.5 184.5t-54.5 176.5t-106.5 132t-170.5 52q-90 0 -152.5 -45t-101 -115.5t-57 -158.5t-18.5 -177zM268 1311q8 74 57.5 113.5t106.5 39.5q35 0 64.5 -11t56.5 -24.5t53.5 -24.5t55.5 -11t58.5 16t39.5 51l63 -18 q-6 -57 -48 -99.5t-101 -42.5q-35 0 -67 12.5t-60.5 28t-56 27.5t-54.5 12q-39 0 -68.5 -25.5t-39.5 -64.5z" />
<glyph unicode="&#xd6;" horiz-adv-x="1083" d="M82 590q0 139 35 253.5t96 195.5t145 126t183 45q117 0 203.5 -50t143 -134t85 -197.5t28.5 -238.5q0 -139 -35.5 -252t-98 -192.5t-146.5 -124t-180 -44.5q-117 0 -203 49.5t-143.5 132.5t-85 194.5t-27.5 236.5zM203 616q0 -90 15 -186t55 -175t105.5 -130t168.5 -51 q90 0 153.5 44t103.5 114.5t57.5 158.5t17.5 176t-15.5 184.5t-54.5 176.5t-106.5 132t-170.5 52q-90 0 -152.5 -45t-101 -115.5t-57 -158.5t-18.5 -177zM281 1364q0 33 22.5 56.5t56.5 23.5q33 0 56.5 -23.5t23.5 -56.5q0 -35 -23.5 -57.5t-56.5 -22.5q-35 0 -57 22.5 t-22 57.5zM614 1364q0 33 24 56.5t56 23.5q35 0 57.5 -23.5t22.5 -56.5q0 -35 -22.5 -57.5t-57.5 -22.5q-33 0 -56.5 22.5t-23.5 57.5z" />
<glyph unicode="&#xd7;" horiz-adv-x="1036" d="M168 117l289 286l-287 287l66 64l286 -285l287 287l59 -60l-286 -288l284 -285l-65 -64l-285 285l-287 -289z" />
<glyph unicode="&#xd8;" horiz-adv-x="1083" d="M59 -4l127 178q-53 82 -77.5 188.5t-24.5 227.5q0 139 35 253.5t96 195.5t145 126t181 45q94 0 167.5 -32.5t129.5 -90.5l108 152l66 -47l-121 -170q57 -86 83.5 -196.5t26.5 -235.5q0 -139 -35.5 -252t-97 -192.5t-145.5 -124t-182 -44.5q-96 0 -170 33t-129 92 l-111 -153zM205 616q0 -86 13 -172t46 -159l508 710q-41 53 -100.5 85t-139.5 32q-90 0 -151.5 -45t-101 -115.5t-57 -158.5t-17.5 -177zM307 197q41 -55 100.5 -89t141.5 -34q90 0 153.5 44t102.5 114.5t56.5 158.5t17.5 176q0 86 -14.5 177.5t-49.5 168.5z" />
<glyph unicode="&#xd9;" horiz-adv-x="1103" d="M143 381v799h115v-805q0 -63 20.5 -118.5t59.5 -96.5t93 -64.5t122 -23.5q63 0 117.5 22.5t93.5 62.5t61.5 96t22.5 124v803h113v-799q0 -96 -35 -171t-91.5 -126t-130 -77.5t-151.5 -26.5q-90 0 -165 27.5t-129 79.5t-85 127t-31 167zM311 1434l68 86l291 -232l-47 -55z " />
<glyph unicode="&#xda;" horiz-adv-x="1103" d="M143 381v799h115v-805q0 -63 20.5 -118.5t59.5 -96.5t93 -64.5t122 -23.5q63 0 117.5 22.5t93.5 62.5t61.5 96t22.5 124v803h113v-799q0 -96 -35 -171t-91.5 -126t-130 -77.5t-151.5 -26.5q-90 0 -165 27.5t-129 79.5t-85 127t-31 167zM430 1288l293 232l65 -86 l-311 -201z" />
<glyph unicode="&#xdb;" horiz-adv-x="1103" d="M143 381v799h115v-805q0 -63 20.5 -118.5t59.5 -96.5t93 -64.5t122 -23.5q63 0 117.5 22.5t93.5 62.5t61.5 96t22.5 124v803h113v-799q0 -96 -35 -171t-91.5 -126t-130 -77.5t-151.5 -26.5q-90 0 -165 27.5t-129 79.5t-85 127t-31 167zM276 1321l273 158l276 -158 l-45 -80l-231 135l-225 -137z" />
<glyph unicode="&#xdc;" horiz-adv-x="1103" d="M143 381v799h115v-805q0 -63 20.5 -118.5t59.5 -96.5t93 -64.5t122 -23.5q63 0 117.5 22.5t93.5 62.5t61.5 96t22.5 124v803h113v-799q0 -96 -35 -171t-91.5 -126t-130 -77.5t-151.5 -26.5q-90 0 -165 27.5t-129 79.5t-85 127t-31 167zM299 1364q0 33 23.5 56.5 t56.5 23.5q35 0 57.5 -23.5t22.5 -56.5q0 -35 -22.5 -57.5t-57.5 -22.5q-33 0 -56.5 22.5t-23.5 57.5zM635 1364q0 33 22.5 56.5t57.5 23.5t57.5 -23.5t22.5 -56.5q0 -35 -22.5 -57.5t-57.5 -22.5t-57.5 22.5t-22.5 57.5z" />
<glyph unicode="&#xdd;" horiz-adv-x="964" d="M20 1165l117 33l346 -635l357 637l104 -37l-409 -702v-461h-115v459zM387 1288l291 232l67 -86l-311 -201z" />
<glyph unicode="&#xde;" horiz-adv-x="843" d="M164 0v1182h117v-264h149q184 0 278.5 -78t94.5 -232q0 -86 -26.5 -153.5t-77 -115.5t-121 -72.5t-156.5 -22.5l-141 4v-248h-117zM281 338h129q129 0 197.5 62.5t68.5 193.5q0 129 -63.5 182t-180.5 53h-151v-491z" />
<glyph unicode="&#xdf;" horiz-adv-x="897" d="M123 0v993q0 164 83 254t218 90q57 0 111.5 -18.5t97.5 -54t69.5 -91t26.5 -129.5q0 -92 -40 -147t-88 -95t-88 -77t-40 -92q0 -47 27.5 -81t68.5 -61.5t89.5 -53t89 -57.5t68.5 -73t28 -100q0 -104 -71 -163.5t-181 -59.5q-68 0 -134.5 19.5t-113.5 43.5l41 84 q39 -25 99.5 -43t107.5 -18q27 0 53.5 8t48 23.5t35.5 38t14 50.5q0 47 -27.5 81t-68.5 60.5t-90 52.5t-90 57.5t-68.5 74.5t-27.5 105q0 53 18.5 91t45 67.5t59 55t59.5 55.5t45 66.5t18 90.5q0 104 -57 154t-131 50q-84 0 -141.5 -56t-57.5 -196v-999h-106z" />
<glyph unicode="&#xe0;" horiz-adv-x="774" d="M61 205q0 57 25 102t64.5 75t93 46t110.5 18l201 9v118q0 96 -42 131t-105 35q-70 0 -132.5 -18.5t-117.5 -40.5l-31 82q61 25 138 46t159 21q111 0 174.5 -66.5t63.5 -178.5v-584h-103v94q-66 -39 -135.5 -74.5t-161.5 -35.5q-82 0 -141.5 59t-59.5 162zM166 209 q0 -68 36 -102.5t95 -34.5q35 0 72 11t70.5 26.5t63 33t52.5 29.5v201l-186 -8q-37 -2 -73 -11.5t-65.5 -28t-47 -48t-17.5 -68.5zM195 1231l84 65l239 -288l-55 -47z" />
<glyph unicode="&#xe1;" horiz-adv-x="774" d="M61 205q0 57 25 102t64.5 75t93 46t110.5 18l201 9v118q0 96 -42 131t-105 35q-70 0 -132.5 -18.5t-117.5 -40.5l-31 82q61 25 138 46t159 21q111 0 174.5 -66.5t63.5 -178.5v-584h-103v94q-66 -39 -135.5 -74.5t-161.5 -35.5q-82 0 -141.5 59t-59.5 162zM166 209 q0 -68 36 -102.5t95 -34.5q35 0 72 11t70.5 26.5t63 33t52.5 29.5v201l-186 -8q-37 -2 -73 -11.5t-65.5 -28t-47 -48t-17.5 -68.5zM317 1008l240 288l84 -65l-268 -270z" />
<glyph unicode="&#xe2;" horiz-adv-x="774" d="M61 205q0 57 25 102t64.5 75t93 46t110.5 18l201 9v118q0 96 -42 131t-105 35q-70 0 -132.5 -18.5t-117.5 -40.5l-31 82q61 25 138 46t159 21q111 0 174.5 -66.5t63.5 -178.5v-584h-103v94q-66 -39 -135.5 -74.5t-161.5 -35.5q-82 0 -141.5 59t-59.5 162zM80 1044 l305 216l301 -216l-57 -73l-246 186l-248 -186zM166 209q0 -68 36 -102.5t95 -34.5q35 0 72 11t70.5 26.5t63 33t52.5 29.5v201l-186 -8q-37 -2 -73 -11.5t-65.5 -28t-47 -48t-17.5 -68.5z" />
<glyph unicode="&#xe3;" horiz-adv-x="774" d="M61 205q0 57 25 102t64.5 75t93 46t110.5 18l201 9v118q0 96 -42 131t-105 35q-70 0 -132.5 -18.5t-117.5 -40.5l-31 82q61 25 138 46t159 21q111 0 174.5 -66.5t63.5 -178.5v-584h-103v94q-66 -39 -135.5 -74.5t-161.5 -35.5q-82 0 -141.5 59t-59.5 162zM106 1079 q8 74 57.5 114t106.5 40q35 0 65 -11.5t57.5 -24.5t53 -24.5t54.5 -11.5t58.5 16.5t39.5 51.5l64 -19q-6 -57 -48.5 -99t-101.5 -42q-35 0 -66.5 12.5t-60.5 27.5t-56.5 27.5t-54.5 12.5q-39 0 -68.5 -25.5t-39.5 -64.5zM166 209q0 -68 36 -102.5t95 -34.5q35 0 72 11 t70.5 26.5t63 33t52.5 29.5v201l-186 -8q-37 -2 -73 -11.5t-65.5 -28t-47 -48t-17.5 -68.5z" />
<glyph unicode="&#xe4;" horiz-adv-x="774" d="M61 205q0 57 25 102t64.5 75t93 46t110.5 18l201 9v118q0 96 -42 131t-105 35q-70 0 -132.5 -18.5t-117.5 -40.5l-31 82q61 25 138 46t159 21q111 0 174.5 -66.5t63.5 -178.5v-584h-103v94q-66 -39 -135.5 -74.5t-161.5 -35.5q-82 0 -141.5 59t-59.5 162zM147 1159 q0 33 23 56.5t57 23.5q33 0 56.5 -23.5t23.5 -56.5q0 -35 -23.5 -57.5t-56.5 -22.5q-35 0 -57.5 22.5t-22.5 57.5zM166 209q0 -68 36 -102.5t95 -34.5q35 0 72 11t70.5 26.5t63 33t52.5 29.5v201l-186 -8q-37 -2 -73 -11.5t-65.5 -28t-47 -48t-17.5 -68.5zM481 1159 q0 33 23.5 56.5t56.5 23.5q35 0 57.5 -23.5t22.5 -56.5q0 -35 -22.5 -57.5t-57.5 -22.5q-33 0 -56.5 22.5t-23.5 57.5z" />
<glyph unicode="&#xe5;" horiz-adv-x="774" d="M61 205q0 57 25 102t64.5 75t93 46t110.5 18l201 9v118q0 96 -42 131t-105 35q-70 0 -132.5 -18.5t-117.5 -40.5l-31 82q61 25 138 46t159 21q111 0 174.5 -66.5t63.5 -178.5v-584h-103v94q-66 -39 -135.5 -74.5t-161.5 -35.5q-82 0 -141.5 59t-59.5 162zM166 209 q0 -68 36 -102.5t95 -34.5q35 0 72 11t70.5 26.5t63 33t52.5 29.5v201l-186 -8q-37 -2 -73 -11.5t-65.5 -28t-47 -48t-17.5 -68.5zM209 1145q0 47 17.5 81t44 56.5t60.5 32.5t68 10q84 0 135.5 -52t51.5 -128q0 -72 -53.5 -123t-133.5 -51q-86 0 -138 51t-52 123zM289 1145 q0 -43 28.5 -81t79.5 -38q53 0 84 37t31 84q0 41 -26.5 81t-88.5 40q-53 0 -80.5 -38t-27.5 -85z" />
<glyph unicode="&#xe6;" horiz-adv-x="1241" d="M61 207q0 55 22.5 98t60.5 74t89.5 47t108.5 20q8 0 37 2.5t62.5 3.5t62 3t35.5 2v118q0 96 -41 131t-107 35q-63 0 -121.5 -17t-113.5 -42l-33 82q66 27 137.5 47t147.5 20t132 -38.5t74 -110.5q37 68 97.5 107.5t146.5 39.5q78 0 133.5 -29.5t93 -78.5t61 -114.5 t36.5 -135.5l-47 -53l-490 -41l-2 -2q-4 -63 14.5 -118.5t53 -95.5t83 -62.5t107.5 -22.5q88 0 143.5 26.5t102.5 57.5l43 -78q-51 -35 -120 -66.5t-181 -31.5q-106 0 -181 59t-116 145q-23 -45 -50.5 -81.5t-65.5 -63.5t-90 -42t-126 -15q-39 0 -74.5 15t-63.5 45t-44.5 71 t-16.5 90zM164 213q0 -66 37 -102.5t90 -36.5q113 0 179.5 72.5t68.5 195.5v33l-170 -8q-37 -2 -74 -11.5t-65.5 -28t-47 -47t-18.5 -67.5zM645 461l416 37q-8 45 -22.5 90t-37 79.5t-57.5 57.5t-84 23t-89 -23t-67.5 -62.5t-43 -92t-15.5 -109.5z" />
<glyph unicode="&#xe7;" horiz-adv-x="745" d="M61 389q0 96 27 178t76 140.5t117.5 91t154.5 32.5q70 0 130.5 -19t105.5 -44l-41 -76q-43 23 -90 37t-107 14q-61 0 -110.5 -25.5t-83 -70.5t-52 -108.5t-18.5 -139.5q0 -66 18.5 -125t55.5 -104t90 -71.5t125 -26.5t115.5 15t95.5 44l39 -76q-59 -35 -118 -53t-140 -20 l-27 -91q51 -10 97 -48t46 -103q0 -66 -57 -102.5t-135 -36.5q-35 0 -70 11t-57 21v52q16 -10 58 -19.5t71 -9.5q35 0 70.5 18.5t35.5 71.5q0 47 -47 74.5t-102 40.5l49 127q-76 10 -135.5 47t-101.5 90t-63.5 121.5t-21.5 142.5z" />
<glyph unicode="&#xe8;" horiz-adv-x="794" d="M61 389q0 92 21.5 172t64.5 139.5t105.5 94t144.5 34.5q76 0 131.5 -25.5t95.5 -69.5t64.5 -104.5t40.5 -127.5l-47 -62l-506 -92q14 -119 81 -196.5t183 -77.5q92 0 155.5 28.5t104.5 57.5l43 -78q-45 -31 -120.5 -64.5t-192.5 -33.5q-84 0 -151.5 32.5t-115.5 89 t-75 130t-27 153.5zM170 428l438 92q-10 43 -25.5 84t-39 73t-59 51.5t-85.5 19.5q-53 0 -96 -25t-72.5 -68t-45 -101t-15.5 -126zM205 1231l84 65l241 -288l-57 -47z" />
<glyph unicode="&#xe9;" horiz-adv-x="794" d="M61 389q0 92 21.5 172t64.5 139.5t105.5 94t144.5 34.5q76 0 131.5 -25.5t95.5 -69.5t64.5 -104.5t40.5 -127.5l-47 -62l-506 -92q14 -119 81 -196.5t183 -77.5q92 0 155.5 28.5t104.5 57.5l43 -78q-45 -31 -120.5 -64.5t-192.5 -33.5q-84 0 -151.5 32.5t-115.5 89 t-75 130t-27 153.5zM170 428l438 92q-10 43 -25.5 84t-39 73t-59 51.5t-85.5 19.5q-53 0 -96 -25t-72.5 -68t-45 -101t-15.5 -126zM295 1008l240 288l86 -65l-269 -270z" />
<glyph unicode="&#xea;" horiz-adv-x="794" d="M61 389q0 92 21.5 172t64.5 139.5t105.5 94t144.5 34.5q76 0 131.5 -25.5t95.5 -69.5t64.5 -104.5t40.5 -127.5l-47 -62l-506 -92q14 -119 81 -196.5t183 -77.5q92 0 155.5 28.5t104.5 57.5l43 -78q-45 -31 -120.5 -64.5t-192.5 -33.5q-84 0 -151.5 32.5t-115.5 89 t-75 130t-27 153.5zM76 1044l303 216l303 -216l-59 -73l-246 186l-248 -186zM170 428l438 92q-10 43 -25.5 84t-39 73t-59 51.5t-85.5 19.5q-53 0 -96 -25t-72.5 -68t-45 -101t-15.5 -126z" />
<glyph unicode="&#xeb;" horiz-adv-x="794" d="M61 389q0 92 21.5 172t64.5 139.5t105.5 94t144.5 34.5q76 0 131.5 -25.5t95.5 -69.5t64.5 -104.5t40.5 -127.5l-47 -62l-506 -92q14 -119 81 -196.5t183 -77.5q92 0 155.5 28.5t104.5 57.5l43 -78q-45 -31 -120.5 -64.5t-192.5 -33.5q-84 0 -151.5 32.5t-115.5 89 t-75 130t-27 153.5zM160 1159q0 33 22.5 56.5t57.5 23.5t57 -23.5t22 -56.5q0 -35 -22.5 -57.5t-56.5 -22.5q-35 0 -57.5 22.5t-22.5 57.5zM170 428l438 92q-10 43 -25.5 84t-39 73t-59 51.5t-85.5 19.5q-53 0 -96 -25t-72.5 -68t-45 -101t-15.5 -126zM496 1159 q0 33 22.5 56.5t56.5 23.5q33 0 56.5 -23.5t23.5 -56.5q0 -35 -23.5 -57.5t-56.5 -22.5q-35 0 -57 22.5t-22 57.5z" />
<glyph unicode="&#xec;" horiz-adv-x="411" d="M-4 1231l84 65l242 -288l-58 -47zM158 0v807h104v-807h-104z" />
<glyph unicode="&#xed;" horiz-adv-x="411" d="M127 1008l240 288l84 -65l-269 -270zM154 0v807h104v-807h-104z" />
<glyph unicode="&#xee;" horiz-adv-x="411" d="M-88 1044l305 216l301 -216l-57 -73l-246 186l-248 -186zM158 0v807h104v-807h-104z" />
<glyph unicode="&#xef;" horiz-adv-x="411" d="M-25 1159q0 33 22.5 56.5t57.5 23.5q33 0 56.5 -23.5t23.5 -56.5q0 -35 -23.5 -57.5t-56.5 -22.5q-35 0 -57.5 22.5t-22.5 57.5zM152 0v807h104v-807h-104zM309 1159q0 33 23.5 56.5t56.5 23.5q35 0 57.5 -23.5t22.5 -56.5q0 -35 -22.5 -57.5t-57.5 -22.5 q-33 0 -56.5 22.5t-23.5 57.5z" />
<glyph unicode="&#xf0;" d="M47 393q0 96 27.5 177t79 140.5t123 93.5t157.5 34q51 0 87 -9.5t69 -17.5q-16 29 -56 74t-104 98l-237 -80l-29 80l180 64q-45 29 -96 58.5t-111 53.5l33 72q78 -29 149.5 -65t131.5 -81l260 91l26 -82l-202 -72q127 -121 190 -264.5t63 -288.5q0 -29 -1 -75t-12 -99 t-34.5 -106.5t-67.5 -97.5t-112.5 -72.5t-169.5 -28.5q-63 0 -124.5 26.5t-111 77.5t-79 127t-29.5 172zM152 406q0 -68 17 -127.5t51 -103.5t86 -68.5t120 -24.5q61 0 108.5 26.5t78 70.5t47 99.5t16.5 112.5q0 125 -14.5 192.5t-30.5 110.5q2 0 -6.5 3t-19.5 6.5t-21 6.5 l-11 3q-37 12 -80.5 21t-78.5 9q-61 0 -110.5 -27.5t-83.5 -73.5t-51 -107.5t-17 -128.5z" />
<glyph unicode="&#xf1;" horiz-adv-x="892" d="M123 0v807h102v-105q76 45 159 87t175 42q94 0 152.5 -71.5t58.5 -204.5v-555h-106v537q0 102 -38 150t-108 48q-31 0 -69.5 -13t-78.5 -32.5t-77 -41t-64 -36.5v-612h-106zM193 1079q8 74 57 114t106 40q35 0 65 -11.5t56.5 -24.5t53 -24.5t55.5 -11.5t58.5 16.5 t39.5 51.5l64 -19q-6 -57 -48.5 -99t-101.5 -42q-35 0 -66.5 12.5t-60.5 27.5t-56.5 27.5t-54.5 12.5q-39 0 -68.5 -25.5t-39.5 -64.5z" />
<glyph unicode="&#xf2;" horiz-adv-x="878" d="M61 403q0 84 28 161t78 136.5t118.5 95t150.5 35.5t151.5 -35.5t121 -95t80 -135t28.5 -155.5q0 -84 -28.5 -161t-79 -136.5t-121 -94t-152.5 -34.5t-150.5 32.5t-118.5 90t-78 134t-28 162.5zM174 403q0 -70 19.5 -131t55.5 -106t85 -70.5t108 -25.5t107.5 27.5 t83.5 74.5t53.5 108.5t18.5 129.5q0 66 -20.5 126t-56.5 106t-85 73.5t-109 27.5q-59 0 -107 -27.5t-82 -73.5t-52.5 -108.5t-18.5 -130.5zM225 1231l84 65l242 -288l-57 -47z" />
<glyph unicode="&#xf3;" horiz-adv-x="878" d="M61 403q0 84 28 161t78 136.5t118.5 95t150.5 35.5t151.5 -35.5t121 -95t80 -135t28.5 -155.5q0 -84 -28.5 -161t-79 -136.5t-121 -94t-152.5 -34.5t-150.5 32.5t-118.5 90t-78 134t-28 162.5zM174 403q0 -70 19.5 -131t55.5 -106t85 -70.5t108 -25.5t107.5 27.5 t83.5 74.5t53.5 108.5t18.5 129.5q0 66 -20.5 126t-56.5 106t-85 73.5t-109 27.5q-59 0 -107 -27.5t-82 -73.5t-52.5 -108.5t-18.5 -130.5zM348 1008l242 288l84 -65l-268 -270z" />
<glyph unicode="&#xf4;" horiz-adv-x="878" d="M61 403q0 84 28 161t78 136.5t118.5 95t150.5 35.5t151.5 -35.5t121 -95t80 -135t28.5 -155.5q0 -84 -28.5 -161t-79 -136.5t-121 -94t-152.5 -34.5t-150.5 32.5t-118.5 90t-78 134t-28 162.5zM125 1044l303 216l303 -216l-59 -73l-246 186l-248 -186zM174 403 q0 -70 19.5 -131t55.5 -106t85 -70.5t108 -25.5t107.5 27.5t83.5 74.5t53.5 108.5t18.5 129.5q0 66 -20.5 126t-56.5 106t-85 73.5t-109 27.5q-59 0 -107 -27.5t-82 -73.5t-52.5 -108.5t-18.5 -130.5z" />
<glyph unicode="&#xf5;" horiz-adv-x="878" d="M61 403q0 84 28 161t78 136.5t118.5 95t150.5 35.5t151.5 -35.5t121 -95t80 -135t28.5 -155.5q0 -84 -28.5 -161t-79 -136.5t-121 -94t-152.5 -34.5t-150.5 32.5t-118.5 90t-78 134t-28 162.5zM160 1079q8 74 56 114t106 40q35 0 64.5 -11.5t57 -24.5t53 -24.5 t54.5 -11.5t58.5 16.5t39.5 51.5l66 -19q-6 -57 -48 -99t-104 -42q-35 0 -66.5 12.5t-60 27.5t-56.5 27.5t-54 12.5q-37 0 -67 -25.5t-42 -64.5zM174 403q0 -70 19.5 -131t55.5 -106t85 -70.5t108 -25.5t107.5 27.5t83.5 74.5t53.5 108.5t18.5 129.5q0 66 -20.5 126 t-56.5 106t-85 73.5t-109 27.5q-59 0 -107 -27.5t-82 -73.5t-52.5 -108.5t-18.5 -130.5z" />
<glyph unicode="&#xf6;" horiz-adv-x="878" d="M61 403q0 84 28 161t78 136.5t118.5 95t150.5 35.5t151.5 -35.5t121 -95t80 -135t28.5 -155.5q0 -84 -28.5 -161t-79 -136.5t-121 -94t-152.5 -34.5t-150.5 32.5t-118.5 90t-78 134t-28 162.5zM174 403q0 -70 19.5 -131t55.5 -106t85 -70.5t108 -25.5t107.5 27.5 t83.5 74.5t53.5 108.5t18.5 129.5q0 66 -20.5 126t-56.5 106t-85 73.5t-109 27.5q-59 0 -107 -27.5t-82 -73.5t-52.5 -108.5t-18.5 -130.5zM201 1159q0 33 22.5 56.5t57.5 23.5q33 0 56 -23.5t23 -56.5q0 -35 -23.5 -57.5t-55.5 -22.5q-35 0 -57.5 22.5t-22.5 57.5z M535 1159q0 33 23.5 56.5t55.5 23.5q35 0 57.5 -23.5t22.5 -56.5q0 -35 -22.5 -57.5t-57.5 -22.5q-33 0 -56 22.5t-23 57.5z" />
<glyph unicode="&#xf7;" horiz-adv-x="911" d="M47 367v82h817v-82h-817zM348 96q0 45 31 77t78 32q45 0 75.5 -32t30.5 -77t-30.5 -76.5t-75.5 -31.5q-47 0 -78 31.5t-31 76.5zM348 719q0 47 31 77.5t78 30.5q45 0 75.5 -30.5t30.5 -77.5q0 -45 -30.5 -77t-75.5 -32q-47 0 -78 32t-31 77z" />
<glyph unicode="&#xf8;" horiz-adv-x="878" d="M33 -8l114 137q-86 115 -86 274q0 84 28 161t78 136.5t118.5 95t150.5 35.5q66 0 123 -22.5t105 -63.5l110 132l62 -52l-117 -139q47 -57 72.5 -129t25.5 -147q0 -84 -28.5 -161t-79 -136.5t-121 -94t-152.5 -34.5q-68 0 -127 22.5t-106 63.5l-109 -129zM174 403 q0 -106 45 -190l383 459q-35 35 -77 53t-91 18q-59 0 -107 -27.5t-82 -73.5t-52.5 -108.5t-18.5 -130.5zM266 145q35 -35 79 -55t97 -20q59 0 107.5 27.5t83.5 74.5t53.5 108.5t18.5 129.5q0 53 -14.5 104t-39.5 92z" />
<glyph unicode="&#xf9;" d="M123 252v555h106v-537q0 -115 38 -156.5t110 -41.5q29 0 65.5 13t73.5 31.5t71 40t58 38.5v612h107v-807h-103v102q-72 -45 -148.5 -86t-166.5 -41q-94 0 -152.5 72t-58.5 205zM240 1231l84 65l241 -288l-57 -47z" />
<glyph unicode="&#xfa;" d="M123 252v555h106v-537q0 -115 38 -156.5t110 -41.5q29 0 65.5 13t73.5 31.5t71 40t58 38.5v612h107v-807h-103v102q-72 -45 -148.5 -86t-166.5 -41q-94 0 -152.5 72t-58.5 205zM373 1008l239 288l86 -65l-268 -270z" />
<glyph unicode="&#xfb;" d="M123 252v555h106v-537q0 -115 38 -156.5t110 -41.5q29 0 65.5 13t73.5 31.5t71 40t58 38.5v612h107v-807h-103v102q-72 -45 -148.5 -86t-166.5 -41q-94 0 -152.5 72t-58.5 205zM141 1044l305 216l302 -216l-58 -73l-246 186l-247 -186z" />
<glyph unicode="&#xfc;" d="M123 252v555h106v-537q0 -115 38 -156.5t110 -41.5q29 0 65.5 13t73.5 31.5t71 40t58 38.5v612h107v-807h-103v102q-72 -45 -148.5 -86t-166.5 -41q-94 0 -152.5 72t-58.5 205zM184 1159q0 33 22.5 56.5t57.5 23.5t57.5 -23.5t22.5 -56.5q0 -35 -22.5 -57.5t-57.5 -22.5 t-57.5 22.5t-22.5 57.5zM520 1159q0 33 22.5 56.5t57.5 23.5q33 0 56.5 -23.5t23.5 -56.5q0 -35 -23.5 -57.5t-56.5 -22.5q-35 0 -57.5 22.5t-22.5 57.5z" />
<glyph unicode="&#xfd;" horiz-adv-x="808" d="M0 -446q70 10 147.5 80.5t137.5 213.5l65 166l-350 785l111 32l299 -718l301 718l98 -32l-449 -1012q-70 -158 -158.5 -236.5t-178.5 -89.5zM326 1008l241 288l84 -65l-268 -270z" />
<glyph unicode="&#xfe;" horiz-adv-x="858" d="M123 -510v1827h104v-582q59 33 129 63.5t144 30.5q66 0 121 -31.5t94 -83.5t60.5 -119.5t21.5 -139.5q0 -102 -29 -189.5t-81 -151t-125 -98t-161 -34.5q-39 0 -86 7t-88 17v-516h-104zM227 102q39 -14 85 -22t94 -8q61 0 112 29.5t88 79.5t57.5 114.5t20.5 136.5 q0 55 -12.5 110.5t-39 99.5t-67.5 70.5t-96 26.5q-25 0 -57.5 -10t-66.5 -24.5t-65.5 -31t-52.5 -26.5v-545z" />
<glyph unicode="&#xff;" horiz-adv-x="808" d="M0 -446q70 10 147.5 80.5t137.5 213.5l65 166l-350 785l111 32l299 -718l301 718l98 -32l-449 -1012q-70 -158 -158.5 -236.5t-178.5 -89.5zM168 1159q0 33 22.5 56.5t57.5 23.5q33 0 56.5 -23.5t23.5 -56.5q0 -35 -23.5 -57.5t-56.5 -22.5q-35 0 -57.5 22.5t-22.5 57.5z M502 1159q0 33 23.5 56.5t56.5 23.5q35 0 57.5 -23.5t22.5 -56.5q0 -35 -23 -57.5t-57 -22.5q-33 0 -56.5 22.5t-23.5 57.5z" />
<glyph unicode="&#x152;" horiz-adv-x="1370" d="M82 592q0 143 35 259t95 197.5t142 126t174 44.5q47 0 90.5 -10.5t81.5 -26.5h560v-92h-459v-439h381v-88h-381v-473h508v-90h-623q-74 -37 -158 -37q-113 0 -196.5 49t-139 135t-83 201t-27.5 244zM209 629q0 -80 11 -178.5t47 -184.5t101.5 -143t170.5 -57q41 0 77.5 7 t65.5 25v977q-35 20 -76 31.5t-90 11.5q-96 0 -155.5 -49t-93.5 -123t-46 -159t-12 -158z" />
<glyph unicode="&#x153;" horiz-adv-x="1439" d="M61 403q0 84 28 161t78 136.5t118.5 95t150.5 35.5q106 0 188.5 -61t129.5 -152q37 94 109.5 152.5t178.5 58.5q76 0 131.5 -25.5t95.5 -69.5t64.5 -104.5t40.5 -127.5l-47 -62l-508 -92q16 -119 83 -196.5t183 -77.5q92 0 156 28.5t105 57.5l43 -78q-45 -31 -122 -64.5 t-194 -33.5q-111 0 -193.5 60t-123.5 153q-47 -92 -129 -152.5t-191 -60.5q-82 0 -150.5 32.5t-118.5 90t-78 134t-28 162.5zM174 399q2 -70 22.5 -131t56.5 -105t85 -69.5t108 -23.5q61 2 109.5 31.5t82.5 78.5t51.5 111.5t15.5 128.5q-2 63 -22.5 121.5t-57.5 104.5 t-87.5 72.5t-107.5 24.5q-59 -2 -107.5 -29.5t-82 -74.5t-51 -109.5t-15.5 -130.5zM815 428l438 92q-10 43 -25.5 84t-39 73t-59 51.5t-85.5 19.5q-53 0 -96 -25t-72.5 -68t-45 -101t-15.5 -126z" />
<glyph unicode="&#x178;" horiz-adv-x="964" d="M20 1165l117 33l346 -635l357 637l104 -37l-409 -702v-461h-115v459zM240 1364q0 33 22.5 56.5t56.5 23.5q35 0 57.5 -23.5t22.5 -56.5q0 -35 -22.5 -57.5t-57.5 -22.5t-57 22.5t-22 57.5zM575 1364q0 33 23 56.5t57 23.5q33 0 56.5 -23.5t23.5 -56.5q0 -35 -23.5 -57.5 t-56.5 -22.5q-35 0 -57.5 22.5t-22.5 57.5z" />
<glyph unicode="&#x2c6;" horiz-adv-x="729" d="M61 1044l304 216l303 -216l-60 -73l-246 186l-247 -186z" />
<glyph unicode="&#x2dc;" horiz-adv-x="677" d="M61 1079q8 74 57.5 114t106.5 40q35 0 64.5 -11.5t56.5 -24.5t53.5 -24.5t55.5 -11.5t58.5 16.5t39.5 51.5l63 -19q-6 -57 -48 -99t-101 -42q-35 0 -66.5 12.5t-60.5 27.5t-56.5 27.5t-54.5 12.5q-39 0 -68.5 -25.5t-39.5 -64.5z" />
<glyph unicode="&#x2000;" horiz-adv-x="765" />
<glyph unicode="&#x2001;" horiz-adv-x="1530" />
<glyph unicode="&#x2002;" horiz-adv-x="765" />
<glyph unicode="&#x2003;" horiz-adv-x="1530" />
<glyph unicode="&#x2004;" horiz-adv-x="510" />
<glyph unicode="&#x2005;" horiz-adv-x="382" />
<glyph unicode="&#x2006;" horiz-adv-x="255" />
<glyph unicode="&#x2007;" horiz-adv-x="255" />
<glyph unicode="&#x2008;" horiz-adv-x="191" />
<glyph unicode="&#x2009;" horiz-adv-x="306" />
<glyph unicode="&#x200a;" horiz-adv-x="85" />
<glyph unicode="&#x2010;" horiz-adv-x="512" d="M16 395v92h480v-92h-480z" />
<glyph unicode="&#x2011;" horiz-adv-x="512" d="M16 395v92h480v-92h-480z" />
<glyph unicode="&#x2012;" horiz-adv-x="512" d="M16 395v92h480v-92h-480z" />
<glyph unicode="&#x2013;" horiz-adv-x="1024" d="M59 395v92h906v-92h-906z" />
<glyph unicode="&#x2014;" horiz-adv-x="2048" d="M61 395v92h1926v-92h-1926z" />
<glyph unicode="&#x2018;" horiz-adv-x="348" d="M66 965q0 6 3 19t7 22l135 309l92 -39l-61 -160q-16 -43 -16.5 -92t32.5 -72q0 -45 -26.5 -70.5t-71.5 -25.5q-47 0 -70.5 32t-23.5 77z" />
<glyph unicode="&#x2019;" horiz-adv-x="348" d="M55 893l60 162q8 20 12 43.5t3 47t-8 42t-24 31.5q0 43 28 68.5t73 25.5t68.5 -31t23.5 -76q0 -20 -8 -41l-138 -309z" />
<glyph unicode="&#x201a;" horiz-adv-x="348" d="M59 -209l60 160q8 20 12 44.5t3 47.5t-8 42t-24 30q0 45 28 70.5t71 25.5q47 0 70.5 -32t23.5 -77q0 -6 -3 -19t-7 -22l-135 -309z" />
<glyph unicode="&#x201c;" horiz-adv-x="655" d="M51 967q0 6 3 19t7 22l136 309l92 -39l-62 -160q-16 -43 -16 -92t33 -72q0 -45 -27 -70.5t-72 -25.5q-47 0 -70.5 32t-23.5 77zM373 967q0 6 3 19t7 22l135 309l92 -39l-61 -160q-16 -43 -16.5 -92t32.5 -72q0 -45 -26.5 -70.5t-71.5 -25.5q-47 0 -70.5 32t-23.5 77z" />
<glyph unicode="&#x201d;" horiz-adv-x="655" d="M66 893l59 162q8 20 12 43.5t3 47t-8 42t-23 31.5q0 43 27.5 68.5t72.5 25.5t68.5 -31t23.5 -76q0 -20 -8 -41l-137 -309zM387 893l59 162q8 20 12.5 43.5t3.5 47t-8.5 42t-23.5 31.5q0 43 27.5 68.5t72.5 25.5t69 -31t24 -76q0 -20 -9 -41l-137 -309z" />
<glyph unicode="&#x201e;" horiz-adv-x="655" d="M49 -209l60 160q8 20 12 44.5t3 47.5t-8 42t-24 30q0 45 27.5 70.5t70.5 25.5q47 0 71 -32t24 -77q0 -6 -3 -19t-8 -22l-135 -309zM371 -209l59 160q8 20 12 44.5t3 47.5t-8 42t-23 30q0 45 27.5 70.5t70.5 25.5q47 0 70.5 -32t23.5 -77q0 -6 -3 -19t-7 -22l-135 -309z " />
<glyph unicode="&#x2022;" horiz-adv-x="579" d="M82 604q0 45 16.5 83t44 65.5t65.5 44t81 16.5t81 -16.5t66.5 -44t45 -65.5t16.5 -83q0 -88 -60.5 -147.5t-148.5 -59.5h-2q-86 0 -144.5 58.5t-60.5 148.5z" />
<glyph unicode="&#x2026;" horiz-adv-x="1730" d="M186 96q0 45 32 77t77 32t76.5 -32t31.5 -77t-31.5 -76.5t-76.5 -31.5t-77 31.5t-32 76.5zM754 96q0 45 31.5 77t76.5 32t77 -32t32 -77t-32 -76.5t-77 -31.5t-76.5 31.5t-31.5 76.5zM1350 96q0 45 31.5 77t76.5 32t77 -32t32 -77t-32 -76.5t-77 -31.5t-76.5 31.5 t-31.5 76.5z" />
<glyph unicode="&#x202f;" horiz-adv-x="306" />
<glyph unicode="&#x2039;" horiz-adv-x="387" d="M51 438l199 314l84 -43l-174 -271l176 -272l-86 -41z" />
<glyph unicode="&#x203a;" horiz-adv-x="387" d="M51 166l176 272l-174 271l84 43l199 -314l-199 -313z" />
<glyph unicode="&#x205f;" horiz-adv-x="382" />
<glyph unicode="&#x20ac;" horiz-adv-x="925" d="M82 600q0 143 37 257t105.5 192.5t166.5 120.5t219 42q31 0 64 -5t62.5 -12t53 -16.5t35.5 -15.5l-34 -94q-31 12 -80 26.5t-107 14.5q-59 0 -119.5 -17.5t-113 -59.5t-93 -109.5t-59.5 -165.5h563v-88h-573q-2 -16 -2 -31.5v-32.5v-53h575v-86h-569q12 -109 42 -182.5 t77 -119.5t107.5 -65.5t133.5 -19.5q49 0 86 4t66 12t54.5 17.5t51.5 21.5l29 -98q-16 -8 -46 -19.5t-68.5 -21.5t-85 -17.5t-93.5 -7.5q-109 0 -197.5 34t-153 108.5t-99.5 194.5t-35 292z" />
<glyph unicode="&#x2122;" horiz-adv-x="1394" d="M20 1362v80h515v-80h-216v-614h-88v614h-211zM621 748l55 694h104l168 -565l172 565h103l49 -694l-88 -5l-33 535l-166 -530h-80l-160 530l-40 -535z" />
<glyph unicode="&#x25fc;" horiz-adv-x="829" d="M0 0v829h829v-829h-829z" />
<glyph unicode="&#xfb01;" horiz-adv-x="913" d="M41 705v102h127v184q0 90 28.5 156.5t74.5 109.5t102.5 64.5t109.5 21.5q55 0 102.5 -10t86.5 -25.5t68.5 -34t50.5 -32.5l-41 -80q-18 12 -42 26.5t-55.5 29t-71.5 23.5t-87 9q-43 0 -83 -17.5t-70 -51t-48.5 -83.5t-18.5 -116v-174h496v-807h-106v705h-390v-705h-106 v705h-127z" />
<glyph unicode="&#xfb02;" horiz-adv-x="909" d="M41 707v100h127v184q0 90 28.5 156.5t74.5 109.5t102.5 64.5t109.5 21.5q59 0 106.5 -14t90.5 -33v19h106v-1315h-106v1200q-37 20 -81 35.5t-105 15.5q-43 0 -83 -17t-70 -52t-48.5 -85t-18.5 -114v-176h203v-100h-203v-707h-106v707h-127z" />
</font>
</defs>
</svg>
