<?xml version="1.0" standalone="no"?>
<!DOCTYPE svg PUBLIC "-//W3C//DTD SVG 1.1//EN" "http://www.w3.org/Graphics/SVG/1.1/DTD/svg11.dtd" >
<svg xmlns="http://www.w3.org/2000/svg" xmlns:xlink="http://www.w3.org/1999/xlink" version="1.1">
<metadata></metadata>
<defs>
<font id="eurekasans-regularregular" horiz-adv-x="962" >
<font-face units-per-em="2048" ascent="1501" descent="-547" />
<missing-glyph horiz-adv-x="495" />
<glyph horiz-adv-x="0" />
<glyph unicode="&#xd;" horiz-adv-x="495" />
<glyph unicode=" "  horiz-adv-x="495" />
<glyph unicode="&#x09;" horiz-adv-x="495" />
<glyph unicode="&#xa0;" horiz-adv-x="495" />
<glyph unicode="!" horiz-adv-x="360" d="M61 102q0 49 35 84t84 35t84 -35t35 -84t-35 -83.5t-84 -34.5t-84 34.5t-35 83.5zM94 782v398h168v-398q0 -47 -6 -114.5t-14 -132.5q-8 -76 -21 -158h-86q-12 82 -20 158q-8 66 -14.5 133t-6.5 114z" />
<glyph unicode="&#x22;" horiz-adv-x="655" d="M119 1317h137l-23 -389h-92zM399 1317h138l-23 -389h-92z" />
<glyph unicode="#" horiz-adv-x="946" d="M61 401v123h177l38 293h-165v123h182l47 377h125l-51 -377h194l47 377h125l-51 -377h156v-123h-172l-37 -293h164v-123h-183l-53 -401h-125l53 401h-190l-53 -401h-123l53 401h-158zM360 524h193l37 293h-193z" />
<glyph unicode="$" horiz-adv-x="864" d="M82 63l63 127q23 -14 55.5 -29.5t69.5 -28.5t76 -21.5t72 -8.5q98 0 159.5 47.5t61.5 133.5q0 74 -39 123t-96.5 89t-125 76.5t-124.5 82.5t-96 109.5t-39 156.5q0 102 67.5 179t169.5 105l-2 182h123l-2 -172q104 -4 172 -30.5t109 -48.5l-60 -119q-43 25 -109.5 50.5 t-142.5 25.5q-31 0 -59.5 -11.5t-52 -33t-37.5 -51t-14 -66.5q0 -63 38.5 -109.5t96 -85.5t126 -76.5t126 -86t96.5 -113t39 -156.5q0 -141 -87 -227t-241 -103l2 -186h-123l4 188q-37 4 -76.5 14.5t-76.5 23t-69 25.5t-54 25z" />
<glyph unicode="%" horiz-adv-x="1220" d="M41 844q0 164 67.5 261t174.5 97q70 0 115.5 -34.5t72.5 -87t37 -114t10 -116.5q0 -92 -19.5 -159.5t-53 -111.5t-76.5 -65.5t-90 -21.5q-106 0 -172 96t-66 256zM170 848q0 -49 6 -96t19.5 -83t35 -57.5t52.5 -21.5t52 21.5t34.5 57.5t18.5 82t5 95q0 47 -5 93t-18.5 83 t-35 59.5t-53.5 22.5q-31 0 -51.5 -21.5t-34 -57.5t-19.5 -82t-6 -95zM248 20l629 1184l79 -41l-628 -1186zM702 338q0 164 68 261t174 97q70 0 115 -34.5t71.5 -87t38 -114t11.5 -116.5q0 -92 -19.5 -159.5t-53.5 -111.5t-77 -65.5t-90 -21.5q-106 0 -172 96t-66 256z M831 342q0 -49 5.5 -96t19.5 -83t35.5 -57.5t52.5 -21.5t52.5 21.5t34.5 57.5t18.5 82t5.5 95q0 47 -5.5 93t-18.5 83t-34.5 59.5t-54.5 22.5q-31 0 -51.5 -21.5t-33.5 -57.5t-19.5 -82t-6.5 -95z" />
<glyph unicode="&#x26;" horiz-adv-x="1286" d="M84 365q0 66 23.5 123t60.5 102t80 74.5t84 40.5q-90 35 -140.5 96t-50.5 162q0 51 19.5 98t56.5 83t92.5 57.5t126.5 21.5q76 0 144.5 -16.5t109.5 -41.5l-51 -102q-35 20 -79 33.5t-99 13.5q-90 0 -133 -44t-43 -122q0 -55 23.5 -92t60.5 -59.5t83 -31.5t93 -9v-113 q-63 0 -119.5 -18.5t-99.5 -54.5t-68 -86t-25 -113q0 -55 20.5 -104.5t58.5 -86.5t89.5 -58.5t112.5 -21.5q106 0 191.5 38t173.5 91v408h-228v119h592v-119h-229v-633h-135v111q-80 -55 -176.5 -99.5t-204.5 -44.5q-197 0 -305.5 103.5t-108.5 294.5z" />
<glyph unicode="'" horiz-adv-x="403" d="M133 1317h137l-22 -389h-92z" />
<glyph unicode="(" horiz-adv-x="649" d="M152 586q0 150 22.5 276.5t58 230t80.5 185.5t90 143l95 -59q-41 -68 -77 -145.5t-62.5 -172t-41 -208t-14.5 -252.5q0 -137 16.5 -249t43 -205t61.5 -171t74 -147l-95 -58q-45 61 -90 143.5t-80.5 184.5t-58 228t-22.5 276z" />
<glyph unicode=")" horiz-adv-x="649" d="M152 -188q39 70 73.5 147.5t61 170.5t43 204.5t16.5 249.5q0 139 -15.5 252.5t-41 208t-61 172t-76.5 145.5l94 59q45 -61 90 -143t81 -185.5t58.5 -230t22.5 -276.5t-22.5 -276t-58.5 -228t-81 -184t-90 -144z" />
<glyph unicode="*" horiz-adv-x="753" d="M20 975v139l304 -51v-35zM125 762l211 254l31 -19l-125 -309zM125 1327l125 72l115 -299l-31 -21zM381 995l31 19l215 -250l-129 -74zM383 1098l117 303l125 -70l-211 -254zM422 1024v35l311 55v-139z" />
<glyph unicode="+" horiz-adv-x="980" d="M82 352v111h350v348h117v-348h350v-111h-350v-352h-117v352h-350z" />
<glyph unicode="," horiz-adv-x="548" d="M143 -217l70 178q16 39 4 79t-41 62q0 49 35 84t84 35t84 -35t35 -84q0 -10 -4 -25.5t-9 -25.5l-159 -311z" />
<glyph unicode="-" horiz-adv-x="512" d="M23 377v131h466v-131h-466z" />
<glyph unicode="." horiz-adv-x="548" d="M176 102q0 49 35 84t84 35t84 -35t35 -84t-35 -83.5t-84 -34.5t-84 34.5t-35 83.5z" />
<glyph unicode="/" horiz-adv-x="841" d="M0 -276l735 1507l107 -49l-736 -1510z" />
<glyph unicode="0" horiz-adv-x="1036" d="M82 408q0 90 34 168.5t93 138t139 93.5t170 34t169 -34t138.5 -93.5t94 -138t34.5 -168.5t-34.5 -170t-94 -139.5t-138.5 -93.5t-169 -34t-170 34t-139 93.5t-93 139t-34 170.5zM233 408q0 -68 19.5 -126.5t56.5 -102.5t89.5 -69.5t119.5 -25.5q68 0 120 25.5t89 69.5 t56.5 102.5t19.5 126.5q0 66 -19.5 124t-56.5 102t-89 69.5t-120 25.5t-120 -25.5t-89 -69.5t-56.5 -102.5t-19.5 -123.5z" />
<glyph unicode="1" horiz-adv-x="747" d="M111 692v117h354v-690h197v-119h-535v119h197v573h-213z" />
<glyph unicode="2" horiz-adv-x="800" d="M92 733q55 45 136 78t161 33q63 0 122.5 -18.5t106 -55.5t74 -92t27.5 -129q0 -51 -30 -100.5t-70.5 -91.5t-85 -75.5t-74.5 -56.5l-154 -112h410v-113h-621v72l178 149q35 29 86.5 69t99.5 85t81.5 91t33.5 89q0 82 -47 125t-125 43q-70 0 -129 -25.5t-112 -60.5z" />
<glyph unicode="3" horiz-adv-x="825" d="M57 -317l56 106q31 -18 83 -39.5t123 -21.5q68 0 115 20.5t77 54t43 76.5t13 88q0 61 -23.5 109.5t-62.5 80t-90 48t-108 16.5h-50v103h48q39 0 83 12t80.5 38.5t60 66.5t23.5 96q0 82 -47 131t-143 49q-59 0 -102 -19.5t-80 -42.5l-52 97q41 29 111 56.5t152 27.5 q76 0 135 -22.5t100 -60.5t61.5 -88.5t20.5 -105.5q0 -92 -51 -166t-152 -114q45 -10 88 -35t77 -65t55.5 -93t21.5 -121q0 -72 -27.5 -135t-79 -111.5t-126 -77t-168.5 -28.5q-82 0 -153 20.5t-112 49.5z" />
<glyph unicode="4" d="M49 0v88l547 768h145v-735h152v-121h-152v-309h-141v309h-551zM215 121h385v545z" />
<glyph unicode="5" horiz-adv-x="854" d="M82 -330l61 115q31 -18 88.5 -35.5t124.5 -17.5q51 0 98.5 15t83 48t56 85t20.5 124q0 129 -78.5 195.5t-230.5 66.5q-88 0 -145 -10l84 551h481v-119h-367l-47 -305q16 4 27.5 3t38.5 -1q80 0 151.5 -26.5t126 -73.5t86 -115t31.5 -150q0 -94 -32.5 -170.5t-89 -130 t-131.5 -83t-161 -29.5q-39 0 -79.5 5t-77.5 13t-68 20.5t-51 24.5z" />
<glyph unicode="6" horiz-adv-x="913" d="M82 442q-4 131 35 257t117.5 231.5t194.5 186.5t263 124l45 -100q-170 -68 -281.5 -166t-164.5 -240q37 16 80 27.5t90 11.5q72 0 138.5 -25.5t117.5 -75.5t81.5 -125t32.5 -173q2 -92 -25.5 -165t-76.5 -123t-116.5 -77.5t-143.5 -29.5q-100 -2 -172 38.5t-119 106 t-70.5 149.5t-25.5 168zM233 440q0 -72 18.5 -134t50.5 -108t76 -74t95 -28q47 0 87 19.5t67.5 55.5t43 86.5t13.5 111.5t-19.5 112t-47 89t-70.5 59.5t-88 21.5q-29 0 -59.5 -5t-59.5 -11t-52.5 -13.5t-37.5 -13.5q-8 -37 -12.5 -71.5t-4.5 -96.5z" />
<glyph unicode="7" horiz-adv-x="768" d="M18 678v129h709v-86l-491 -1118l-142 24l457 1051h-533z" />
<glyph unicode="8" horiz-adv-x="907" d="M82 295q0 53 19.5 102t53 92t79 79t96.5 61q-96 47 -150.5 119.5t-54.5 150.5q0 70 26.5 126t72.5 95t107.5 60.5t133.5 21.5q80 0 140.5 -23.5t100 -63.5t60 -90t20.5 -103q0 -78 -47 -153t-151 -128q47 -23 90 -52.5t75.5 -69.5t52 -89.5t19.5 -112.5q0 -74 -28.5 -136 t-79.5 -106t-120 -69.5t-148 -25.5q-88 0 -156 26.5t-115 70.5t-71.5 100t-24.5 118zM238 315q-2 -98 56 -160.5t159 -62.5q104 0 161.5 56.5t57.5 156.5q0 109 -62.5 168t-169.5 100q-98 -39 -149 -105.5t-53 -152.5zM274 911q0 -94 56.5 -143t146.5 -82q72 35 119 88 t47 131q0 80 -42 134.5t-140 54.5h-2q-90 0 -137.5 -51.5t-47.5 -131.5z" />
<glyph unicode="9" horiz-adv-x="913" d="M82 438q-2 92 25.5 165t76.5 123t116 77.5t144 30.5q100 2 173 -39t119 -106.5t69.5 -149.5t25.5 -168q4 -133 -34.5 -258t-116.5 -230.5t-193.5 -186.5t-265.5 -124l-45 102q170 66 281.5 164.5t167.5 239.5q-37 -16 -80 -27.5t-90 -11.5q-74 0 -140.5 25.5t-117 77 t-82 125t-33.5 171.5zM229 444q2 -61 19.5 -112t47.5 -89t71 -59.5t88 -21.5q29 0 59.5 5t59 11t52 13.5t38.5 13.5q10 39 13 73t3 95q0 70 -18.5 133t-51 109.5t-75.5 74t-95 27.5q-47 0 -87 -19.5t-67.5 -55.5t-43 -86t-13.5 -112z" />
<glyph unicode=":" horiz-adv-x="540" d="M172 102q0 49 35 84t84 35t84 -35t35 -84t-35 -83.5t-84 -34.5t-84 34.5t-35 83.5zM172 688q0 49 35 84t84 35t84 -35t35 -84t-35 -84t-84 -35t-84 35t-35 84z" />
<glyph unicode=";" horiz-adv-x="540" d="M143 -217l70 178q16 39 4 79t-41 62q0 49 35 84t84 35t84 -35t35 -84q0 -10 -4 -25.5t-9 -25.5l-159 -311zM168 688q0 49 35 84t84 35t84 -35t35 -84t-35 -84t-84 -35t-84 35t-35 84z" />
<glyph unicode="&#x3c;" horiz-adv-x="997" d="M143 408l623 507l88 -96l-520 -413l520 -431l-88 -88z" />
<glyph unicode="=" horiz-adv-x="1185" d="M143 182v113h899v-113h-899zM143 522v113h899v-113h-899z" />
<glyph unicode="&#x3e;" horiz-adv-x="997" d="M143 -25l521 431l-521 413l88 96l623 -507l-623 -521z" />
<glyph unicode="?" horiz-adv-x="655" d="M41 1118q49 35 115.5 65.5t154.5 30.5q68 0 126.5 -19t102.5 -56t69.5 -89t25.5 -118q0 -68 -22.5 -118t-55.5 -92t-72 -79t-71.5 -76t-55 -85t-22.5 -105h-123q0 111 41 184.5t90 130t90 108.5t41 120q0 72 -48 123t-140 51q-57 0 -101.5 -27t-72.5 -49zM156 102 q0 49 33.5 84t82.5 35t84 -35t35 -84t-34.5 -83.5t-84.5 -34.5q-49 0 -82.5 34.5t-33.5 83.5z" />
<glyph unicode="@" horiz-adv-x="1437" d="M145 387q0 154 52.5 297t144.5 254t221 177.5t283 66.5q111 0 204 -41t161.5 -115t106.5 -173t38 -216t-34 -216t-88 -172t-124 -115t-139 -42q-33 0 -56.5 12.5t-39 32t-22.5 43t-7 43.5q-10 -18 -25.5 -38.5t-37 -38t-48 -30t-59.5 -12.5q-106 0 -166.5 80t-60.5 209 q0 111 33.5 200t95 149.5t147.5 85t190 3.5l111 -20l-65 -532q-4 -33 2 -62t32 -29q43 0 86 34t79 90.5t57.5 133t21.5 162.5q0 221 -105.5 348t-295.5 127q-117 0 -219.5 -56t-178 -151.5t-118.5 -218t-43 -254.5q0 -102 28.5 -196t85 -166t140 -115t196.5 -43 q78 0 148.5 21.5t123.5 50.5l35 -84q-76 -39 -151.5 -60.5t-171.5 -21.5q-133 0 -237.5 49t-178.5 132t-113 191.5t-39 225.5zM584 395q0 -74 26.5 -129t79.5 -55q31 0 54.5 11t43 28.5t33 36t21.5 32.5l51 416l-33 6q-72 14 -123 -6t-86 -68.5t-51 -118t-16 -153.5z" />
<glyph unicode="A" horiz-adv-x="1034" d="M41 8l424 1172h143l391 -1168l-145 -30l-129 397h-410l-133 -397zM352 498h336l-164 512z" />
<glyph unicode="B" horiz-adv-x="995" d="M184 0v1180h295q154 -2 250 -81t96 -214q0 -72 -19.5 -119t-46 -77t-55 -46t-49.5 -22q27 -6 67 -26t77 -55.5t63.5 -85.5t26.5 -118q0 -90 -30 -153.5t-81 -103.5t-120.5 -59.5t-147.5 -19.5h-326zM336 117h164q49 0 91 11t72.5 36.5t49 67t18.5 102.5q0 57 -25.5 98 t-62.5 67.5t-80 38t-78 11.5h-149v-432zM336 668h135q98 0 149.5 54.5t51.5 156.5q0 92 -61.5 137t-151.5 45h-123v-393z" />
<glyph unicode="C" d="M100 600q0 143 38 257t108.5 192.5t172 120.5t226.5 42q33 0 66.5 -5t66.5 -13t59.5 -18.5t45.5 -20.5l-47 -117q-41 16 -91.5 30.5t-103.5 14.5q-66 0 -133.5 -23.5t-122.5 -78.5t-90 -146.5t-35 -228.5q0 -143 24.5 -238.5t70.5 -153.5t110.5 -83t142.5 -25 q49 0 85 4.5t65.5 11.5t58.5 18.5t62 25.5l39 -123q-20 -10 -54.5 -23.5t-75 -23.5t-89 -17.5t-97.5 -7.5q-113 0 -205 34t-158.5 109.5t-102.5 195.5t-36 290z" />
<glyph unicode="D" horiz-adv-x="1083" d="M184 0v1180h326q127 0 218 -45t148.5 -124t84 -184.5t26.5 -226.5q0 -299 -131 -449.5t-352 -150.5h-320zM336 119h147q168 0 252 112.5t84 372.5q0 80 -16.5 161t-53 146.5t-98 107.5t-153.5 42h-162v-942z" />
<glyph unicode="E" horiz-adv-x="942" d="M184 0v1180h611v-121h-459v-393h383v-117h-383v-430h510v-119h-662z" />
<glyph unicode="F" horiz-adv-x="856" d="M184 0v1180h611v-121h-459v-402h383v-125h-383v-532h-152z" />
<glyph unicode="G" horiz-adv-x="1071" d="M100 598q0 141 38 255t107.5 193.5t169 122.5t220.5 43q33 0 68.5 -5t70.5 -13t63.5 -18.5t47.5 -20.5l-49 -117q-43 18 -96.5 31.5t-106.5 13.5q-63 0 -129 -23.5t-120 -78.5t-89 -146.5t-35 -226.5q0 -143 25.5 -240.5t71.5 -157.5t109.5 -86t141.5 -26q59 0 103.5 6.5 t81.5 16.5v403h141v-479q-18 -10 -53 -22.5t-80 -23.5t-97.5 -19.5t-101.5 -8.5q-111 0 -204 35t-158.5 111t-102.5 194.5t-37 286.5z" />
<glyph unicode="H" horiz-adv-x="1167" d="M184 0v1180h152v-490h502v490h151v-1180h-151v561h-502v-561h-152z" />
<glyph unicode="I" horiz-adv-x="514" d="M184 0v1180h152v-1180h-152z" />
<glyph unicode="J" horiz-adv-x="577" d="M-61 -250l34 121q12 -4 27 -8q12 -4 28.5 -6t34.5 -2q74 0 130.5 43t56.5 135v1147h149v-1157q0 -74 -28.5 -129.5t-75.5 -92.5t-106.5 -56t-120.5 -19q-31 0 -55.5 4t-41.5 8q-20 6 -32 12z" />
<glyph unicode="K" horiz-adv-x="1013" d="M184 0v1180h152v-1180h-152zM362 614v39l439 551l147 -51l-424 -516l434 -606l-155 -56z" />
<glyph unicode="L" horiz-adv-x="815" d="M184 0v1180h152v-1061h444v-119h-596z" />
<glyph unicode="M" horiz-adv-x="1398" d="M143 0l82 1180h201l283 -961l282 961h195l76 -1180l-152 -6l-49 971l-293 -965h-139l-285 965l-59 -971z" />
<glyph unicode="N" horiz-adv-x="1220" d="M184 0v1180h181l540 -916v916h137v-1180h-151l-569 965l2 -965h-140z" />
<glyph unicode="O" horiz-adv-x="1126" d="M102 592q0 141 36 257t98.5 197.5t146.5 127t182 45.5q117 0 205 -50.5t145.5 -135.5t86 -198.5t28.5 -242.5q0 -141 -36 -256t-99.5 -196t-147 -125t-182.5 -44q-117 0 -204 49.5t-144 133.5t-86 197.5t-29 240.5zM264 629q0 -76 10.5 -168t44 -172t95 -134.5 t161.5 -54.5q92 0 149.5 46.5t88.5 115t42 148t11 149.5q0 76 -10 168t-44 173t-95.5 135.5t-163.5 54.5q-90 0 -146.5 -46.5t-88 -116t-43 -150.5t-11.5 -148z" />
<glyph unicode="P" horiz-adv-x="913" d="M184 0v1180h285q188 0 288.5 -82t100.5 -240q0 -86 -28.5 -155.5t-81 -118.5t-126.5 -75q-68 -24 -150 -24h-13l-123 2v-487h-152zM336 604h113q121 0 184 59.5t63 180.5q0 117 -58 168t-169 51h-133v-459z" />
<glyph unicode="Q" horiz-adv-x="1126" d="M102 592q0 141 36 257t98.5 197.5t146.5 127t182 45.5q117 0 205 -50.5t145.5 -135.5t86 -198.5t28.5 -242.5q0 -131 -28.5 -237.5t-80 -184.5t-121 -127t-151.5 -68q6 -29 12.5 -66.5t20.5 -71.5t40 -57.5t66 -23.5q35 0 58.5 7.5t52.5 23.5l45 -98q-41 -23 -87 -35 q-39 -10 -80 -10h-13q-72 2 -118 31.5t-73.5 76.5t-42 104.5t-20.5 112.5q-104 12 -180 66.5t-127 137.5t-76 190.5t-25 228.5zM264 629q0 -76 10.5 -169t44 -174t95 -136.5t161.5 -55.5q92 0 149.5 47t88.5 117t42 150.5t11 150.5q0 76 -10 168t-44 173t-95.5 135.5 t-163.5 54.5q-90 0 -146.5 -46.5t-88 -116t-43 -150.5t-11.5 -148z" />
<glyph unicode="R" horiz-adv-x="974" d="M184 -2v1182h285q94 0 163.5 -26t116 -70t69 -102t22.5 -122q0 -66 -22.5 -117t-55.5 -88t-70 -61.5t-63 -34.5l311 -539l-154 -47l-301 557q-10 -2 -14 -2h-14h-121v-530h-152zM336 645h133q98 0 156.5 51.5t58.5 155.5q0 86 -52 149.5t-163 63.5h-133v-420z" />
<glyph unicode="S" horiz-adv-x="892" d="M82 63l63 127q23 -14 55.5 -29.5t69.5 -28.5t76 -21.5t72 -8.5q98 0 159.5 47.5t61.5 133.5q0 74 -37 124t-93 92t-121.5 78.5t-122 83t-93.5 107.5t-37 152q0 61 25.5 114t69.5 93t102.5 63.5t126.5 23.5q115 0 190.5 -27.5t116.5 -51.5l-59 -119q-43 25 -110 50.5 t-142 25.5q-31 0 -59.5 -11.5t-52.5 -33t-38 -51t-14 -66.5q0 -63 38 -109.5t95 -85.5t122.5 -76.5t123 -86t95.5 -113t38 -156.5q0 -158 -104.5 -245t-288.5 -87q-41 0 -87.5 9.5t-91.5 22.5t-83.5 29.5t-65.5 30.5z" />
<glyph unicode="T" horiz-adv-x="909" d="M33 1053v127h850v-127h-353v-1053h-151v1053h-346z" />
<glyph unicode="U" horiz-adv-x="1159" d="M172 379v801h152v-811q0 -53 17 -101.5t51 -85.5t82 -58.5t110 -21.5q121 0 189.5 77t68.5 194v807h151v-801q0 -98 -34.5 -173t-92 -126t-131 -78t-151.5 -27q-90 0 -166 29t-130.5 81t-85 127t-30.5 167z" />
<glyph unicode="V" horiz-adv-x="1083" d="M31 1165l155 39l359 -1020l362 1018l152 -37l-469 -1165h-137z" />
<glyph unicode="W" horiz-adv-x="1562" d="M61 1180l152 26l205 -1038l282 1012h152l254 -1012l260 1038l141 -24l-321 -1182h-187l-233 930l-272 -930h-189z" />
<glyph unicode="X" horiz-adv-x="1021" d="M41 18l405 594l-333 545l155 47l273 -463l305 463l141 -49l-366 -539l366 -600l-160 -39l-303 506l-336 -506z" />
<glyph unicode="Y" d="M20 1161l158 41l307 -614l322 616l141 -45l-395 -702v-457h-152v453z" />
<glyph unicode="Z" horiz-adv-x="1017" d="M82 0v98l645 951h-569v131h764v-95l-641 -946h614v-139h-813z" />
<glyph unicode="[" horiz-adv-x="569" d="M156 -236v1551h360v-103h-225v-1345h225v-103h-360z" />
<glyph unicode="\" horiz-adv-x="841" d="M0 1182l104 49l738 -1507l-109 -52z" />
<glyph unicode="]" horiz-adv-x="569" d="M53 -133h228v1345h-228v103h363v-1551h-363v103z" />
<glyph unicode="^" horiz-adv-x="1032" d="M41 326l362 807h113l361 -807l-111 -45l-307 716l-307 -721z" />
<glyph unicode="_" horiz-adv-x="1024" d="M0 -154h1024v-102h-1024v102z" />
<glyph unicode="`" horiz-adv-x="483" d="M61 1210l97 101l264 -287l-64 -66z" />
<glyph unicode="a" horiz-adv-x="819" d="M61 215q0 55 25 99t66 75t97 48.5t118 21.5l178 8v90q0 92 -36 127t-101 35q-66 0 -124.5 -17.5t-115.5 -39.5l-41 104q68 29 145.5 49.5t157.5 20.5q63 0 111.5 -20.5t80 -56.5t48 -84t16.5 -104v-571h-135v88q-66 -41 -132.5 -73.5t-148.5 -32.5q-41 0 -78.5 16 t-66.5 46t-46.5 73t-17.5 98zM197 221q0 -66 33.5 -95.5t88.5 -29.5q25 0 57 10.5t63.5 24.5t59 29.5t46.5 25.5v176l-156 -8q-29 -2 -61.5 -9t-62 -22.5t-49 -40t-19.5 -61.5z" />
<glyph unicode="b" horiz-adv-x="911" d="M143 45v1270h138v-551q55 23 119.5 47.5t148.5 24.5q68 0 123 -32t95 -84t61.5 -120.5t21.5 -144.5q0 -104 -28.5 -191.5t-81 -151t-126 -98t-163.5 -34.5q-78 0 -156 20t-152 45zM281 135q43 -16 86 -28.5t88 -12.5q57 0 103 29t79 76t50.5 106.5t17.5 118.5 q0 53 -10.5 105.5t-33 94.5t-60.5 67.5t-95 25.5q-20 0 -51 -8.5t-64 -19.5t-62.5 -23.5t-47.5 -18.5v-512z" />
<glyph unicode="c" horiz-adv-x="770" d="M61 391q0 98 27 180t76 141.5t118.5 92.5t155.5 33q76 0 141.5 -22.5t114.5 -51.5l-55 -96q-47 23 -94 39t-109 16q-111 0 -171 -87t-60 -230q0 -63 16.5 -120t49 -99t81.5 -66.5t115 -24.5q37 0 64.5 4t52 12.5t47 19.5t49.5 26l49 -97q-66 -41 -129 -61t-149 -20 q-92 0 -164 32.5t-122 89t-77 131t-27 158.5z" />
<glyph unicode="d" horiz-adv-x="923" d="M61 401q0 86 28 165t78 138.5t124 95.5t166 36q47 0 94 -14.5t88 -30.5v524h141v-1315h-135v86q-53 -41 -104.5 -68.5t-128.5 -27.5q-78 0 -142.5 30.5t-110.5 85t-72 130t-26 165.5zM205 414q0 -61 10 -116.5t35.5 -97.5t71 -66.5t116.5 -24.5q59 0 108.5 31.5 t92.5 64.5v465q-43 18 -93 35.5t-97 17.5q-61 0 -107.5 -24.5t-76 -66.5t-45 -98.5t-15.5 -119.5z" />
<glyph unicode="e" horiz-adv-x="825" d="M61 389q0 94 22.5 175t66 141.5t108 95.5t148.5 35q76 0 133 -25t98 -70t68.5 -105.5t44.5 -133.5l-62 -78l-475 -80q16 -111 74.5 -178.5t169.5 -67.5q90 0 150.5 29t101.5 57l55 -100q-45 -31 -124 -67.5t-200 -36.5q-88 0 -157.5 33.5t-118.5 90t-76 131t-27 154.5z M203 446l387 80q-10 37 -22.5 73t-32 64.5t-50 46t-75.5 17.5q-96 0 -151.5 -81t-55.5 -200z" />
<glyph unicode="f" horiz-adv-x="595" d="M63 690v117h127v213q0 82 23 143.5t60.5 101.5t89 59t108.5 19q72 0 118 -15t89 -32l-43 -112q-23 10 -61.5 24.5t-92.5 14.5q-68 0 -109.5 -49.5t-41.5 -159.5v-207h200v-117h-200v-690h-140v690h-127z" />
<glyph unicode="g" horiz-adv-x="897" d="M0 -283q0 98 65.5 165t159.5 102l64 22l-148 53v115l187 82q-88 35 -146.5 103.5t-58.5 185.5q0 63 24.5 116.5t66.5 92.5t98.5 60.5t119.5 21.5q35 0 70 -6.5t63 -22.5h266v-119h-139q20 -25 33.5 -58.5t13.5 -80.5q0 -131 -64.5 -204t-168.5 -114l-248 -100l346 -104 q47 -14 91 -37t78 -53.5t53.5 -70.5t19.5 -87q0 -86 -44 -147.5t-112.5 -101.5t-153.5 -58.5t-167 -18.5q-66 0 -131.5 15.5t-118.5 47t-86 82t-33 119.5zM131 -272q0 -41 20.5 -72t55.5 -53.5t79 -33.5t91 -11q63 0 122.5 16t105.5 44t74 65.5t28 80.5q0 39 -21.5 67 t-53.5 47.5t-68 31.5t-62 20l-101 31l-96 -43q-80 -35 -127 -83t-47 -107zM264 541q2 -90 47 -144.5t123 -54.5q74 0 119 56q43 55 43 139v8q-2 90 -44 140t-122 50t-124 -52q-42 -50 -42 -134v-8z" />
<glyph unicode="h" d="M143 0v1315h136v-610q39 23 77.5 46t78.5 42.5t82 32t89 12.5q94 0 153.5 -71t59.5 -204v-563h-141v537q0 92 -31 134t-96 42q-27 0 -62.5 -14.5t-73.5 -35t-73 -42t-57 -33.5v-588h-142z" />
<glyph unicode="i" horiz-adv-x="499" d="M143 1151q0 43 31 74.5t76 31.5t75.5 -31.5t30.5 -74.5q0 -45 -30.5 -76t-75.5 -31t-76 31t-31 76zM180 0v807h139v-807h-139z" />
<glyph unicode="j" horiz-adv-x="509" d="M-51 -522l28 116q12 -6 25 -10q25 -10 55 -10q133 0 133 152v1081h140v-1071q0 -70 -20.5 -122t-53.5 -88t-75 -54.5t-85 -18.5q-61 0 -96 8.5t-51 16.5zM154 1151q0 43 30.5 74.5t75.5 31.5t76 -31.5t31 -74.5q0 -45 -31 -76t-76 -31t-75.5 31t-30.5 76z" />
<glyph unicode="k" horiz-adv-x="839" d="M143 0v1315h142v-1315h-142zM315 432v29l328 377l125 -60l-299 -332l330 -413l-133 -62z" />
<glyph unicode="l" horiz-adv-x="428" d="M143 0v1315h142v-1315h-142z" />
<glyph unicode="m" horiz-adv-x="1398" d="M143 0v807h136v-102q33 20 66.5 43.5t69.5 43t74.5 32t79.5 12.5q59 0 106.5 -36t69.5 -95q37 23 72 46t72 41.5t77 31t85 12.5q92 0 148 -75t56 -198v-563h-143v537q0 84 -26.5 129t-92.5 45q-23 0 -53.5 -13.5t-63 -31t-62.5 -37t-48 -31.5q4 -6 4 -20.5v-28.5v-549 h-143v537q0 84 -28 129t-93 45q-20 0 -51 -14.5t-63 -34t-60.5 -39t-46.5 -31.5v-592h-142z" />
<glyph unicode="n" d="M143 0v807h136v-105q39 23 77.5 46.5t79.5 43t84 32t90 12.5q94 0 151.5 -71t57.5 -204v-561h-141v535q0 92 -31 134t-96 42q-27 0 -62.5 -14.5t-73.5 -35t-73 -42t-57 -33.5v-586h-142z" />
<glyph unicode="o" horiz-adv-x="905" d="M61 406q0 84 29 161.5t81 138t124 96.5t156 36t156.5 -36t124.5 -96.5t82 -137t30 -156.5q0 -86 -30 -164t-82 -137.5t-123.5 -95t-157.5 -35.5t-157 33.5t-123 91t-81 135t-29 166.5zM211 406q0 -66 18.5 -123.5t50 -99.5t76.5 -66.5t101 -24.5q55 0 99 25.5t75 69.5 t47 103t16 122q0 61 -18.5 117.5t-52 99.5t-78.5 68.5t-101 25.5q-55 0 -98 -25.5t-73.5 -68.5t-46 -101.5t-15.5 -121.5z" />
<glyph unicode="p" horiz-adv-x="913" d="M143 -510v1317h138v-78q57 35 125.5 71t142.5 36q68 0 124 -32t96 -84t61.5 -120.5t21.5 -144.5q0 -104 -28.5 -191.5t-81 -151t-127 -98t-164.5 -34.5q-35 0 -81 7t-89 17v-514h-138zM281 137q43 -16 86 -28.5t90 -12.5q57 0 103 29t78 75t49.5 105.5t17.5 118.5 q0 53 -9.5 105.5t-33 94.5t-61.5 67.5t-95 25.5q-20 0 -52 -12.5t-66 -30t-63.5 -34.5t-43.5 -28v-475z" />
<glyph unicode="q" horiz-adv-x="923" d="M61 401q0 86 28 165t78 138.5t124 95.5t166 36q82 0 169 -29t154 -57v-1260h-135v590q-53 -41 -104.5 -66.5t-128.5 -25.5q-82 0 -147.5 30.5t-110.5 86t-69 131t-24 165.5zM205 414q0 -61 10 -116.5t37 -98.5t72 -69t116 -26q27 0 54.5 9.5t54 24t50.5 30.5t40 31v473 q-45 16 -92 33.5t-98 17.5q-61 0 -107.5 -24.5t-76 -66.5t-45 -98.5t-15.5 -119.5z" />
<glyph unicode="r" horiz-adv-x="608" d="M143 -2v809h140v-86q18 16 43.5 34.5t54.5 35t60.5 27.5t62.5 11q10 0 20.5 -2t20.5 -4t22 -4l-20 -123q-23 6 -66 6q-29 0 -54.5 -10t-50 -25.5t-47 -32t-44.5 -30.5v-606h-142z" />
<glyph unicode="s" horiz-adv-x="684" d="M63 49l56 113q31 -18 83 -42t130 -24q47 0 89 28t42 75q0 45 -26.5 75.5t-67.5 55t-88.5 48t-88 55.5t-67.5 77t-27 113q0 53 22.5 94t59.5 67.5t82 40t92 13.5q78 0 131.5 -19.5t100.5 -42.5l-51 -106q-29 16 -74 36.5t-111 20.5q-41 0 -79 -24.5t-38 -65.5t28 -69.5 t69 -53.5t90 -49.5t90 -57t68.5 -79.5t27.5 -117q0 -94 -72.5 -161.5t-203.5 -67.5q-94 0 -165 25.5t-102 41.5z" />
<glyph unicode="t" horiz-adv-x="679" d="M41 690v33l274 283v-199h265v-117h-265v-420q0 -92 29 -131t100 -39q47 0 88 15.5t80 34.5l37 -103q-49 -27 -109.5 -47t-142.5 -20q-43 0 -83 16t-71.5 48t-50 77t-18.5 102v467h-133z" />
<glyph unicode="u" horiz-adv-x="935" d="M143 246v561h142v-535q0 -92 31.5 -134t97.5 -42q25 0 57.5 14.5t66 34t64.5 41t51 35.5v586h140v-807h-136v102q-37 -23 -71.5 -46t-71.5 -41.5t-77 -31t-85 -12.5q-94 0 -151.5 71t-57.5 204z" />
<glyph unicode="v" horiz-adv-x="841" d="M10 793l144 45l272 -688l272 688l133 -39l-354 -799h-125z" />
<glyph unicode="w" horiz-adv-x="1290" d="M41 807l135 24l184 -708l205 684h152l196 -684l205 708l131 -32l-260 -799h-178l-178 623l-189 -623h-178z" />
<glyph unicode="x" horiz-adv-x="798" d="M33 31l291 381l-256 366l133 62l211 -328l233 326l117 -52l-275 -366l271 -387l-137 -56l-222 336l-245 -336z" />
<glyph unicode="y" horiz-adv-x="860" d="M10 795l146 43l284 -674l281 674l129 -43l-451 -1014q-72 -160 -160.5 -239t-179.5 -89l-30 119q33 6 68.5 26.5t72.5 55.5t70.5 87t60.5 124l59 153z" />
<glyph unicode="z" horiz-adv-x="772" d="M51 0v82l463 606h-426v119h606v-90l-465 -600h482v-117h-660z" />
<glyph unicode="{" horiz-adv-x="489" d="M61 526v125q70 0 101 44t26 98l-16 294q-6 94 25.5 153.5t72.5 94.5q47 39 109 60l33 -99q-31 -12 -54 -34q-20 -20 -34.5 -53t-10.5 -87l17 -301q6 -106 -36 -159.5t-112 -71.5q70 -14 112 -72.5t36 -161.5l-17 -301q-4 -53 13.5 -88t40.5 -57q25 -25 61 -39l-29 -94 q-68 16 -120 55q-45 35 -79 97.5t-28 166.5l16 289q2 25 -5 50.5t-22.5 45t-40 32.5t-59.5 13z" />
<glyph unicode="|" horiz-adv-x="458" d="M156 -547v1991h147v-1991h-147z" />
<glyph unicode="}" horiz-adv-x="489" d="M61 -129q33 14 60 39q23 23 41 57.5t14 87.5l-16 301q-6 102 36 160.5t111 73.5q-70 18 -111.5 71.5t-35.5 159.5l16 301q4 53 -12.5 86t-34.5 54q-23 23 -51 34l31 99q63 -20 110 -60q41 -35 72 -94t26 -154l-16 -294q-4 -53 25.5 -97.5t101.5 -44.5v-125 q-70 0 -100.5 -46t-26.5 -95l16 -289q6 -104 -28.5 -166.5t-79.5 -97.5q-53 -39 -119 -55z" />
<glyph unicode="~" horiz-adv-x="1064" d="M31 416q23 33 47 66.5t55 62t71 47t95 18.5q59 0 117.5 -21.5t116 -48t113.5 -48t112 -21.5q33 0 59.5 12.5t47 32t38 44t35.5 50.5l96 -86q-25 -33 -49 -65.5t-58 -60t-79 -45t-107 -17.5q-59 0 -114.5 21.5t-110.5 48t-109.5 48t-109.5 21.5q-29 0 -53.5 -13t-47 -33.5 t-41 -45.5t-32.5 -49z" />
<glyph unicode="&#xa1;" horiz-adv-x="360" d="M61 721q0 49 35 84t84 35t84 -35t35 -84t-35 -84t-84 -35t-84 35t-35 84zM98 41q0 45 6.5 113.5t14.5 134.5q8 76 20 157h86q12 -82 21 -157q8 -66 14 -134.5t6 -113.5v-397h-168v397z" />
<glyph unicode="&#xa2;" horiz-adv-x="770" d="M61 391q0 90 24 168t67 136.5t103 94t136 44.5l-2 178h121l-4 -181q55 -8 102 -26.5t86 -40.5l-55 -96q-47 23 -94 39t-109 16q-111 0 -171 -87t-60 -230q0 -63 16.5 -120t49 -99t81.5 -66.5t115 -24.5q37 0 64.5 4t52 12.5t47 19.5t49.5 26l49 -97q-53 -35 -105.5 -54 t-117.5 -25l4 -179h-121l4 181q-78 10 -139 46t-104.5 91t-66 123.5t-22.5 146.5z" />
<glyph unicode="&#xa3;" horiz-adv-x="837" d="M82 553v119h156q-4 41 -13.5 87t-9.5 99q0 80 25.5 145.5t69.5 111.5t105.5 71.5t133.5 25.5q66 0 117 -14t77 -31l-47 -123q-23 12 -58.5 26.5t-86.5 14.5q-47 0 -83 -18t-60.5 -48t-37 -70t-12.5 -83q0 -59 9.5 -103t15.5 -91h248v-119h-232q4 -53 6.5 -112.5 t-10.5 -106.5q-14 -53 -40.5 -113.5t-73.5 -101.5h495v-119h-690v96q80 39 129 125t49 187q0 35 -2 73.5t-6 71.5h-174z" />
<glyph unicode="&#xa4;" horiz-adv-x="940" d="M41 936l86 86l149 -150q41 29 91.5 44.5t103.5 15.5t103.5 -15.5t91.5 -44.5l147 148l86 -86l-149 -148q29 -41 45 -91t16 -103q0 -55 -16.5 -104.5t-44.5 -90.5l147 -147l-86 -86l-147 147q-41 -29 -90.5 -44t-102.5 -15t-103.5 15.5t-91.5 43.5l-147 -147l-86 86 l147 147q-29 41 -44 91.5t-15 103.5t15.5 103t43.5 91zM252 592q0 -45 17.5 -85t47 -69.5t69.5 -47t85 -17.5t85 17.5t69.5 47t47 69.5t17.5 85t-17.5 85t-47 69.5t-69.5 47t-85 17.5t-85 -17.5t-69.5 -47t-47 -69.5t-17.5 -85z" />
<glyph unicode="&#xa5;" horiz-adv-x="974" d="M23 340v104h378l-57 109h-321v104h266l-264 504l157 41l310 -614l319 616l141 -45l-274 -502h246v-104h-303l-62 -109h365v-104h-365v-340h-153v340h-383z" />
<glyph unicode="&#xa6;" horiz-adv-x="458" d="M156 262h147v-809h-147v809zM156 639v805h147v-805h-147z" />
<glyph unicode="&#xa7;" horiz-adv-x="905" d="M82 524q0 70 34 130.5t91 105.5q-37 35 -60.5 80t-23.5 100q0 61 26.5 112.5t70.5 88.5t103.5 57.5t127.5 20.5q98 0 180 -25t119 -43q-10 -29 -21.5 -57.5t-23.5 -57.5q-23 10 -55 21.5t-67.5 20.5t-72.5 14.5t-68 5.5t-61.5 -7.5t-55 -24.5t-40 -43t-15.5 -62 q0 -55 41 -93.5t102.5 -72t133 -68.5t133 -81t102.5 -110.5t41 -156.5q0 -154 -102 -246q72 -74 72 -168q0 -63 -22.5 -118.5t-68 -95.5t-112 -63.5t-154.5 -23.5q-80 0 -166 19.5t-145 42.5l43 127q25 -12 59.5 -24.5t72.5 -22t75 -15.5t67 -6q98 0 146.5 40t48.5 105 q0 61 -41 103.5t-102.5 79.5t-134 72.5t-134 81.5t-102.5 107.5t-41 149.5zM229 551q0 -66 45 -116t107.5 -92t130.5 -74.5t113 -61.5q23 31 34 69.5t11 67.5q0 78 -39 130t-95.5 90t-122 68t-118.5 62q-37 -29 -51.5 -63.5t-14.5 -79.5z" />
<glyph unicode="&#xa8;" horiz-adv-x="618" d="M61 1153q0 39 27 65.5t68 26.5q39 0 65.5 -26.5t26.5 -65.5q0 -41 -26.5 -67.5t-65.5 -26.5q-41 0 -68 26.5t-27 67.5zM371 1153q0 39 27.5 65.5t64.5 26.5q41 0 67.5 -26.5t26.5 -65.5q0 -41 -26.5 -67.5t-67.5 -26.5q-37 0 -64.5 26.5t-27.5 67.5z" />
<glyph unicode="&#xa9;" horiz-adv-x="1269" d="M43 590q0 123 46 230.5t127 187t188.5 126t230.5 46.5t230.5 -46.5t187.5 -126t127 -187t47 -230.5t-46 -230.5t-126 -187.5t-187.5 -126t-230.5 -46t-231.5 46t-188.5 126t-127 187.5t-47 230.5zM164 590q0 -104 34.5 -192.5t96 -153t148.5 -100t192 -35.5 q104 0 190 35.5t148.5 100t97.5 152.5t35 193h2q0 104 -35 192t-97.5 152.5t-148.5 100.5t-190 36t-191.5 -36t-150 -100.5t-97 -152.5t-34.5 -192zM319 571q0 74 20.5 141.5t59.5 118t95.5 81t128.5 30.5q63 0 120.5 -17.5t116.5 -47.5l-51 -101q-51 27 -94 44.5t-97 17.5 q-86 0 -127.5 -65.5t-41.5 -182.5q0 -49 15 -94t43 -80t65.5 -55.5t82.5 -20.5q33 0 56.5 5t44 13.5t41 20.5t47.5 27l47 -89q-61 -41 -119.5 -61t-128.5 -20q-72 0 -131 25.5t-102 71.5t-67 106.5t-24 131.5z" />
<glyph unicode="&#xaa;" horiz-adv-x="776" d="M172 954q0 39 17.5 69t46 51.5t67.5 32.5t80 13l109 4q2 12 2 26.5t-2 18.5q0 59 -20.5 79t-59.5 20q-41 0 -81 -11.5t-85 -27.5l-33 82q51 23 105.5 37t107.5 14q90 0 134 -53.5t44 -126.5v-375h-108v49q-41 -25 -83 -42t-94 -17q-59 0 -103 42t-44 115zM283 958 q0 -39 18 -54t51 -15q29 0 71 19.5t69 33.5v96l-52 -2q-25 0 -52.5 -3t-51 -11t-38.5 -23.5t-15 -40.5z" />
<glyph unicode="&#xab;" horiz-adv-x="661" d="M41 438l211 318l90 -58l-174 -260l174 -258l-90 -59zM319 438l211 318l91 -58l-175 -260l175 -258l-91 -59z" />
<glyph unicode="&#xac;" horiz-adv-x="980" d="M82 352v111h817v-305h-117v194h-700z" />
<glyph unicode="&#xad;" horiz-adv-x="512" d="M23 377v131h466v-131h-466z" />
<glyph unicode="&#xae;" horiz-adv-x="884" d="M20 1051q0 88 33 164.5t90.5 134t134 90.5t164.5 33t165 -33t134.5 -90.5t90 -134t32.5 -164.5t-32.5 -165t-90 -134.5t-134.5 -91t-165 -33.5t-164.5 33.5t-134 91t-90.5 134.5t-33 165zM121 1051q0 -68 24.5 -128.5t67.5 -105.5t101.5 -71.5t127.5 -26.5 q70 0 128.5 26.5t101.5 71.5t67.5 105.5t24.5 128.5q0 70 -24.5 130t-67.5 105t-101.5 70.5t-128.5 25.5t-128 -25.5t-101 -70.5t-67.5 -105.5t-24.5 -129.5zM311 811v494h123q84 0 126 -41t42 -97q0 -53 -28.5 -83.5t-55.5 -43.5l129 -213l-82 -28l-131 225h-37v-213h-86z M397 1092h37q37 0 58.5 17t21.5 54q0 31 -19.5 52.5t-60.5 21.5h-37v-145z" />
<glyph unicode="&#xaf;" horiz-adv-x="563" d="M61 1092v104h441v-104h-441z" />
<glyph unicode="&#xb0;" horiz-adv-x="608" d="M41 936q0 57 20.5 107.5t56.5 87t84 57t103 20.5h2q59 0 107.5 -21.5t82 -57t52 -84t18.5 -101.5q0 -61 -22.5 -110.5t-59 -85t-85 -55t-99.5 -19.5q-57 0 -104 20.5t-82 56t-54.5 84t-19.5 101.5zM147 936q0 -72 45.5 -122t112.5 -50q70 0 115 51t45 125q0 31 -9.5 62.5 t-29.5 57t-50 41t-71 15.5h-2q-37 0 -65.5 -15.5t-48 -40t-31 -57t-11.5 -67.5z" />
<glyph unicode="&#xb1;" horiz-adv-x="899" d="M82 -53v110h735v-110h-735zM82 475v111h309v307h117v-307h309v-111h-309v-311h-117v311h-309z" />
<glyph unicode="&#xb2;" horiz-adv-x="591" d="M61 483v78q61 63 115 123q47 51 92 103.5t70 84.5q25 35 41 65t16 50q0 41 -28.5 66.5t-77.5 25.5q-70 0 -156 -55l-57 94q47 35 99 55.5t112 20.5q45 0 88 -13.5t77.5 -39t56 -63.5t21.5 -87q0 -43 -17 -82t-44 -74.5t-58.5 -68.5t-58.5 -61l-110 -115h280v-107h-461z " />
<glyph unicode="&#xb3;" horiz-adv-x="557" d="M61 535l52 92q31 -18 60.5 -29.5t66.5 -11.5q68 0 96.5 33.5t28.5 78.5q-2 59 -43 90t-103 31h-49v94h47q43 0 84 25t41 74q0 35 -22.5 57.5t-69.5 22.5q-35 0 -59.5 -13.5t-53.5 -27.5l-49 86q37 25 82 41t98 16q98 0 151.5 -50t53.5 -120q0 -47 -22.5 -86t-65.5 -66 q45 -23 78 -66.5t33 -109.5q0 -88 -69 -150.5t-185 -62.5q-104 0 -181 52z" />
<glyph unicode="&#xb4;" horiz-adv-x="483" d="M61 1024l265 287l96 -101l-297 -252z" />
<glyph unicode="&#xb5;" horiz-adv-x="956" d="M143 -547v1354h140v-535q0 -92 38.5 -134t104.5 -42q25 0 58.5 14.5t69.5 34t67.5 41t52.5 35.5v586h139v-807h-135v102q-37 -23 -73 -46t-74.5 -41.5t-79.5 -31t-86 -12.5q-43 0 -82 17v-535h-140z" />
<glyph unicode="&#xb6;" horiz-adv-x="913" d="M20 895q0 115 33 194.5t93.5 130t144.5 73t188 22.5h291v-1825h-152v1722h-129v-723q-113 0 -199.5 16.5t-147 61.5t-91.5 124t-31 204zM166 897q0 -74 16.5 -129t44 -92t62.5 -55.5t71 -18.5v600q-45 0 -80.5 -24.5t-61 -65.5t-39 -97.5t-13.5 -117.5z" />
<glyph unicode="&#xb7;" horiz-adv-x="548" d="M156 471q0 47 34.5 82t83.5 35t84 -35t35 -82q0 -49 -34.5 -84t-84.5 -35q-49 0 -83.5 35t-34.5 84z" />
<glyph unicode="&#xb8;" horiz-adv-x="462" d="M61 -299q29 -14 70 -27.5t70 -13.5q33 0 64.5 19.5t31.5 66.5q0 45 -47 69.5t-109 37.5l80 153h107l-66 -108q49 -14 94 -53t45 -105q0 -72 -61 -111t-141 -39q-37 0 -74 11.5t-64 25.5v74z" />
<glyph unicode="&#xb9;" horiz-adv-x="487" d="M61 1075v105h250v-592h115v-105h-354v105h114v487h-125z" />
<glyph unicode="&#xba;" horiz-adv-x="776" d="M113 1083q0 55 20.5 107.5t56 92.5t85 64.5t108.5 24.5t109.5 -24.5t87 -64.5t57 -91.5t20.5 -104.5q0 -57 -20.5 -109t-57 -92t-87 -63.5t-109.5 -23.5t-108.5 22.5t-85 61.5t-56 90t-20.5 110zM233 1083q0 -37 10.5 -71.5t31 -62t49 -44t67.5 -14.5q68 2 108 61.5 t38 139.5q-2 39 -14.5 72.5t-34 59t-50 40t-61.5 14.5q-37 -2 -64.5 -18.5t-45 -44t-26 -61.5t-8.5 -71z" />
<glyph unicode="&#xbb;" horiz-adv-x="661" d="M41 180l174 258l-172 258l90 60l209 -318l-209 -317zM319 180l175 258l-172 258l90 60l209 -318l-209 -317z" />
<glyph unicode="&#xbc;" horiz-adv-x="1507" d="M61 1075v105h250v-592h115v-105h-354v105h114v487h-125zM338 -227l575 1669h125l-575 -1669h-125zM860 174v74l338 450h119v-419h88v-105h-88v-174h-129v174h-328zM1020 279h168v225z" />
<glyph unicode="&#xbd;" horiz-adv-x="1478" d="M61 1075v105h250v-592h115v-105h-354v105h114v487h-125zM338 -227l575 1669h125l-575 -1669h-125zM907 0v78q61 63 115 123q47 51 92 103t70 85q25 35 41 64.5t16 50.5q0 41 -28.5 66.5t-77.5 25.5q-70 0 -156 -55l-57 94q47 35 99 55.5t112 20.5q45 0 88 -13.5t77.5 -39 t56 -63.5t21.5 -87q0 -43 -17.5 -82t-44 -75t-58 -68.5t-58.5 -61.5l-111 -115h281v-106h-461z" />
<glyph unicode="&#xbe;" horiz-adv-x="1554" d="M61 535l52 92q31 -18 60.5 -29.5t66.5 -11.5q68 0 96.5 33.5t28.5 78.5q-2 59 -43 90t-103 31h-49v94h47q43 0 84 25t41 74q0 35 -22.5 57.5t-69.5 22.5q-35 0 -59.5 -13.5t-53.5 -27.5l-49 86q37 25 82 41t98 16q98 0 151.5 -50t53.5 -120q0 -47 -22.5 -86t-65.5 -66 q45 -23 78 -66.5t33 -109.5q0 -88 -69 -150.5t-185 -62.5q-104 0 -181 52zM385 -227l576 1669h124l-575 -1669h-125zM907 174v74l338 450h119v-419h88v-105h-88v-174h-129v174h-328zM1067 279h168v225z" />
<glyph unicode="&#xbf;" horiz-adv-x="655" d="M41 -109q0 66 22.5 117t55.5 92t71.5 78t71.5 77t55.5 85t22.5 104h123q0 -111 -41 -183.5t-90 -129.5t-90 -109.5t-41 -119.5q0 -72 48 -122t140 -50q57 0 101.5 25.5t72.5 47.5l72 -100q-49 -35 -115.5 -65.5t-154.5 -30.5q-68 0 -126.5 19.5t-102.5 56t-69.5 89 t-25.5 119.5zM285 719q0 49 34.5 84t83.5 35t83 -35t34 -84t-33.5 -83t-83.5 -34q-49 0 -83.5 34t-34.5 83z" />
<glyph unicode="&#xc0;" horiz-adv-x="1034" d="M41 8l424 1172h143l391 -1168l-145 -30l-129 397h-410l-133 -397zM270 1438l78 114l311 -235l-53 -78zM352 498h336l-164 512z" />
<glyph unicode="&#xc1;" horiz-adv-x="1034" d="M41 8l424 1172h143l391 -1168l-145 -30l-129 397h-410l-133 -397zM352 498h336l-164 512zM406 1317l309 235l78 -114l-336 -199z" />
<glyph unicode="&#xc2;" horiz-adv-x="1034" d="M41 8l424 1172h143l391 -1168l-145 -30l-129 397h-410l-133 -397zM231 1395l285 157l287 -159l-62 -105l-225 137l-223 -137zM352 498h336l-164 512z" />
<glyph unicode="&#xc3;" horiz-adv-x="1034" d="M41 8l424 1172h143l391 -1168l-145 -30l-129 397h-410l-133 -397zM266 1298q8 82 55.5 136.5t106.5 54.5q35 0 65.5 -14.5t58.5 -32t54.5 -31.5t50.5 -14q27 0 56.5 19.5t36.5 60.5l81 -21q-10 -76 -56 -129t-109 -53q-35 0 -66 14.5t-58.5 30.5t-53 30.5t-48.5 14.5 q-27 0 -59.5 -21.5t-36.5 -68.5zM352 498h336l-164 512z" />
<glyph unicode="&#xc4;" horiz-adv-x="1034" d="M41 8l424 1172h143l391 -1168l-145 -30l-129 397h-410l-133 -397zM279 1366q0 41 27.5 66.5t66.5 25.5t65.5 -25.5t26.5 -66.5q0 -39 -26.5 -66.5t-65.5 -27.5t-66.5 27.5t-27.5 66.5zM352 498h336l-164 512zM590 1366q0 41 26.5 66.5t65.5 25.5t66.5 -25.5t27.5 -66.5 q0 -39 -27.5 -66.5t-66.5 -27.5t-65.5 27.5t-26.5 66.5z" />
<glyph unicode="&#xc5;" horiz-adv-x="1034" d="M41 8l408 1127q-51 23 -81 65.5t-30 97.5q0 78 53 133.5t148 55.5h2q90 0 142 -54.5t52 -134.5q0 -55 -30.5 -98t-79.5 -65l374 -1123l-145 -30l-129 397h-410l-133 -397zM352 496h336l-164 514zM438 1298q0 -41 27 -74.5t72 -33.5q49 0 76.5 32.5t27.5 77.5 q0 47 -27.5 79t-74.5 32h-2q-47 0 -73 -34t-26 -79z" />
<glyph unicode="&#xc6;" horiz-adv-x="1433" d="M-8 0l690 1182h606v-121h-454v-395h376v-117h-376v-430h503v-119h-655v401h-307l-244 -424zM440 518h242v420z" />
<glyph unicode="&#xc7;" d="M100 600q0 143 38 257t108.5 192.5t172 120.5t226.5 42q33 0 66.5 -5t66.5 -13t59.5 -18.5t45.5 -20.5l-47 -117q-41 16 -91.5 30.5t-103.5 14.5q-66 0 -133.5 -23.5t-122.5 -78.5t-90 -146.5t-35 -228.5q0 -143 24.5 -238.5t70.5 -153.5t110.5 -83t142.5 -25 q49 0 85 4.5t65.5 11.5t58.5 18.5t62 25.5l39 -123q-37 -20 -114 -43t-167 -27l-45 -75q49 -14 94 -53.5t45 -104.5q0 -72 -61.5 -111t-141.5 -39q-37 0 -73.5 11.5t-63.5 25.5v74q29 -14 70 -27.5t69 -13.5q33 0 65 19.5t32 66.5q0 45 -47.5 69.5t-108.5 37.5l64 122 q-98 8 -178.5 48t-137.5 116t-88 189.5t-31 271.5z" />
<glyph unicode="&#xc8;" horiz-adv-x="942" d="M184 0v1180h611v-121h-459v-393h383v-117h-383v-430h510v-119h-662zM276 1438l78 114l312 -235l-52 -78z" />
<glyph unicode="&#xc9;" horiz-adv-x="942" d="M184 0v1180h611v-121h-459v-393h383v-117h-383v-430h510v-119h-662zM369 1317l311 235l78 -114l-338 -199z" />
<glyph unicode="&#xca;" horiz-adv-x="942" d="M184 0v1180h611v-121h-459v-393h383v-117h-383v-430h510v-119h-662zM186 1395l283 157l287 -159l-62 -105l-225 137l-223 -137z" />
<glyph unicode="&#xcb;" horiz-adv-x="942" d="M184 0v1180h611v-121h-459v-393h383v-117h-383v-430h510v-119h-662zM254 1366q0 41 26.5 66.5t67.5 25.5q37 0 64.5 -25.5t27.5 -66.5q0 -39 -27.5 -66.5t-64.5 -27.5q-41 0 -67.5 27.5t-26.5 66.5zM563 1366q0 41 27.5 66.5t64.5 25.5q41 0 68 -25.5t27 -66.5 q0 -39 -27 -66.5t-68 -27.5q-37 0 -64.5 27.5t-27.5 66.5z" />
<glyph unicode="&#xcc;" horiz-adv-x="514" d="M4 1438l78 114l309 -235l-51 -78zM186 0v1180h152v-1180h-152z" />
<glyph unicode="&#xcd;" horiz-adv-x="514" d="M117 1317l309 235l78 -114l-336 -199zM184 0v1180h152v-1180h-152z" />
<glyph unicode="&#xce;" horiz-adv-x="514" d="M-29 1395l283 157l287 -159l-62 -105l-225 137l-223 -137zM182 0v1180h152v-1180h-152z" />
<glyph unicode="&#xcf;" horiz-adv-x="514" d="M6 1366q0 41 26.5 66.5t67.5 25.5q39 0 66 -25.5t27 -66.5q0 -39 -27 -66.5t-66 -27.5q-41 0 -67.5 27.5t-26.5 66.5zM182 0v1180h152v-1180h-152zM315 1366q0 41 28 66.5t65 25.5q41 0 67.5 -25.5t26.5 -66.5q0 -39 -26.5 -66.5t-67.5 -27.5q-37 0 -65 27.5t-28 66.5z " />
<glyph unicode="&#xd0;" horiz-adv-x="1083" d="M25 545v119h159v516h326q127 0 218 -45t148.5 -124t84 -184.5t26.5 -226.5q0 -299 -131 -449.5t-352 -150.5h-320v545h-159zM336 119h147q168 0 252 112.5t84 372.5q0 80 -16.5 161t-53 146.5t-98 107.5t-153.5 42h-162v-397h233v-119h-233v-426z" />
<glyph unicode="&#xd1;" horiz-adv-x="1220" d="M184 0v1180h181l540 -916v916h137v-1180h-151l-569 965l2 -965h-140zM328 1298q8 82 55 136.5t106 54.5q35 0 66 -14.5t58.5 -32t54 -31.5t51.5 -14q27 0 56.5 19.5t35.5 60.5l82 -21q-10 -76 -56 -129t-110 -53q-35 0 -65.5 14.5t-58.5 30.5t-53.5 30.5t-47.5 14.5 q-27 0 -59.5 -21.5t-36.5 -68.5z" />
<glyph unicode="&#xd2;" horiz-adv-x="1126" d="M102 592q0 141 36 257t98.5 197.5t146.5 127t182 45.5q117 0 205 -50.5t145.5 -135.5t86 -198.5t28.5 -242.5q0 -141 -36 -256t-99.5 -196t-147 -125t-182.5 -44q-117 0 -204 49.5t-144 133.5t-86 197.5t-29 240.5zM264 629q0 -76 10.5 -168t44 -172t95 -134.5 t161.5 -54.5q92 0 149.5 46.5t88.5 115t42 148t11 149.5q0 76 -10 168t-44 173t-95.5 135.5t-163.5 54.5q-90 0 -146.5 -46.5t-88 -116t-43 -150.5t-11.5 -148zM369 1438l77 114l312 -235l-51 -78z" />
<glyph unicode="&#xd3;" horiz-adv-x="1126" d="M102 592q0 141 36 257t98.5 197.5t146.5 127t182 45.5q117 0 205 -50.5t145.5 -135.5t86 -198.5t28.5 -242.5q0 -141 -36 -256t-99.5 -196t-147 -125t-182.5 -44q-117 0 -204 49.5t-144 133.5t-86 197.5t-29 240.5zM264 629q0 -76 10.5 -168t44 -172t95 -134.5 t161.5 -54.5q92 0 149.5 46.5t88.5 115t42 148t11 149.5q0 76 -10 168t-44 173t-95.5 135.5t-163.5 54.5q-90 0 -146.5 -46.5t-88 -116t-43 -150.5t-11.5 -148zM410 1317l311 235l78 -114l-338 -199z" />
<glyph unicode="&#xd4;" horiz-adv-x="1126" d="M102 592q0 141 36 257t98.5 197.5t146.5 127t182 45.5q117 0 205 -50.5t145.5 -135.5t86 -198.5t28.5 -242.5q0 -141 -36 -256t-99.5 -196t-147 -125t-182.5 -44q-117 0 -204 49.5t-144 133.5t-86 197.5t-29 240.5zM264 629q0 -76 10.5 -168t44 -172t95 -134.5 t161.5 -54.5q92 0 149.5 46.5t88.5 115t42 148t11 149.5q0 76 -10 168t-44 173t-95.5 135.5t-163.5 54.5q-90 0 -146.5 -46.5t-88 -116t-43 -150.5t-11.5 -148zM279 1395l282 157l287 -159l-62 -105l-225 137l-223 -137z" />
<glyph unicode="&#xd5;" horiz-adv-x="1126" d="M102 592q0 141 36 257t98.5 197.5t146.5 127t182 45.5q117 0 205 -50.5t145.5 -135.5t86 -198.5t28.5 -242.5q0 -141 -36 -256t-99.5 -196t-147 -125t-182.5 -44q-117 0 -204 49.5t-144 133.5t-86 197.5t-29 240.5zM264 629q0 -76 10.5 -168t44 -172t95 -134.5 t161.5 -54.5q92 0 149.5 46.5t88.5 115t42 148t11 149.5q0 76 -10 168t-44 173t-95.5 135.5t-163.5 54.5q-90 0 -146.5 -46.5t-88 -116t-43 -150.5t-11.5 -148zM291 1298q8 82 55 136.5t107 54.5q35 0 65.5 -14.5t58 -32t54 -31.5t51.5 -14q27 0 56.5 19.5t35.5 60.5l82 -21 q-10 -76 -56 -129t-110 -53q-35 0 -65.5 14.5t-58 30.5t-53.5 30.5t-48 14.5q-27 0 -59.5 -21.5t-36.5 -68.5z" />
<glyph unicode="&#xd6;" horiz-adv-x="1126" d="M102 592q0 141 36 257t98.5 197.5t146.5 127t182 45.5q117 0 205 -50.5t145.5 -135.5t86 -198.5t28.5 -242.5q0 -141 -36 -256t-99.5 -196t-147 -125t-182.5 -44q-117 0 -204 49.5t-144 133.5t-86 197.5t-29 240.5zM264 629q0 -76 10.5 -168t44 -172t95 -134.5 t161.5 -54.5q92 0 149.5 46.5t88.5 115t42 148t11 149.5q0 76 -10 168t-44 173t-95.5 135.5t-163.5 54.5q-90 0 -146.5 -46.5t-88 -116t-43 -150.5t-11.5 -148zM315 1366q0 41 27 66.5t68 25.5q37 0 64.5 -25.5t27.5 -66.5q0 -39 -28 -66.5t-64 -27.5q-41 0 -68 27.5 t-27 66.5zM625 1366q0 41 27.5 66.5t64.5 25.5q41 0 67.5 -25.5t26.5 -66.5q0 -39 -26.5 -66.5t-67.5 -27.5q-37 0 -64.5 27.5t-27.5 66.5z" />
<glyph unicode="&#xd7;" horiz-adv-x="1042" d="M164 127l276 276l-276 277l82 82l278 -277l277 277l78 -78l-277 -276l277 -279l-82 -82l-277 277l-278 -277z" />
<glyph unicode="&#xd8;" horiz-adv-x="1126" d="M59 -8l138 192q-47 82 -71 186.5t-24 221.5q0 141 36 257t98.5 197.5t146.5 127t182 45.5q92 0 164 -31t127 -84l111 156l84 -60l-127 -180q53 -86 79.5 -195.5t26.5 -232.5q0 -141 -36 -256t-99.5 -196t-147 -125t-182.5 -44q-94 0 -167.5 32t-129.5 89l-114 -162z M264 629q0 -66 8.5 -144.5t30.5 -152.5l465 649q-35 49 -88 79t-127 30q-90 0 -146.5 -46.5t-88 -116t-43 -150.5t-11.5 -148zM356 217q35 -53 88.5 -85t130.5 -32q92 0 149.5 46.5t88.5 115t42 148t11 149.5q0 72 -9 155t-36 160z" />
<glyph unicode="&#xd9;" horiz-adv-x="1159" d="M172 379v801h152v-811q0 -53 17 -101.5t51 -85.5t82 -58.5t110 -21.5q121 0 189.5 77t68.5 194v807h151v-801q0 -98 -34.5 -173t-92 -126t-131 -78t-151.5 -27q-90 0 -166 29t-130.5 81t-85 127t-30.5 167zM344 1438l78 114l311 -235l-51 -78z" />
<glyph unicode="&#xda;" horiz-adv-x="1159" d="M172 379v801h152v-811q0 -53 17 -101.5t51 -85.5t82 -58.5t110 -21.5q121 0 189.5 77t68.5 194v807h151v-801q0 -98 -34.5 -173t-92 -126t-131 -78t-151.5 -27q-90 0 -166 29t-130.5 81t-85 127t-30.5 167zM426 1317l311 235l78 -114l-338 -199z" />
<glyph unicode="&#xdb;" horiz-adv-x="1159" d="M172 379v801h152v-811q0 -53 17 -101.5t51 -85.5t82 -58.5t110 -21.5q121 0 189.5 77t68.5 194v807h151v-801q0 -98 -34.5 -173t-92 -126t-131 -78t-151.5 -27q-90 0 -166 29t-130.5 81t-85 127t-30.5 167zM295 1395l283 157l286 -159l-61 -105l-225 137l-224 -137z" />
<glyph unicode="&#xdc;" horiz-adv-x="1159" d="M172 379v801h152v-811q0 -53 17 -101.5t51 -85.5t82 -58.5t110 -21.5q121 0 189.5 77t68.5 194v807h151v-801q0 -98 -34.5 -173t-92 -126t-131 -78t-151.5 -27q-90 0 -166 29t-130.5 81t-85 127t-30.5 167zM332 1366q0 41 26.5 66.5t67.5 25.5q37 0 64.5 -25.5 t27.5 -66.5q0 -39 -27.5 -66.5t-64.5 -27.5q-41 0 -67.5 27.5t-26.5 66.5zM641 1366q0 41 27.5 66.5t64.5 25.5q41 0 67.5 -25.5t26.5 -66.5q0 -39 -26.5 -66.5t-67.5 -27.5q-37 0 -64.5 27.5t-27.5 66.5z" />
<glyph unicode="&#xdd;" d="M20 1161l158 41l307 -614l322 616l141 -45l-395 -702v-457h-152v453zM348 1296l311 236l78 -115l-338 -198z" />
<glyph unicode="&#xde;" horiz-adv-x="913" d="M184 0v1182h152v-248h133q188 0 288.5 -82t100.5 -240q0 -86 -28.5 -155.5t-81 -118.5t-126 -74.5t-163.5 -23.5l-123 2v-242h-152zM336 358h113q121 0 184 59.5t63 180.5q0 117 -58 168t-169 51h-133v-459z" />
<glyph unicode="&#xdf;" horiz-adv-x="983" d="M143 0v989q0 162 88 258t234 96q61 0 119.5 -18t104.5 -56t74 -95.5t28 -133.5q0 -92 -39 -146t-87.5 -93t-87 -73t-38.5 -83q0 -43 27.5 -73.5t67.5 -56.5t88 -51.5t88 -58t67.5 -76t27.5 -106.5q0 -109 -71.5 -175t-206.5 -66q-78 0 -146.5 21.5t-115.5 47.5l53 109 q37 -25 98.5 -45.5t110.5 -20.5q51 0 93 28t42 77q0 43 -26.5 72.5t-67.5 55t-87 50t-87 56.5t-68 75t-27 104q0 55 17.5 94t45 70t58.5 58.5t58.5 57.5t45 65.5t17.5 86.5q0 96 -50 141.5t-120 45.5q-39 0 -74 -11.5t-60.5 -39t-39.5 -71.5t-14 -110v-999h-140z" />
<glyph unicode="&#xe0;" horiz-adv-x="819" d="M61 215q0 55 25 99t66 75t97 48.5t118 21.5l178 8v90q0 92 -36 127t-101 35q-66 0 -124.5 -17.5t-115.5 -39.5l-41 104q68 29 145.5 49.5t157.5 20.5q63 0 111.5 -20.5t80 -56.5t48 -84t16.5 -104v-571h-135v88q-66 -41 -132.5 -73.5t-148.5 -32.5q-41 0 -78.5 16 t-66.5 46t-46.5 73t-17.5 98zM184 1210l97 101l266 -287l-66 -66zM197 221q0 -66 33.5 -95.5t88.5 -29.5q25 0 57 10.5t63.5 24.5t59 29.5t46.5 25.5v176l-156 -8q-29 -2 -61.5 -9t-62 -22.5t-49 -40t-19.5 -61.5z" />
<glyph unicode="&#xe1;" horiz-adv-x="819" d="M61 215q0 55 25 99t66 75t97 48.5t118 21.5l178 8v90q0 92 -36 127t-101 35q-66 0 -124.5 -17.5t-115.5 -39.5l-41 104q68 29 145.5 49.5t157.5 20.5q63 0 111.5 -20.5t80 -56.5t48 -84t16.5 -104v-571h-135v88q-66 -41 -132.5 -73.5t-148.5 -32.5q-41 0 -78.5 16 t-66.5 46t-46.5 73t-17.5 98zM197 221q0 -66 33.5 -95.5t88.5 -29.5q25 0 57 10.5t63.5 24.5t59 29.5t46.5 25.5v176l-156 -8q-29 -2 -61.5 -9t-62 -22.5t-49 -40t-19.5 -61.5zM305 1024l266 287l97 -101l-297 -252z" />
<glyph unicode="&#xe2;" horiz-adv-x="819" d="M61 215q0 55 25 99t66 75t97 48.5t118 21.5l178 8v90q0 92 -36 127t-101 35q-66 0 -124.5 -17.5t-115.5 -39.5l-41 104q68 29 145.5 49.5t157.5 20.5q63 0 111.5 -20.5t80 -56.5t48 -84t16.5 -104v-571h-135v88q-66 -41 -132.5 -73.5t-148.5 -32.5q-41 0 -78.5 16 t-66.5 46t-46.5 73t-17.5 98zM80 1071l307 217l305 -217l-69 -100l-236 178l-237 -178zM197 221q0 -66 33.5 -95.5t88.5 -29.5q25 0 57 10.5t63.5 24.5t59 29.5t46.5 25.5v176l-156 -8q-29 -2 -61.5 -9t-62 -22.5t-49 -40t-19.5 -61.5z" />
<glyph unicode="&#xe3;" horiz-adv-x="819" d="M61 215q0 55 25 99t66 75t97 48.5t118 21.5l178 8v90q0 92 -36 127t-101 35q-66 0 -124.5 -17.5t-115.5 -39.5l-41 104q68 29 145.5 49.5t157.5 20.5q63 0 111.5 -20.5t80 -56.5t48 -84t16.5 -104v-571h-135v88q-66 -41 -132.5 -73.5t-148.5 -32.5q-41 0 -78.5 16 t-66.5 46t-46.5 73t-17.5 98zM121 1059q10 82 56 136t108 54q35 0 65.5 -14t58 -31.5t54 -32t51.5 -14.5t55.5 19.5t36.5 60.5l82 -20q-10 -76 -56 -129.5t-112 -53.5q-35 0 -65.5 14.5t-58 31t-52.5 30.5t-49 14q-25 0 -57.5 -21.5t-36.5 -68.5zM197 221q0 -66 33.5 -95.5 t88.5 -29.5q25 0 57 10.5t63.5 24.5t59 29.5t46.5 25.5v176l-156 -8q-29 -2 -61.5 -9t-62 -22.5t-49 -40t-19.5 -61.5z" />
<glyph unicode="&#xe4;" horiz-adv-x="819" d="M61 215q0 55 25 99t66 75t97 48.5t118 21.5l178 8v90q0 92 -36 127t-101 35q-66 0 -124.5 -17.5t-115.5 -39.5l-41 104q68 29 145.5 49.5t157.5 20.5q63 0 111.5 -20.5t80 -56.5t48 -84t16.5 -104v-571h-135v88q-66 -41 -132.5 -73.5t-148.5 -32.5q-41 0 -78.5 16 t-66.5 46t-46.5 73t-17.5 98zM154 1153q0 39 26.5 65.5t67.5 26.5q37 0 64.5 -26.5t27.5 -65.5q0 -41 -27.5 -67.5t-64.5 -26.5q-41 0 -67.5 26.5t-26.5 67.5zM197 221q0 -66 33.5 -95.5t88.5 -29.5q25 0 57 10.5t63.5 24.5t59 29.5t46.5 25.5v176l-156 -8q-29 -2 -61.5 -9 t-62 -22.5t-49 -40t-19.5 -61.5zM463 1153q0 39 27.5 65.5t64.5 26.5q41 0 67.5 -26.5t26.5 -65.5q0 -41 -26.5 -67.5t-67.5 -26.5q-37 0 -64.5 26.5t-27.5 67.5z" />
<glyph unicode="&#xe5;" horiz-adv-x="819" d="M61 215q0 55 25 99t66 75t97 48.5t118 21.5l178 8v90q0 92 -36 127t-101 35q-66 0 -124.5 -17.5t-115.5 -39.5l-41 104q68 29 145.5 49.5t157.5 20.5q63 0 111.5 -20.5t80 -56.5t48 -84t16.5 -104v-571h-135v88q-66 -41 -132.5 -73.5t-148.5 -32.5q-41 0 -78.5 16 t-66.5 46t-46.5 73t-17.5 98zM197 221q0 -66 33.5 -95.5t88.5 -29.5q25 0 57 10.5t63.5 24.5t59 29.5t46.5 25.5v176l-156 -8q-29 -2 -61.5 -9t-62 -22.5t-49 -40t-19.5 -61.5zM215 1145q0 78 53.5 133t147.5 55h2q90 0 142 -54t52 -134q0 -78 -55 -130t-141 -52 q-90 0 -145.5 52t-55.5 130zM315 1145q0 -41 27 -75t72 -34q49 0 76.5 33t27.5 78q0 47 -27.5 78.5t-74.5 31.5h-2q-47 0 -73 -33.5t-26 -78.5z" />
<glyph unicode="&#xe6;" horiz-adv-x="1302" d="M61 215q0 51 22.5 95t61.5 75t90.5 49.5t110.5 22.5l199 10v90q0 92 -36 127t-101 35q-66 0 -124.5 -17.5t-117.5 -42.5l-41 105q74 29 148.5 50.5t156.5 21.5q78 0 131 -34t82 -87q41 53 102.5 87t139.5 34q152 0 232.5 -96.5t113.5 -252.5l-62 -77l-485 -43 q14 -119 76.5 -194t173.5 -75q92 0 151.5 29t100.5 57l55 -100q-23 -16 -52.5 -33.5t-69.5 -34t-90 -26.5t-111 -10q-102 0 -179 50t-125 124q-27 -37 -54.5 -68t-65 -54.5t-90 -36.5t-128.5 -13q-41 0 -79.5 16t-68.5 46t-48.5 73t-18.5 98zM197 225q0 -66 33.5 -97.5 t88.5 -31.5q43 0 84 14.5t73 43t50.5 71.5t18.5 103v34l-156 -8q-29 -2 -61.5 -8t-62 -20.5t-49 -39t-19.5 -61.5zM686 473q109 10 193 19q37 4 70.5 7t61 6t35.5 4l25 3q-8 37 -20.5 75t-34 69.5t-53 51t-76.5 19.5q-39 0 -75 -17.5t-63.5 -51t-45 -81t-17.5 -104.5z" />
<glyph unicode="&#xe7;" horiz-adv-x="770" d="M61 391q0 98 27 180t76 141.5t118.5 92.5t155.5 33q76 0 141.5 -22.5t114.5 -51.5l-55 -96q-47 23 -94 39t-109 16q-111 0 -171 -87t-60 -230q0 -63 16.5 -120t49 -99t81.5 -66.5t115 -24.5q37 0 64.5 4t52 12.5t47 19.5t49.5 26l49 -97q-57 -35 -111.5 -55t-121.5 -24 l-52 -84q49 -14 94.5 -53.5t45.5 -104.5q0 -72 -61.5 -111t-141.5 -39q-37 0 -74 11.5t-63 25.5v74q29 -14 69.5 -27.5t69.5 -13.5q33 0 64.5 19.5t31.5 66.5q0 45 -47 69.5t-108 37.5l67 131q-78 10 -139.5 47t-103.5 91t-64.5 122.5t-22.5 146.5z" />
<glyph unicode="&#xe8;" horiz-adv-x="825" d="M61 389q0 94 22.5 175t66 141.5t108 95.5t148.5 35q76 0 133 -25t98 -70t68.5 -105.5t44.5 -133.5l-62 -78l-475 -80q16 -111 74.5 -178.5t169.5 -67.5q90 0 150.5 29t101.5 57l55 -100q-45 -31 -124 -67.5t-200 -36.5q-88 0 -157.5 33.5t-118.5 90t-76 131t-27 154.5z M186 1210l97 101l266 -287l-66 -66zM203 446l387 80q-10 37 -22.5 73t-32 64.5t-50 46t-75.5 17.5q-96 0 -151.5 -81t-55.5 -200z" />
<glyph unicode="&#xe9;" horiz-adv-x="825" d="M61 389q0 94 22.5 175t66 141.5t108 95.5t148.5 35q76 0 133 -25t98 -70t68.5 -105.5t44.5 -133.5l-62 -78l-475 -80q16 -111 74.5 -178.5t169.5 -67.5q90 0 150.5 29t101.5 57l55 -100q-45 -31 -124 -67.5t-200 -36.5q-88 0 -157.5 33.5t-118.5 90t-76 131t-27 154.5z M203 446l387 80q-10 37 -22.5 73t-32 64.5t-50 46t-75.5 17.5q-96 0 -151.5 -81t-55.5 -200zM289 1024l266 287l96 -101l-297 -252z" />
<glyph unicode="&#xea;" horiz-adv-x="825" d="M61 389q0 94 22.5 175t66 141.5t108 95.5t148.5 35q76 0 133 -25t98 -70t68.5 -105.5t44.5 -133.5l-62 -78l-475 -80q16 -111 74.5 -178.5t169.5 -67.5q90 0 150.5 29t101.5 57l55 -100q-45 -31 -124 -67.5t-200 -36.5q-88 0 -157.5 33.5t-118.5 90t-76 131t-27 154.5z M90 1071l307 217l305 -217l-69 -100l-236 178l-237 -178zM203 446l387 80q-10 37 -22.5 73t-32 64.5t-50 46t-75.5 17.5q-96 0 -151.5 -81t-55.5 -200z" />
<glyph unicode="&#xeb;" horiz-adv-x="825" d="M61 389q0 94 22.5 175t66 141.5t108 95.5t148.5 35q76 0 133 -25t98 -70t68.5 -105.5t44.5 -133.5l-62 -78l-475 -80q16 -111 74.5 -178.5t169.5 -67.5q90 0 150.5 29t101.5 57l55 -100q-45 -31 -124 -67.5t-200 -36.5q-88 0 -157.5 33.5t-118.5 90t-76 131t-27 154.5z M164 1153q0 39 26.5 65.5t67.5 26.5q37 0 64.5 -26.5t27.5 -65.5q0 -41 -27.5 -67.5t-64.5 -26.5q-41 0 -67.5 26.5t-26.5 67.5zM203 446l387 80q-10 37 -22.5 73t-32 64.5t-50 46t-75.5 17.5q-96 0 -151.5 -81t-55.5 -200zM473 1153q0 39 27.5 65.5t64.5 26.5 q41 0 67.5 -26.5t26.5 -65.5q0 -41 -26.5 -67.5t-67.5 -26.5q-37 0 -64.5 26.5t-27.5 67.5z" />
<glyph unicode="&#xec;" horiz-adv-x="499" d="M14 1210l97 101l264 -287l-64 -66zM182 0v807h140v-807h-140z" />
<glyph unicode="&#xed;" horiz-adv-x="499" d="M150 1024l266 287l96 -101l-297 -252zM180 0v807h139v-807h-139z" />
<glyph unicode="&#xee;" horiz-adv-x="499" d="M-51 1071l307 217l307 -217l-69 -100l-238 178l-238 -178zM180 0v807h139v-807h-139z" />
<glyph unicode="&#xef;" horiz-adv-x="499" d="M6 1153q0 39 26.5 65.5t67.5 26.5q39 0 66 -26.5t27 -65.5q0 -41 -27 -67.5t-66 -26.5q-41 0 -67.5 26.5t-26.5 67.5zM180 0v807h139v-807h-139zM315 1153q0 39 28 65.5t65 26.5q41 0 67.5 -26.5t26.5 -65.5q0 -41 -26.5 -67.5t-67.5 -26.5q-37 0 -65 26.5t-28 67.5z" />
<glyph unicode="&#xf0;" horiz-adv-x="905" d="M53 393q0 92 26.5 172t78 140.5t123 95.5t163.5 35q41 0 74 -7.5t62 -15.5q-16 29 -52 70t-90 86l-231 -78l-31 86l172 59q-41 27 -90 53.5t-104 49.5l45 96q82 -29 156.5 -65.5t136.5 -84.5l239 82l29 -86l-182 -63q127 -123 186 -266.5t59 -288.5q0 -55 -12 -137 t-53 -157t-123 -128t-219 -53q-74 0 -139.5 28.5t-115.5 82t-79 128t-29 166.5zM195 401q0 -61 15 -115.5t45 -94t76 -63.5t107 -24q57 0 102.5 29t74 74t44 99.5t15.5 105.5q0 104 -13.5 167.5t-27.5 102.5l-51 16q-31 10 -68 17.5t-72 7.5q-61 0 -107 -26.5t-78 -71.5 t-47 -103.5t-15 -120.5z" />
<glyph unicode="&#xf1;" d="M143 0v807h136v-105q39 23 77.5 46.5t79.5 43t84 32t90 12.5q94 0 151.5 -71t57.5 -204v-561h-141v535q0 92 -31 134t-96 42q-27 0 -62.5 -14.5t-73.5 -35t-73 -42t-57 -33.5v-586h-142zM215 1059q10 82 56 136t108 54q35 0 65.5 -14t58 -31.5t54.5 -32t51 -14.5 q25 0 55.5 19.5t36.5 60.5l82 -20q-10 -76 -56 -129.5t-112 -53.5q-35 0 -65.5 14.5t-58 31t-52 30.5t-49.5 14t-57.5 -21.5t-36.5 -68.5z" />
<glyph unicode="&#xf2;" horiz-adv-x="905" d="M61 406q0 84 29 161.5t81 138t124 96.5t156 36t156.5 -36t124.5 -96.5t82 -137t30 -156.5q0 -86 -30 -164t-82 -137.5t-123.5 -95t-157.5 -35.5t-157 33.5t-123 91t-81 135t-29 166.5zM207 1210l96 101l266 -287l-65 -66zM211 406q0 -66 18.5 -123.5t50 -99.5t76.5 -66.5 t101 -24.5q55 0 99 25.5t75 69.5t47 103t16 122q0 61 -18.5 117.5t-52 99.5t-78.5 68.5t-101 25.5q-55 0 -98 -25.5t-73.5 -68.5t-46 -101.5t-15.5 -121.5z" />
<glyph unicode="&#xf3;" horiz-adv-x="905" d="M61 406q0 84 29 161.5t81 138t124 96.5t156 36t156.5 -36t124.5 -96.5t82 -137t30 -156.5q0 -86 -30 -164t-82 -137.5t-123.5 -95t-157.5 -35.5t-157 33.5t-123 91t-81 135t-29 166.5zM211 406q0 -66 18.5 -123.5t50 -99.5t76.5 -66.5t101 -24.5q55 0 99 25.5t75 69.5 t47 103t16 122q0 61 -18.5 117.5t-52 99.5t-78.5 68.5t-101 25.5q-55 0 -98 -25.5t-73.5 -68.5t-46 -101.5t-15.5 -121.5zM332 1024l266 287l96 -101l-297 -252z" />
<glyph unicode="&#xf4;" horiz-adv-x="905" d="M61 406q0 84 29 161.5t81 138t124 96.5t156 36t156.5 -36t124.5 -96.5t82 -137t30 -156.5q0 -86 -30 -164t-82 -137.5t-123.5 -95t-157.5 -35.5t-157 33.5t-123 91t-81 135t-29 166.5zM137 1071l307 217l306 -217l-70 -100l-236 178l-237 -178zM211 406 q0 -66 18.5 -123.5t50 -99.5t76.5 -66.5t101 -24.5q55 0 99 25.5t75 69.5t47 103t16 122q0 61 -18.5 117.5t-52 99.5t-78.5 68.5t-101 25.5q-55 0 -98 -25.5t-73.5 -68.5t-46 -101.5t-15.5 -121.5z" />
<glyph unicode="&#xf5;" horiz-adv-x="905" d="M61 406q0 84 29 161.5t81 138t124 96.5t156 36t156.5 -36t124.5 -96.5t82 -137t30 -156.5q0 -86 -30 -164t-82 -137.5t-123.5 -95t-157.5 -35.5t-157 33.5t-123 91t-81 135t-29 166.5zM164 1059q10 82 56 136t108 54q35 0 65.5 -14t58 -31.5t54 -32t51.5 -14.5t55.5 19.5 t36.5 60.5l82 -20q-10 -76 -56 -129.5t-112 -53.5q-35 0 -65.5 14.5t-58 31t-52.5 30.5t-49 14q-25 0 -57.5 -21.5t-36.5 -68.5zM211 406q0 -66 18.5 -123.5t50 -99.5t76.5 -66.5t101 -24.5q55 0 99 25.5t75 69.5t47 103t16 122q0 61 -18.5 117.5t-52 99.5t-78.5 68.5 t-101 25.5q-55 0 -98 -25.5t-73.5 -68.5t-46 -101.5t-15.5 -121.5z" />
<glyph unicode="&#xf6;" horiz-adv-x="905" d="M61 406q0 84 29 161.5t81 138t124 96.5t156 36t156.5 -36t124.5 -96.5t82 -137t30 -156.5q0 -86 -30 -164t-82 -137.5t-123.5 -95t-157.5 -35.5t-157 33.5t-123 91t-81 135t-29 166.5zM199 1153q0 39 26.5 65.5t67.5 26.5q37 0 64.5 -26.5t27.5 -65.5q0 -41 -27.5 -67.5 t-64.5 -26.5q-41 0 -67.5 26.5t-26.5 67.5zM211 406q0 -66 18.5 -123.5t50 -99.5t76.5 -66.5t101 -24.5q55 0 99 25.5t75 69.5t47 103t16 122q0 61 -18.5 117.5t-52 99.5t-78.5 68.5t-101 25.5q-55 0 -98 -25.5t-73.5 -68.5t-46 -101.5t-15.5 -121.5zM508 1153 q0 39 27.5 65.5t64.5 26.5q41 0 67.5 -26.5t26.5 -65.5q0 -41 -26.5 -67.5t-67.5 -26.5q-37 0 -64.5 26.5t-27.5 67.5z" />
<glyph unicode="&#xf7;" horiz-adv-x="980" d="M82 352v111h817v-111h-817zM371 102q0 49 34.5 84t83.5 35t85 -35t36 -84t-34.5 -83.5t-83.5 -34.5t-85 34.5t-36 83.5zM371 713q0 49 34.5 83.5t83.5 34.5t85 -34.5t36 -83.5t-34.5 -84t-83.5 -35t-85 35t-36 84z" />
<glyph unicode="&#xf8;" horiz-adv-x="905" d="M18 -8l125 145q-39 55 -60.5 123t-21.5 146q0 84 29 161.5t81 138t124 96.5t156 36q66 0 123 -22.5t104 -59.5l119 137l84 -57l-131 -154q45 -57 69.5 -127t24.5 -143q0 -86 -30 -164t-82 -137.5t-123.5 -95t-157.5 -35.5q-66 0 -124.5 20t-105.5 57l-119 -139zM211 397 q2 -80 31 -147l354 409q-33 31 -72 48.5t-84 15.5q-55 -2 -99 -28.5t-73.5 -71.5t-44 -103.5t-12.5 -122.5zM303 156q33 -31 73 -48.5t87 -15.5q55 2 99 30t74 73t45 103.5t13 121.5q-4 84 -37 153z" />
<glyph unicode="&#xf9;" horiz-adv-x="935" d="M143 246v561h142v-535q0 -92 31.5 -134t97.5 -42q25 0 57.5 14.5t66 34t64.5 41t51 35.5v586h140v-807h-136v102q-37 -23 -71.5 -46t-71.5 -41.5t-77 -31t-85 -12.5q-94 0 -151.5 71t-57.5 204zM227 1210l97 101l266 -287l-66 -66z" />
<glyph unicode="&#xfa;" horiz-adv-x="935" d="M143 246v561h142v-535q0 -92 31.5 -134t97.5 -42q25 0 57.5 14.5t66 34t64.5 41t51 35.5v586h140v-807h-136v102q-37 -23 -71.5 -46t-71.5 -41.5t-77 -31t-85 -12.5q-94 0 -151.5 71t-57.5 204zM367 1024l266 287l96 -101l-297 -252z" />
<glyph unicode="&#xfb;" horiz-adv-x="935" d="M143 246v561h142v-535q0 -92 31.5 -134t97.5 -42q25 0 57.5 14.5t66 34t64.5 41t51 35.5v586h140v-807h-136v102q-37 -23 -71.5 -46t-71.5 -41.5t-77 -31t-85 -12.5q-94 0 -151.5 71t-57.5 204zM156 1071l307 217l305 -217l-70 -100l-235 178l-238 -178z" />
<glyph unicode="&#xfc;" horiz-adv-x="935" d="M143 246v561h142v-535q0 -92 31.5 -134t97.5 -42q25 0 57.5 14.5t66 34t64.5 41t51 35.5v586h140v-807h-136v102q-37 -23 -71.5 -46t-71.5 -41.5t-77 -31t-85 -12.5q-94 0 -151.5 71t-57.5 204zM223 1153q0 39 26.5 65.5t67.5 26.5q37 0 65 -26.5t28 -65.5 q0 -41 -28 -67.5t-65 -26.5q-41 0 -67.5 26.5t-26.5 67.5zM532 1153q0 39 28 65.5t65 26.5q41 0 67.5 -26.5t26.5 -65.5q0 -41 -26.5 -67.5t-67.5 -26.5q-37 0 -65 26.5t-28 67.5z" />
<glyph unicode="&#xfd;" horiz-adv-x="860" d="M10 795l146 43l284 -674l281 674l129 -43l-451 -1014q-72 -160 -160.5 -239t-179.5 -89l-30 119q33 6 68.5 26.5t72.5 55.5t70.5 87t60.5 124l59 153zM322 1024l266 287l96 -101l-297 -252z" />
<glyph unicode="&#xfe;" horiz-adv-x="913" d="M143 -510v1827h138v-588q57 35 125.5 71t142.5 36q68 0 124 -32t96 -84t61.5 -120.5t21.5 -144.5q0 -104 -28.5 -191.5t-81 -151t-127 -98t-164.5 -34.5q-35 0 -81 7t-89 17v-514h-138zM281 137q43 -16 86 -28.5t90 -12.5q57 0 103 29t78 75t49.5 105.5t17.5 118.5 q0 53 -9.5 105.5t-33 94.5t-61.5 67.5t-95 25.5q-20 0 -52 -12.5t-66 -30t-63.5 -34.5t-43.5 -28v-475z" />
<glyph unicode="&#xff;" horiz-adv-x="860" d="M10 795l146 43l284 -674l281 674l129 -43l-451 -1014q-72 -160 -160.5 -239t-179.5 -89l-30 119q33 6 68.5 26.5t72.5 55.5t70.5 87t60.5 124l59 153zM174 1153q0 39 26.5 65.5t67.5 26.5q37 0 64.5 -26.5t27.5 -65.5q0 -41 -27.5 -67.5t-64.5 -26.5q-41 0 -67.5 26.5 t-26.5 67.5zM483 1153q0 39 28 65.5t64 26.5q41 0 68 -26.5t27 -65.5q0 -41 -27 -67.5t-68 -26.5q-37 0 -64.5 26.5t-27.5 67.5z" />
<glyph unicode="&#x152;" horiz-adv-x="1478" d="M102 592q0 141 36 257t98.5 197.5t146.5 127t182 45.5q51 0 95.5 -10.5t84.5 -26.5h588v-121h-459v-395h381v-117h-381v-430h508v-119h-657q-76 -35 -160 -35q-117 0 -204 50.5t-144 136.5t-86 199.5t-29 240.5zM264 629q0 -76 10.5 -169t44 -174t95 -136.5t161.5 -55.5 q45 0 81 7.5t65 29.5v909q-68 49 -168 50q-90 0 -146.5 -46.5t-88 -116t-43 -150.5t-11.5 -148z" />
<glyph unicode="&#x153;" horiz-adv-x="1460" d="M61 406q0 84 29 161.5t81 138t124 96.5t156 36q98 0 177 -51.5t132 -127.5q43 78 113.5 127.5t168.5 49.5q76 0 133.5 -25t98.5 -70t68.5 -105.5t43.5 -133.5l-61 -78l-477 -80q16 -111 74.5 -178.5t169.5 -67.5q92 0 151.5 29t99.5 57l56 -100q-23 -16 -52.5 -33.5 t-69.5 -34t-90 -26.5t-112 -10q-104 0 -184 50t-127 128q-53 -78 -133 -128t-180 -50q-86 0 -157 33.5t-123 91t-81 135t-29 166.5zM211 397q2 -66 21.5 -122t52 -97t78 -64.5t100.5 -21.5t99 30t74 73t45 103.5t13 121.5q-2 59 -21.5 114.5t-53 98.5t-78.5 67.5t-101 22.5 q-55 -2 -99 -28.5t-73.5 -71.5t-44 -103.5t-12.5 -122.5zM840 446l387 80q-10 37 -22.5 73t-32 64.5t-50 46t-75.5 17.5q-96 0 -151.5 -81t-55.5 -200z" />
<glyph unicode="&#x178;" d="M20 1161l158 41l307 -614l322 616l141 -45l-395 -702v-457h-152v453zM250 1366q0 41 26.5 66.5t67.5 25.5q37 0 64.5 -25.5t27.5 -66.5q0 -39 -27.5 -66.5t-64.5 -27.5q-41 0 -67.5 27.5t-26.5 66.5zM559 1366q0 41 27.5 66.5t64.5 25.5q41 0 67.5 -25.5t26.5 -66.5 q0 -39 -26.5 -66.5t-67.5 -27.5q-37 0 -64.5 27.5t-27.5 66.5z" />
<glyph unicode="&#x2c6;" horiz-adv-x="737" d="M61 1071l308 217l307 -217l-70 -100l-237 178l-238 -178z" />
<glyph unicode="&#x2dc;" horiz-adv-x="688" d="M61 1059q8 82 55.5 136t106.5 54q35 0 65.5 -14t58.5 -31.5t54.5 -32t51.5 -14.5q27 0 56.5 19.5t37.5 60.5l80 -20q-10 -76 -55.5 -129.5t-110.5 -53.5q-35 0 -65.5 14.5t-58.5 31t-52.5 30.5t-48.5 14q-27 0 -59 -21.5t-36 -68.5z" />
<glyph unicode="&#x2000;" horiz-adv-x="776" />
<glyph unicode="&#x2001;" horiz-adv-x="1552" />
<glyph unicode="&#x2002;" horiz-adv-x="776" />
<glyph unicode="&#x2003;" horiz-adv-x="1552" />
<glyph unicode="&#x2004;" horiz-adv-x="517" />
<glyph unicode="&#x2005;" horiz-adv-x="388" />
<glyph unicode="&#x2006;" horiz-adv-x="258" />
<glyph unicode="&#x2007;" horiz-adv-x="258" />
<glyph unicode="&#x2008;" horiz-adv-x="194" />
<glyph unicode="&#x2009;" horiz-adv-x="310" />
<glyph unicode="&#x200a;" horiz-adv-x="86" />
<glyph unicode="&#x2010;" horiz-adv-x="512" d="M23 377v131h466v-131h-466z" />
<glyph unicode="&#x2011;" horiz-adv-x="512" d="M23 377v131h466v-131h-466z" />
<glyph unicode="&#x2012;" horiz-adv-x="512" d="M23 377v131h466v-131h-466z" />
<glyph unicode="&#x2013;" horiz-adv-x="1024" d="M61 377v131h902v-131h-902z" />
<glyph unicode="&#x2014;" horiz-adv-x="2048" d="M61 377v131h1926v-131h-1926z" />
<glyph unicode="&#x2018;" horiz-adv-x="352" d="M41 954q0 12 4 27.5t8 26.5l160 309l98 -43l-69 -178q-16 -39 -4 -79t41 -63q0 -49 -35 -83.5t-84 -34.5t-84 34.5t-35 83.5z" />
<glyph unicode="&#x2019;" horiz-adv-x="352" d="M41 877l70 178q16 39 3.5 79t-40.5 62q0 49 34.5 84t84.5 35q49 0 83.5 -35t34.5 -84q0 -12 -4 -27.5t-8 -25.5l-160 -309z" />
<glyph unicode="&#x201a;" horiz-adv-x="352" d="M41 -217l70 178q16 39 3.5 79t-40.5 62q0 49 34.5 84t84.5 35q49 0 83.5 -35t34.5 -84q0 -10 -4 -25.5t-8 -25.5l-160 -311z" />
<glyph unicode="&#x201c;" horiz-adv-x="696" d="M41 954q0 10 4 25.5t8 26.5l160 311l98 -43l-69 -178q-16 -39 -4 -79t41 -63q0 -49 -35 -83.5t-84 -34.5t-84 34.5t-35 83.5zM385 954q0 10 4 25.5t8 26.5l160 311l98 -43l-69 -178q-16 -39 -4 -79t41 -63q0 -49 -35 -83.5t-84 -34.5t-84 34.5t-35 83.5z" />
<glyph unicode="&#x201d;" horiz-adv-x="696" d="M41 874l70 181q16 39 3.5 77.5t-40.5 61.5q0 51 34.5 86t84.5 35q49 0 83.5 -35t34.5 -84q0 -12 -4 -27.5t-8 -25.5l-160 -309zM385 874l70 181q16 39 3.5 77.5t-40.5 61.5q0 51 34.5 86t84.5 35q49 0 83.5 -35t34.5 -84q0 -12 -4 -27.5t-8 -25.5l-160 -309z" />
<glyph unicode="&#x201e;" horiz-adv-x="696" d="M41 -217l70 178q16 39 3.5 79t-40.5 62q0 49 34.5 84t84.5 35q49 0 83.5 -35t34.5 -84q0 -10 -4 -25.5t-8 -25.5l-160 -311zM385 -217l70 178q16 39 3.5 79t-40.5 62q0 49 34.5 84t84.5 35q49 0 83.5 -35t34.5 -84q0 -10 -4 -25.5t-8 -25.5l-160 -311z" />
<glyph unicode="&#x2022;" horiz-adv-x="727" d="M156 604q0 45 15 83t44 65.5t66.5 44t80.5 16.5t81 -16.5t67 -44t45 -65.5t16 -83q0 -88 -60 -147.5t-149 -59.5h-2q-86 0 -145 58.5t-59 148.5z" />
<glyph unicode="&#x2026;" horiz-adv-x="1884" d="M217 102q0 49 35 84t84 35t84 -35t35 -84t-35 -83.5t-84 -34.5t-84 34.5t-35 83.5zM823 102q0 49 35 84t84 35t84 -35t35 -84t-35 -83.5t-84 -34.5t-84 34.5t-35 83.5zM1430 102q0 49 34.5 84t83.5 35t84 -35t35 -84t-35 -83.5t-84 -34.5t-83.5 34.5t-34.5 83.5z" />
<glyph unicode="&#x202f;" horiz-adv-x="310" />
<glyph unicode="&#x2039;" horiz-adv-x="382" d="M41 438l211 318l90 -58l-174 -260l174 -258l-90 -59z" />
<glyph unicode="&#x203a;" horiz-adv-x="382" d="M41 180l174 258l-172 258l90 60l209 -318l-209 -317z" />
<glyph unicode="&#x205f;" horiz-adv-x="388" />
<glyph unicode="&#x20ac;" d="M100 600q0 143 38 257t108.5 192.5t172 120.5t226.5 42q33 0 66.5 -5t66.5 -13t59.5 -18.5t45.5 -20.5l-47 -117q-41 16 -91.5 30.5t-103.5 14.5t-109.5 -16t-106.5 -53t-90 -97.5t-59 -150.5h531v-102h-545q-2 -14 -2 -27.5v-30.5v-53h547v-102h-537q12 -96 42 -163 t73 -107t99.5 -57.5t123.5 -17.5q49 0 85 4.5t65.5 11.5t58.5 18.5t62 25.5l39 -123q-20 -10 -54.5 -23.5t-75 -23.5t-89 -17.5t-97.5 -7.5q-113 0 -205 34t-158.5 109.5t-102.5 195.5t-36 290z" />
<glyph unicode="&#x2122;" horiz-adv-x="1351" d="M12 1343v101h518v-101h-202v-598h-115v598h-201zM604 745l47 699h140l153 -535l154 535h135l45 -699l-115 -4l-24 498l-150 -494h-100l-146 494l-30 -498z" />
<glyph unicode="&#x25fc;" horiz-adv-x="839" d="M0 0v840h840v-840h-840z" />
<glyph unicode="&#xfb01;" horiz-adv-x="995" d="M63 690v117h127v176q0 92 31 159.5t79 111.5t106.5 66.5t115.5 22.5t106.5 -10t91.5 -26.5t74.5 -36t59.5 -37.5l-57 -103q-45 29 -107.5 61t-157.5 32q-39 0 -74.5 -15.5t-63 -46.5t-45 -77t-17.5 -107v-170h510v-807h-142v690h-368v-690h-142v690h-127z" />
<glyph unicode="&#xfb02;" horiz-adv-x="995" d="M63 690v117h127v176q0 92 31 159.5t79 111.5t106.5 66.5t115.5 22.5q59 0 106.5 -10t88.5 -26v8h141v-1315h-141v1180q-35 16 -81 29.5t-104 13.5q-39 0 -74.5 -15.5t-63 -46.5t-45 -77t-17.5 -107v-170h203v-117h-203v-690h-142v690h-127z" />
</font>
</defs>
</svg>
